G04 DipTrace 3.0.0.1*
G04 BottomDimension.gbr*
%MOIN*%
G04 #@! TF.FileFunction,Drawing,Bot*
G04 #@! TF.Part,Single*
%ADD13C,0.001378*%
%ADD110C,0.006176*%
%FSLAX26Y26*%
G04*
G70*
G90*
G75*
G01*
G04 BotDimension*
%LPD*%
X1468110Y2781102D2*
D13*
Y2472047D1*
X1668110Y2785827D2*
Y2472047D1*
X1468110Y2491732D2*
X1668110D1*
X1409055D2*
X1428740D1*
G36*
X1468110D2*
X1428740Y2483858D1*
Y2499606D1*
X1468110Y2491732D1*
G37*
X1727165D2*
D13*
X1707480D1*
G36*
X1668110D2*
X1707480Y2499606D1*
Y2483858D1*
X1668110Y2491732D1*
G37*
Y2785827D2*
D13*
X1761417D1*
X1668110Y2585827D2*
X1761417D1*
X1741732Y2785827D2*
Y2585827D1*
Y2844882D2*
Y2825197D1*
G36*
Y2785827D2*
X1733858Y2825197D1*
X1749606D1*
X1741732Y2785827D1*
G37*
Y2526772D2*
D13*
Y2546457D1*
G36*
Y2585827D2*
X1749606Y2546457D1*
X1733858D1*
X1741732Y2585827D1*
G37*
X1468110Y2781102D2*
D13*
X1393307D1*
X1468110Y2581102D2*
X1393307D1*
X1412992Y2781102D2*
Y2581102D1*
Y2840157D2*
Y2820472D1*
G36*
Y2781102D2*
X1405118Y2820472D1*
X1420866D1*
X1412992Y2781102D1*
G37*
Y2522047D2*
D13*
Y2541732D1*
G36*
Y2581102D2*
X1420866Y2541732D1*
X1405118D1*
X1412992Y2581102D1*
G37*
X1608871Y2544091D2*
D110*
X1627972D1*
X1629873Y2526891D1*
X1627972Y2528792D1*
X1622224Y2530738D1*
X1616520D1*
X1610772Y2528792D1*
X1606925Y2524990D1*
X1605024Y2519242D1*
Y2515439D1*
X1606925Y2509691D1*
X1610772Y2505844D1*
X1616520Y2503943D1*
X1622224D1*
X1627972Y2505844D1*
X1629873Y2507790D1*
X1631818Y2511592D1*
X1590771Y2507790D2*
X1592672Y2505844D1*
X1590771Y2503943D1*
X1588826Y2505844D1*
X1590771Y2507790D1*
X1564978Y2544091D2*
X1570726Y2542190D1*
X1574573Y2536442D1*
X1576474Y2526891D1*
Y2521143D1*
X1574573Y2511592D1*
X1570726Y2505844D1*
X1564978Y2503943D1*
X1561176D1*
X1555428Y2505844D1*
X1551625Y2511592D1*
X1549680Y2521143D1*
Y2526891D1*
X1551625Y2536442D1*
X1555428Y2542190D1*
X1561176Y2544091D1*
X1564978D1*
X1551625Y2536442D2*
X1574573Y2511592D1*
X1527778Y2544091D2*
X1533481Y2542190D1*
X1535427Y2538387D1*
Y2534540D1*
X1533481Y2530738D1*
X1529679Y2528792D1*
X1522030Y2526891D1*
X1516282Y2524990D1*
X1512479Y2521143D1*
X1510578Y2517340D1*
Y2511592D1*
X1512479Y2507790D1*
X1514380Y2505844D1*
X1520128Y2503943D1*
X1527778D1*
X1533481Y2505844D1*
X1535427Y2507790D1*
X1537328Y2511592D1*
Y2517340D1*
X1535427Y2521143D1*
X1531580Y2524990D1*
X1525876Y2526891D1*
X1518227Y2528792D1*
X1514380Y2530738D1*
X1512479Y2534540D1*
Y2538387D1*
X1514380Y2542190D1*
X1520128Y2544091D1*
X1527778D1*
X1794091Y2645066D2*
Y2625965D1*
X1776891Y2624064D1*
X1778792Y2625965D1*
X1780738Y2631713D1*
Y2637417D1*
X1778792Y2643165D1*
X1774990Y2647012D1*
X1769242Y2648913D1*
X1765439D1*
X1759691Y2647012D1*
X1755844Y2643165D1*
X1753943Y2637417D1*
Y2631713D1*
X1755844Y2625965D1*
X1757790Y2624064D1*
X1761592Y2622119D1*
X1757790Y2663166D2*
X1755844Y2661265D1*
X1753943Y2663166D1*
X1755844Y2665111D1*
X1757790Y2663166D1*
X1794091Y2688959D2*
X1792190Y2683211D1*
X1786442Y2679364D1*
X1776891Y2677463D1*
X1771143D1*
X1761592Y2679364D1*
X1755844Y2683211D1*
X1753943Y2688959D1*
Y2692761D1*
X1755844Y2698509D1*
X1761592Y2702312D1*
X1771143Y2704257D1*
X1776891D1*
X1786442Y2702312D1*
X1792190Y2698509D1*
X1794091Y2692761D1*
Y2688959D1*
X1786442Y2702312D2*
X1761592Y2679364D1*
X1794091Y2726159D2*
X1792190Y2720456D1*
X1788387Y2718510D1*
X1784540D1*
X1780738Y2720456D1*
X1778792Y2724258D1*
X1776891Y2731907D1*
X1774990Y2737655D1*
X1771143Y2741458D1*
X1767340Y2743359D1*
X1761592D1*
X1757790Y2741458D1*
X1755844Y2739557D1*
X1753943Y2733809D1*
Y2726159D1*
X1755844Y2720456D1*
X1757790Y2718510D1*
X1761592Y2716609D1*
X1767340D1*
X1771143Y2718510D1*
X1774990Y2722357D1*
X1776891Y2728061D1*
X1778792Y2735710D1*
X1780738Y2739557D1*
X1784540Y2741458D1*
X1788387D1*
X1792190Y2739557D1*
X1794091Y2733809D1*
Y2726159D1*
X1360634Y2721863D2*
Y2740964D1*
X1377833Y2742865D1*
X1375932Y2740964D1*
X1373987Y2735216D1*
Y2729512D1*
X1375932Y2723764D1*
X1379735Y2719917D1*
X1385483Y2718016D1*
X1389285D1*
X1395033Y2719917D1*
X1398880Y2723764D1*
X1400781Y2729512D1*
Y2735216D1*
X1398880Y2740964D1*
X1396935Y2742865D1*
X1393132Y2744811D1*
X1396935Y2703763D2*
X1398880Y2705665D1*
X1400781Y2703763D1*
X1398880Y2701818D1*
X1396935Y2703763D1*
X1360634Y2677970D2*
X1362535Y2683718D1*
X1368283Y2687565D1*
X1377833Y2689466D1*
X1383581D1*
X1393132Y2687565D1*
X1398880Y2683718D1*
X1400781Y2677970D1*
Y2674168D1*
X1398880Y2668420D1*
X1393132Y2664617D1*
X1383581Y2662672D1*
X1377833D1*
X1368283Y2664617D1*
X1362535Y2668420D1*
X1360634Y2674168D1*
Y2677970D1*
X1368283Y2664617D2*
X1393132Y2687565D1*
X1360634Y2640770D2*
X1362535Y2646474D1*
X1366337Y2648419D1*
X1370184D1*
X1373987Y2646474D1*
X1375932Y2642671D1*
X1377833Y2635022D1*
X1379735Y2629274D1*
X1383581Y2625471D1*
X1387384Y2623570D1*
X1393132D1*
X1396935Y2625471D1*
X1398880Y2627372D1*
X1400781Y2633120D1*
Y2640770D1*
X1398880Y2646474D1*
X1396935Y2648419D1*
X1393132Y2650320D1*
X1387384D1*
X1383581Y2648419D1*
X1379735Y2644572D1*
X1377833Y2638868D1*
X1375932Y2631219D1*
X1373987Y2627372D1*
X1370184Y2625471D1*
X1366337D1*
X1362535Y2627372D1*
X1360634Y2633120D1*
Y2640770D1*
M02*
