M48
INCH
T01C0.019
T02C0.0354
T03C0.0472
T04C0.126
T05C0.1378
%
T01
X+016681Y+027858
X+016681Y+025858
X+014681Y+025811
X+014681Y+027811
X+013787Y+023843
X+012043Y+023843
X+013835Y+020846
X+016319Y+020713
X+016827Y+020728
X+017287Y+020815
X+016587Y+019137
X+012987Y+018487
X+013409Y+015642
X+013925Y+015669
X+014487Y+015637
X+014587Y+014437
X+015287Y+013537
X+014937Y+012487
X+013933Y+011370
X+014350Y+010906
X+014886Y+010594
X+015047Y+009307
X+014937Y+008787
X+014961Y+007677
X+014173Y+007677
X+013386Y+007677
X+013780Y+006102
X+014961Y+006102
X+015945Y+006102
X+015945Y+005315
X+015945Y+004528
X+016732Y+004528
X+016732Y+005315
X+016732Y+006102
X+015945Y+006890
X+015945Y+007677
X+016637Y+007987
X+017787Y+007537
X+012598Y+006102
X+012598Y+005315
X+012598Y+004528
X+011811Y+004528
X+011811Y+005315
X+011811Y+006102
X+011039Y+008276
X+010031Y+008252
X+009031Y+008209
X+007126Y+007992
X+006850Y+005081
X+008600Y+005081
X+009594Y+011965
X+009988Y+012374
X+011031Y+015366
X+008465Y+016929
X+008465Y+017717
X+008465Y+018504
X+008465Y+019094
X+007677Y+019094
X+006890Y+019094
X+006102Y+019094
X+006102Y+018307
X+006693Y+016339
X+007677Y+016339
X+007677Y+015354
X+006693Y+015354
X+016137Y+015037
X+016681Y+015240
X+017987Y+013987
T02
X+007866Y+021972
X+007866Y+020972
X+007091Y+020220
X+005575Y+020457
X+005575Y+021457
X+005575Y+022457
X+005575Y+023457
X+005575Y+024457
X+005575Y+025457
X+004575Y+025457
X+004575Y+024457
X+004575Y+023457
X+004575Y+022457
X+004575Y+021457
X+004575Y+020457
X+004575Y+019457
X+004575Y+018457
X+005575Y+018457
X+005575Y+019457
X+005575Y+017457
X+005575Y+016457
X+004575Y+016457
X+004575Y+017457
X+004575Y+015457
X+005575Y+015457
X+005575Y+014457
X+004575Y+014457
X+004575Y+013457
X+004575Y+012457
X+005575Y+012457
X+005575Y+013457
X+005575Y+011457
X+005575Y+010457
X+004575Y+010457
X+004575Y+011457
X+004575Y+009457
X+004575Y+008457
X+005575Y+008457
X+005575Y+009457
X+010264Y+017630
X+011264Y+017630
X+012264Y+017630
X+013264Y+017630
X+013173Y+019476
X+012173Y+019476
X+011173Y+019476
X+010173Y+019476
X+010587Y+020587
X+009587Y+020587
X+009327Y+022307
X+010327Y+022307
X+007091Y+024197
X+005575Y+026457
X+005575Y+027457
X+004575Y+027457
X+004575Y+026457
X+016137Y+029787
X+017137Y+029787
X+018323Y+027457
X+018323Y+026457
X+019323Y+026457
X+019323Y+027457
X+019323Y+025457
X+019323Y+024457
X+018323Y+024457
X+018323Y+025457
X+018323Y+023457
X+018323Y+022457
X+019323Y+022457
X+019323Y+023457
X+019323Y+021457
X+018323Y+021457
X+018323Y+020457
X+019323Y+020457
X+019323Y+019457
X+019323Y+018457
X+019323Y+017457
X+019323Y+016457
X+019323Y+015457
X+019323Y+014457
X+018323Y+014457
X+018323Y+013457
X+018323Y+012457
X+018323Y+011457
X+018323Y+010457
X+019323Y+010457
X+019323Y+011457
X+019323Y+012457
X+019323Y+013457
X+018323Y+015457
X+018323Y+016457
X+018323Y+017457
X+018323Y+018457
X+018323Y+019457
X+018323Y+009457
X+018323Y+008457
X+019323Y+008457
X+019323Y+009457
X+019187Y+005587
X+018187Y+005587
T03
X+012929Y+008287
X+008205Y+014508
T04
X+008819Y+027323
X+006969Y+026142
T05
X+008819Y+024961
T00
M30
