G04 DipTrace 3.0.0.1*
G04 TopDimension.gbr*
%MOIN*%
G04 #@! TF.FileFunction,Drawing,Top*
G04 #@! TF.Part,Single*
%ADD13C,0.001378*%
%ADD110C,0.006176*%
%FSLAX26Y26*%
G04*
G70*
G90*
G75*
G01*
G04 TopDimension*
%LPD*%
X568898Y1121260D2*
D13*
Y23622D1*
X1843701Y1121260D2*
Y23622D1*
X1206299Y43307D2*
X608268D1*
G36*
X568898D2*
X608268Y51181D1*
Y35433D1*
X568898Y43307D1*
G37*
X1206299D2*
D13*
X1804331D1*
G36*
X1843701D2*
X1804331Y35433D1*
Y51181D1*
X1843701Y43307D1*
G37*
X568898Y1121260D2*
D13*
X2120079D1*
X1843701D2*
X2120079D1*
X2100394D2*
D3*
Y1180315D2*
Y1160630D1*
G36*
Y1121260D2*
X2092520Y1160630D1*
X2108268D1*
X2100394Y1121260D1*
G37*
Y1062205D2*
D13*
Y1081890D1*
G36*
Y1121260D2*
X2108268Y1081890D1*
X2092520D1*
X2100394Y1121260D1*
G37*
Y1055095D2*
D13*
Y1121260D1*
X723228Y846850D2*
Y1048425D1*
X557480Y845669D2*
Y1048425D1*
Y1028740D2*
X723228D1*
X498425D2*
X518110D1*
G36*
X557480D2*
X518110Y1020866D1*
Y1036614D1*
X557480Y1028740D1*
G37*
X782283D2*
D13*
X762598D1*
G36*
X723228D2*
X762598Y1036614D1*
Y1020866D1*
X723228Y1028740D1*
G37*
X1668110Y846850D2*
D13*
Y921260D1*
X1834252Y1116929D2*
Y881890D1*
X1668110Y901575D2*
X1834252D1*
X1609055D2*
X1628740D1*
G36*
X1668110D2*
X1628740Y893701D1*
Y909449D1*
X1668110Y901575D1*
G37*
X1893307D2*
D13*
X1873622D1*
G36*
X1834252D2*
X1873622Y909449D1*
Y893701D1*
X1834252Y901575D1*
G37*
X1468110Y2781102D2*
D13*
Y2872441D1*
X1680709Y2824803D2*
Y2872441D1*
X1574409Y2852756D2*
X1507480D1*
G36*
X1468110D2*
X1507480Y2860630D1*
Y2844882D1*
X1468110Y2852756D1*
G37*
X1574409D2*
D13*
X1641339D1*
G36*
X1680709D2*
X1641339Y2844882D1*
Y2860630D1*
X1680709Y2852756D1*
G37*
X1468110Y2581102D2*
D13*
Y2654724D1*
X1668110Y2585827D2*
Y2654724D1*
X1468110Y2635039D2*
X1668110D1*
X1409055D2*
X1428740D1*
G36*
X1468110D2*
X1428740Y2627165D1*
Y2642913D1*
X1468110Y2635039D1*
G37*
X1727165D2*
D13*
X1707480D1*
G36*
X1668110D2*
X1707480Y2642913D1*
Y2627165D1*
X1668110Y2635039D1*
G37*
X1468110Y2781102D2*
D13*
X1401969D1*
X1468110Y2581102D2*
X1401969D1*
X1421654Y2781102D2*
Y2581102D1*
Y2840157D2*
Y2820472D1*
G36*
Y2781102D2*
X1413780Y2820472D1*
X1429528D1*
X1421654Y2781102D1*
G37*
Y2522047D2*
D13*
Y2541732D1*
G36*
Y2581102D2*
X1429528Y2541732D1*
X1413780D1*
X1421654Y2581102D1*
G37*
X1468110Y2781102D2*
D13*
Y2493701D1*
Y2581102D2*
Y2493701D1*
Y2513386D2*
D3*
X1409055D2*
X1428740D1*
G36*
X1468110D2*
X1428740Y2505512D1*
Y2521260D1*
X1468110Y2513386D1*
G37*
X1527165D2*
D13*
X1507480D1*
G36*
X1468110D2*
X1507480Y2521260D1*
Y2505512D1*
X1468110Y2513386D1*
G37*
X1534275D2*
D13*
X1468110D1*
X498701Y498701D2*
Y279016D1*
X393701Y393701D2*
Y279016D1*
X446201Y298701D2*
X459331D1*
G36*
X498701D2*
X459331Y290827D1*
Y306575D1*
X498701Y298701D1*
G37*
X446201D2*
D13*
X433071D1*
G36*
X393701D2*
X433071Y306575D1*
Y290827D1*
X393701Y298701D1*
G37*
X657410D2*
D13*
X498701D1*
X1890945Y2922244D2*
Y3143386D1*
X1996063Y3027559D2*
Y3143386D1*
X1943504Y3123701D2*
X1930315D1*
G36*
X1890945D2*
X1930315Y3131575D1*
Y3115827D1*
X1890945Y3123701D1*
G37*
X1943504D2*
D13*
X1956693D1*
G36*
X1996063D2*
X1956693Y3115827D1*
Y3131575D1*
X1996063Y3123701D1*
G37*
X2154773D2*
D13*
X1996063D1*
X1890945Y2922244D2*
X2208386D1*
X1996063Y3027559D2*
X2208386D1*
X2188701Y2974902D2*
Y2961614D1*
G36*
Y2922244D2*
X2180827Y2961614D1*
X2196575D1*
X2188701Y2922244D1*
G37*
Y2974902D2*
D13*
Y2988189D1*
G36*
Y3027559D2*
X2196575Y2988189D1*
X2180827D1*
X2188701Y3027559D1*
G37*
Y2763535D2*
D13*
Y3027559D1*
X498701Y498701D2*
X209016D1*
X393701Y393701D2*
X209016D1*
X228701Y446201D2*
Y459331D1*
G36*
Y498701D2*
X236575Y459331D1*
X220827D1*
X228701Y498701D1*
G37*
Y446201D2*
D13*
Y433071D1*
G36*
Y393701D2*
X220827Y433071D1*
X236575D1*
X228701Y393701D1*
G37*
Y657410D2*
D13*
Y498701D1*
X1133040Y95666D2*
D110*
X1154043D1*
X1142591Y80367D1*
X1148339D1*
X1152142Y78466D1*
X1154043Y76564D1*
X1155988Y70816D1*
Y67014D1*
X1154043Y61266D1*
X1150240Y57419D1*
X1144492Y55518D1*
X1138744D1*
X1133040Y57419D1*
X1131139Y59365D1*
X1129194Y63167D1*
X1170285Y86115D2*
Y88016D1*
X1172186Y91863D1*
X1174088Y93764D1*
X1177935Y95666D1*
X1185584D1*
X1189386Y93764D1*
X1191288Y91863D1*
X1193233Y88016D1*
Y84214D1*
X1191288Y80367D1*
X1187485Y74663D1*
X1168340Y55518D1*
X1195134D1*
X1209387Y59365D2*
X1207486Y57419D1*
X1209387Y55518D1*
X1211333Y57419D1*
X1209387Y59365D1*
X1227531Y95666D2*
X1248533D1*
X1237081Y80367D1*
X1242829D1*
X1246632Y78466D1*
X1248533Y76564D1*
X1250479Y70816D1*
Y67014D1*
X1248533Y61266D1*
X1244731Y57419D1*
X1238983Y55518D1*
X1233235D1*
X1227531Y57419D1*
X1225629Y59365D1*
X1223684Y63167D1*
X1272381Y95666D2*
X1266677Y93764D1*
X1264731Y89962D1*
Y86115D1*
X1266677Y82313D1*
X1270479Y80367D1*
X1278129Y78466D1*
X1283877Y76564D1*
X1287679Y72718D1*
X1289580Y68915D1*
Y63167D1*
X1287679Y59365D1*
X1285778Y57419D1*
X1280030Y55518D1*
X1272381D1*
X1266677Y57419D1*
X1264731Y59365D1*
X1262830Y63167D1*
Y68915D1*
X1264731Y72718D1*
X1268578Y76564D1*
X1274282Y78466D1*
X1281931Y80367D1*
X1285778Y82313D1*
X1287679Y86115D1*
Y89962D1*
X1285778Y93764D1*
X1280030Y95666D1*
X1272381D1*
X2152752Y1061130D2*
X2150851Y1066878D1*
X2145103Y1070725D1*
X2135552Y1072626D1*
X2129804D1*
X2120254Y1070725D1*
X2114506Y1066878D1*
X2112604Y1061130D1*
Y1057328D1*
X2114506Y1051580D1*
X2120254Y1047777D1*
X2129804Y1045832D1*
X2135552D1*
X2145103Y1047777D1*
X2150851Y1051580D1*
X2152752Y1057328D1*
Y1061130D1*
X2145103Y1047777D2*
X2120254Y1070725D1*
X609594Y1040951D2*
Y1081099D1*
X590449Y1054348D1*
X619145D1*
X633398Y1044798D2*
X631496Y1042852D1*
X633398Y1040951D1*
X635343Y1042852D1*
X633398Y1044798D1*
X649640Y1071548D2*
Y1073449D1*
X651541Y1077296D1*
X653443Y1079197D1*
X657289Y1081099D1*
X664939D1*
X668741Y1079197D1*
X670642Y1077296D1*
X672588Y1073449D1*
Y1069647D1*
X670642Y1065800D1*
X666840Y1060096D1*
X647694Y1040951D1*
X674489D1*
X686841Y1073449D2*
X690687Y1075395D1*
X696435Y1081099D1*
Y1040951D1*
X1711821Y913786D2*
Y953933D1*
X1692676Y927183D1*
X1721372D1*
X1735624Y917632D2*
X1733723Y915687D1*
X1735624Y913786D1*
X1737570Y915687D1*
X1735624Y917632D1*
X1751867Y944383D2*
Y946284D1*
X1753768Y950131D1*
X1755669Y952032D1*
X1759516Y953933D1*
X1767165D1*
X1770968Y952032D1*
X1772869Y950131D1*
X1774815Y946284D1*
Y942482D1*
X1772869Y938635D1*
X1769067Y932931D1*
X1749921Y913786D1*
X1776716D1*
X1791013Y944383D2*
Y946284D1*
X1792914Y950131D1*
X1794815Y952032D1*
X1798662Y953933D1*
X1806311D1*
X1810114Y952032D1*
X1812015Y950131D1*
X1813961Y946284D1*
Y942482D1*
X1812015Y938635D1*
X1808213Y932931D1*
X1789067Y913786D1*
X1815862D1*
X1558425Y2905114D2*
X1539324D1*
X1537423Y2887915D1*
X1539324Y2889816D1*
X1545072Y2891761D1*
X1550776D1*
X1556524Y2889816D1*
X1560371Y2886013D1*
X1562272Y2880265D1*
Y2876463D1*
X1560371Y2870715D1*
X1556524Y2866868D1*
X1550776Y2864967D1*
X1545072D1*
X1539324Y2866868D1*
X1537423Y2868813D1*
X1535477Y2872616D1*
X1576525Y2868813D2*
X1574623Y2866868D1*
X1576525Y2864967D1*
X1578470Y2866868D1*
X1576525Y2868813D1*
X1609967Y2864967D2*
Y2905114D1*
X1590821Y2878364D1*
X1619517D1*
X1533526Y2687398D2*
X1514424D1*
X1512523Y2670198D1*
X1514424Y2672099D1*
X1520173Y2674045D1*
X1525876D1*
X1531624Y2672099D1*
X1535471Y2668297D1*
X1537372Y2662549D1*
Y2658746D1*
X1535471Y2652998D1*
X1531624Y2649151D1*
X1525876Y2647250D1*
X1520173D1*
X1514424Y2649151D1*
X1512523Y2651097D1*
X1510578Y2654899D1*
X1551625Y2651097D2*
X1549724Y2649151D1*
X1551625Y2647250D1*
X1553571Y2649151D1*
X1551625Y2651097D1*
X1577418Y2687398D2*
X1571670Y2685497D1*
X1567823Y2679749D1*
X1565922Y2670198D1*
Y2664450D1*
X1567823Y2654899D1*
X1571670Y2649151D1*
X1577418Y2647250D1*
X1581221D1*
X1586969Y2649151D1*
X1590771Y2654899D1*
X1592717Y2664450D1*
Y2670198D1*
X1590771Y2679749D1*
X1586969Y2685497D1*
X1581221Y2687398D1*
X1577418D1*
X1590771Y2679749D2*
X1567823Y2654899D1*
X1614619Y2687398D2*
X1608915Y2685497D1*
X1606969Y2681694D1*
Y2677847D1*
X1608915Y2674045D1*
X1612717Y2672099D1*
X1620367Y2670198D1*
X1626115Y2668297D1*
X1629917Y2664450D1*
X1631818Y2660647D1*
Y2654899D1*
X1629917Y2651097D1*
X1628016Y2649151D1*
X1622268Y2647250D1*
X1614619D1*
X1608915Y2649151D1*
X1606969Y2651097D1*
X1605068Y2654899D1*
Y2660647D1*
X1606969Y2664450D1*
X1610816Y2668297D1*
X1616520Y2670198D1*
X1624169Y2672099D1*
X1628016Y2674045D1*
X1629917Y2677847D1*
Y2681694D1*
X1628016Y2685497D1*
X1622268Y2687398D1*
X1614619D1*
X1369295Y2646518D2*
Y2627417D1*
X1386495Y2625515D1*
X1384594Y2627417D1*
X1382648Y2633165D1*
Y2638868D1*
X1384594Y2644616D1*
X1388396Y2648463D1*
X1394144Y2650365D1*
X1397947D1*
X1403695Y2648463D1*
X1407542Y2644616D1*
X1409443Y2638868D1*
Y2633165D1*
X1407542Y2627417D1*
X1405596Y2625515D1*
X1401793Y2623570D1*
X1405596Y2664617D2*
X1407542Y2662716D1*
X1409443Y2664617D1*
X1407542Y2666563D1*
X1405596Y2664617D1*
X1369295Y2690410D2*
X1371196Y2684662D1*
X1376944Y2680815D1*
X1386495Y2678914D1*
X1392243D1*
X1401793Y2680815D1*
X1407542Y2684662D1*
X1409443Y2690410D1*
Y2694213D1*
X1407542Y2699961D1*
X1401793Y2703763D1*
X1392243Y2705709D1*
X1386495D1*
X1376944Y2703763D1*
X1371196Y2699961D1*
X1369295Y2694213D1*
Y2690410D1*
X1376944Y2703763D2*
X1401793Y2680815D1*
X1369295Y2727611D2*
X1371196Y2721907D1*
X1374999Y2719961D1*
X1378846D1*
X1382648Y2721907D1*
X1384594Y2725709D1*
X1386495Y2733359D1*
X1388396Y2739107D1*
X1392243Y2742909D1*
X1396045Y2744811D1*
X1401793D1*
X1405596Y2742909D1*
X1407542Y2741008D1*
X1409443Y2735260D1*
Y2727611D1*
X1407542Y2721907D1*
X1405596Y2719961D1*
X1401793Y2718060D1*
X1396045D1*
X1392243Y2719961D1*
X1388396Y2723808D1*
X1386495Y2729512D1*
X1384594Y2737161D1*
X1382648Y2741008D1*
X1378846Y2742909D1*
X1374999D1*
X1371196Y2741008D1*
X1369295Y2735260D1*
Y2727611D1*
X1528240Y2565744D2*
X1522492Y2563843D1*
X1518645Y2558095D1*
X1516744Y2548544D1*
Y2542796D1*
X1518645Y2533246D1*
X1522492Y2527498D1*
X1528240Y2525597D1*
X1532042D1*
X1537791Y2527498D1*
X1541593Y2533246D1*
X1543539Y2542796D1*
Y2548544D1*
X1541593Y2558095D1*
X1537791Y2563843D1*
X1532042Y2565744D1*
X1528240D1*
X1541593Y2558095D2*
X1518645Y2533246D1*
X549280Y341509D2*
Y343410D1*
X551181Y347257D1*
X553082Y349158D1*
X556929Y351059D1*
X564579D1*
X568381Y349158D1*
X570282Y347257D1*
X572228Y343410D1*
Y339607D1*
X570282Y335761D1*
X566480Y330057D1*
X547334Y310912D1*
X574129D1*
X588382Y314758D2*
X586480Y312813D1*
X588382Y310912D1*
X590327Y312813D1*
X588382Y314758D1*
X625627Y345356D2*
X623725Y349158D1*
X617977Y351059D1*
X614175D1*
X608427Y349158D1*
X604580Y343410D1*
X602679Y333859D1*
Y324309D1*
X604580Y316660D1*
X608427Y312813D1*
X614175Y310912D1*
X616076D1*
X621780Y312813D1*
X625627Y316660D1*
X627528Y322408D1*
Y324309D1*
X625627Y330057D1*
X621780Y333859D1*
X616076Y335761D1*
X614175D1*
X608427Y333859D1*
X604580Y330057D1*
X602679Y324309D1*
X647529Y310912D2*
X666674Y351059D1*
X639879D1*
X2046642Y3166509D2*
Y3168410D1*
X2048543Y3172257D1*
X2050445Y3174158D1*
X2054291Y3176059D1*
X2061941D1*
X2065743Y3174158D1*
X2067645Y3172257D1*
X2069590Y3168410D1*
Y3164607D1*
X2067645Y3160761D1*
X2063842Y3155057D1*
X2044697Y3135912D1*
X2071491D1*
X2085744Y3139758D2*
X2083843Y3137813D1*
X2085744Y3135912D1*
X2087689Y3137813D1*
X2085744Y3139758D1*
X2122989Y3170356D2*
X2121087Y3174158D1*
X2115339Y3176059D1*
X2111537D1*
X2105789Y3174158D1*
X2101942Y3168410D1*
X2100041Y3158859D1*
Y3149309D1*
X2101942Y3141660D1*
X2105789Y3137813D1*
X2111537Y3135912D1*
X2113438D1*
X2119142Y3137813D1*
X2122989Y3141660D1*
X2124890Y3147408D1*
Y3149309D1*
X2122989Y3155057D1*
X2119142Y3158859D1*
X2113438Y3160761D1*
X2111537D1*
X2105789Y3158859D1*
X2101942Y3155057D1*
X2100041Y3149309D1*
X2144891Y3135912D2*
X2164036Y3176059D1*
X2137241D1*
X2231509Y2871665D2*
X2233410D1*
X2237257Y2869764D1*
X2239158Y2867862D1*
X2241059Y2864016D1*
Y2856366D1*
X2239158Y2852564D1*
X2237257Y2850663D1*
X2233410Y2848717D1*
X2229607D1*
X2225761Y2850663D1*
X2220057Y2854465D1*
X2200912Y2873610D1*
Y2846816D1*
X2204758Y2832563D2*
X2202813Y2834464D1*
X2200912Y2832563D1*
X2202813Y2830618D1*
X2204758Y2832563D1*
X2235356Y2795318D2*
X2239158Y2797220D1*
X2241059Y2802968D1*
Y2806770D1*
X2239158Y2812518D1*
X2233410Y2816365D1*
X2223859Y2818266D1*
X2214309D1*
X2206660Y2816365D1*
X2202813Y2812518D1*
X2200912Y2806770D1*
Y2804869D1*
X2202813Y2799165D1*
X2206660Y2795318D1*
X2212408Y2793417D1*
X2214309D1*
X2220057Y2795318D1*
X2223859Y2799165D1*
X2225761Y2804869D1*
Y2806770D1*
X2223859Y2812518D1*
X2220057Y2816365D1*
X2214309Y2818266D1*
X2200912Y2773416D2*
X2241059Y2754271D1*
Y2781066D1*
X185893Y549280D2*
X183992D1*
X180145Y551181D1*
X178244Y553082D1*
X176342Y556929D1*
Y564579D1*
X178244Y568381D1*
X180145Y570282D1*
X183992Y572228D1*
X187794D1*
X191641Y570282D1*
X197345Y566480D1*
X216490Y547334D1*
Y574129D1*
X212643Y588382D2*
X214589Y586480D1*
X216490Y588382D1*
X214589Y590327D1*
X212643Y588382D1*
X182046Y625627D2*
X178244Y623725D1*
X176342Y617977D1*
Y614175D1*
X178244Y608427D1*
X183992Y604580D1*
X193542Y602679D1*
X203093D1*
X210742Y604580D1*
X214589Y608427D1*
X216490Y614175D1*
Y616076D1*
X214589Y621780D1*
X210742Y625627D1*
X204994Y627528D1*
X203093D1*
X197345Y625627D1*
X193542Y621780D1*
X191641Y616076D1*
Y614175D1*
X193542Y608427D1*
X197345Y604580D1*
X203093Y602679D1*
X216490Y647529D2*
X176342Y666674D1*
Y639879D1*
M02*
