G04 DipTrace 3.0.0.1*
G04 BottomMask.gbr*
%MOIN*%
G04 #@! TF.FileFunction,Soldermask,Bot*
G04 #@! TF.Part,Single*
%ADD54C,0.047244*%
%ADD69R,0.031496X0.055118*%
%ADD71R,0.062992X0.07874*%
%ADD77R,0.051181X0.047244*%
%ADD81C,0.204724*%
%ADD83C,0.185039*%
%ADD85R,0.059055X0.066929*%
%ADD87C,0.066929*%
%ADD89R,0.066929X0.066929*%
%ADD91R,0.066929X0.059055*%
%ADD93C,0.070866*%
%ADD95R,0.070866X0.070866*%
%ADD103R,0.067717X0.167717*%
%FSLAX26Y26*%
G04*
G70*
G90*
G75*
G01*
G04 BotMask*
%LPD*%
D103*
X1535433Y492126D3*
X1335039Y490157D3*
D95*
X853543Y2257874D3*
D93*
Y2157874D3*
D91*
X711417Y2257087D3*
Y2182283D3*
X1670079Y1621260D3*
Y1696063D3*
X1562598Y966142D3*
Y891339D3*
D89*
X1081496Y2443919D3*
D87*
Y2046281D3*
D89*
X1314961Y2145276D3*
D87*
X1214961D3*
X1114961D3*
X1014961D3*
D89*
X1313701Y1871701D3*
D87*
X1213701D3*
X1113701D3*
X1013701D3*
D83*
X900000Y2710630D3*
D81*
Y2474409D3*
D83*
X714961Y2592520D3*
D89*
X1839701Y449701D3*
D87*
X1939701D3*
D89*
X1199701Y1974701D3*
D87*
X1299701D3*
D91*
X1926701Y763701D3*
Y688898D3*
D77*
X1545276Y2253543D3*
X1478346D3*
X1473228Y2381496D3*
X1540157D3*
D91*
X1926701Y598701D3*
Y523898D3*
D85*
X952701Y1964701D3*
X1027504D3*
D71*
X899362Y1675591D3*
X999362D3*
X1099362D3*
Y679528D3*
X999362D3*
X899362D3*
D54*
X1289126Y857480D3*
X816685Y1479528D3*
D69*
X1560661Y1206299D3*
X1598063D3*
X1635465D3*
Y1115748D3*
X1598063D3*
X1560661D3*
D89*
X1833465Y2785433D3*
D87*
X1933465D3*
X1833465Y2685433D3*
X1933465D3*
X1833465Y2585433D3*
X1933465D3*
X1833465Y2485433D3*
X1933465D3*
X1833465Y2385433D3*
X1933465D3*
X1833465Y2285433D3*
X1933465D3*
X1833465Y2185433D3*
X1933465D3*
X1833465Y2085433D3*
X1933465D3*
X1833465Y1985433D3*
X1933465D3*
X1833465Y1885433D3*
X1933465D3*
X1833465Y1785433D3*
X1933465D3*
X1833465Y1685433D3*
X1933465D3*
X1833465Y1585433D3*
X1933465D3*
X1833465Y1485433D3*
X1933465D3*
X1833465Y1385433D3*
X1933465D3*
X1833465Y1285433D3*
X1933465D3*
X1833465Y1185433D3*
X1933465D3*
X1833465Y1085433D3*
X1933465D3*
X1833465Y985433D3*
X1933465D3*
X1833465Y885433D3*
X1933465D3*
D89*
X458661Y2785433D3*
D87*
X558661D3*
X458661Y2685433D3*
X558661D3*
X458661Y2585433D3*
X558661D3*
X458661Y2485433D3*
X558661D3*
X458661Y2385433D3*
X558661D3*
X458661Y2285433D3*
X558661D3*
X458661Y2185433D3*
X558661D3*
X458661Y2085433D3*
X558661D3*
X458661Y1985433D3*
X558661D3*
X458661Y1885433D3*
X558661D3*
X458661Y1785433D3*
X558661D3*
X458661Y1685433D3*
X558661D3*
X458661Y1585433D3*
X558661D3*
X458661Y1485433D3*
X558661D3*
X458661Y1385433D3*
X558661D3*
X458661Y1285433D3*
X558661D3*
X458661Y1185433D3*
X558661D3*
X458661Y1085433D3*
X558661D3*
X458661Y985433D3*
X558661D3*
X458661Y885433D3*
X558661D3*
M02*
