G04 DipTrace 3.0.0.1*
G04 Bottom.gbr*
%MOIN*%
G04 #@! TF.FileFunction,Copper,L2,Bot*
G04 #@! TF.Part,Single*
G04 #@! TA.AperFunction,Conductor*
%ADD14C,0.008*%
%ADD15C,0.015*%
%ADD16C,0.01*%
%ADD17C,0.03937*%
%ADD20C,0.029528*%
G04 #@! TA.AperFunction,CopperBalancing*
%ADD21C,0.025*%
G04 #@! TA.AperFunction,Conductor*
%ADD22C,0.05*%
G04 #@! TA.AperFunction,CopperBalancing*
%ADD23C,0.012992*%
%ADD25R,0.059843X0.159843*%
G04 #@! TA.AperFunction,ComponentPad*
%ADD29R,0.062992X0.062992*%
%ADD30C,0.062992*%
%ADD31R,0.059055X0.051181*%
G04 #@! TA.AperFunction,ComponentPad*
%ADD32R,0.059055X0.059055*%
%ADD33C,0.059055*%
%ADD34R,0.051181X0.059055*%
G04 #@! TA.AperFunction,ComponentPad*
%ADD35C,0.177165*%
%ADD36C,0.19685*%
%ADD39R,0.043307X0.03937*%
%ADD43R,0.055118X0.070866*%
%ADD46R,0.023622X0.047244*%
G04 #@! TA.AperFunction,ViaPad*
%ADD52C,0.038*%
%FSLAX26Y26*%
G04*
G70*
G90*
G75*
G01*
G04 Bottom*
%LPD*%
X682701Y833701D2*
D16*
X459701D1*
Y884394D1*
X458661Y885433D1*
X1389701Y2105701D2*
X1402701D1*
X1452701Y2055701D1*
Y1413701D1*
X1575701Y1290701D1*
X1594701Y1271701D1*
Y1209661D1*
X1598063Y1206299D1*
X1926701Y523898D2*
D15*
X1860504D1*
X1850701Y533701D1*
Y626701D1*
X558661Y2685433D2*
D17*
X458661Y2785433D1*
X711417Y2182283D2*
D15*
X759118D1*
X784701Y2156701D1*
X852370D1*
X853543Y2157874D1*
X1933465Y1785433D2*
D20*
X1833465D1*
X1808433D1*
X1719701Y1696701D1*
X1670717D1*
X1670079Y1696063D1*
X1612339D1*
X1583701Y1724701D1*
X1562598Y891339D2*
D15*
X1350063D1*
X1169701Y1071701D1*
Y1250701D1*
X1209701Y1290701D1*
X1575701D1*
X1515748Y807087D2*
X1553087D1*
X1560701Y814701D1*
Y889441D1*
X1562598Y891339D1*
X1827559D1*
X1833465Y885433D1*
X1933465D1*
X1384252Y2381890D2*
D14*
X1472835D1*
X1473228Y2381496D1*
Y2258661D1*
X1478346Y2253543D1*
X1458701Y2433701D2*
X1533701D1*
X1538701Y2428701D1*
Y2382953D1*
X1540157Y2381496D1*
X1777953Y1040551D2*
D21*
X1743701Y1074803D1*
Y1259843D1*
X1500787Y1502756D1*
Y2117717D1*
Y2158268D1*
X1494488Y2117717D2*
X1500787D1*
X1743701Y1016142D2*
Y1074803D1*
X1777953Y1040551D2*
X1768110D1*
X1743701Y1016142D1*
X1494488Y2117717D2*
Y2122835D1*
X1479921Y2137402D1*
X1500787Y2158268D1*
Y2117717D2*
X1504331D1*
X1522835Y2136220D1*
X1500787Y2158268D1*
X952701Y1964701D2*
D16*
X958701D1*
Y2170701D1*
X1002701Y2214701D1*
X1344701D1*
X1370701Y2188701D1*
Y2171701D1*
X1440701Y2101701D1*
X1478472D1*
X1494488Y2117717D1*
X1545276Y2253543D2*
D14*
Y2230276D1*
X1528701Y2213701D1*
X1484701D1*
X1429701Y2158701D1*
X1620079Y1536220D2*
X1656693D1*
X1670866Y1550394D1*
Y1620472D1*
X1670079Y1621260D1*
X1114961Y2145276D2*
Y2132677D1*
X1206937Y2040701D1*
X1352701D1*
X1383701Y2009701D1*
Y1591575D1*
X1386220Y1594094D1*
X1014961Y2145276D2*
X1029134D1*
X1070866Y2103543D1*
X1096457D1*
X1179299Y2020701D1*
X1324701D1*
X1363701Y1981701D1*
Y1632598D1*
X1329528Y1598425D1*
X1498701Y968701D2*
X1560039D1*
X1562598Y966142D1*
X853543Y2257874D2*
D22*
X712205D1*
X711417Y2257087D1*
X1926701Y688898D2*
D14*
Y598701D1*
X1861701Y702701D2*
X1868701D1*
X1885701Y685701D1*
X1923504D1*
X1926701Y688898D1*
X1833465Y1985433D2*
X1663433D1*
X1654701Y1976701D1*
X1414701D2*
Y2029701D1*
X1368701Y2075701D1*
X1238701D1*
X1857701Y809701D2*
X1917701D1*
X1925701Y801701D1*
Y764701D1*
X1926701Y763701D1*
X1744575Y947701D2*
X1733701D1*
X1694701Y986701D1*
Y1146701D1*
X1679701Y1161701D1*
X1499701D1*
X1498701Y1160701D1*
X1027504Y1964701D2*
X1131701D1*
X1146701Y1979701D1*
X1194701D1*
X1199701Y1974701D1*
X1611701Y1484701D2*
X1606701D1*
X1545701Y1545701D1*
X1360701Y1546701D2*
X1292701D1*
X1264701Y1574701D1*
Y1954701D1*
X1242701Y1976701D1*
X1201701D1*
X1199701Y1974701D1*
X1099362Y679528D2*
Y770717D1*
X1026772Y843307D1*
X1560661Y1115748D2*
X1325197D1*
X1323228Y1113780D1*
X1099362Y1675591D2*
Y1662598D1*
X1112205D1*
X1101181Y1651575D1*
Y1598819D1*
X1113780Y1586220D1*
X1143701D1*
X1140551Y1583071D1*
X1288189Y1220866D2*
X1475197D1*
X1489764Y1206299D1*
X1560661D1*
X1099362Y1675591D2*
Y1727039D1*
X1039701Y1786701D1*
X958268Y850000D2*
Y783465D1*
X1001575Y740157D1*
Y681740D1*
X999362Y679528D1*
X1598063Y1115748D2*
Y1083890D1*
X1583858Y1069685D1*
X1284252D1*
X1280315Y1073622D1*
X899362Y679528D2*
Y883220D1*
X917323Y901181D1*
X1084252D1*
X1635465Y1115748D2*
Y1072866D1*
X1600394Y1037795D1*
X1246850D1*
X1232283Y1052362D1*
Y1158661D1*
D52*
X682701Y833701D3*
X1389701Y2105701D3*
X1850701Y626701D3*
X1583701Y1724701D3*
X1384252Y2381890D3*
X1458701Y2433701D3*
X1777953Y1040551D3*
X1500787Y2158268D3*
X1494488Y2117717D3*
X1777953Y1040551D3*
X1494488Y2117717D3*
X1500787Y2158268D3*
X1494488Y2117717D3*
X1429701Y2158701D3*
X1620079Y1536220D3*
X1386220Y1594094D3*
X1329528Y1598425D3*
X1498701Y968701D3*
X1861701Y702701D3*
X1654701Y1976701D3*
X1414701D3*
X1238701Y2075701D3*
X1857701Y809701D3*
X1744575Y947701D3*
X1498701Y1160701D3*
X1611701Y1484701D3*
X1545701Y1545701D3*
X1360701Y1546701D3*
X1026772Y843307D3*
X1323228Y1113780D3*
X1026772Y843307D3*
X1140551Y1583071D3*
X1288189Y1220866D3*
X1039701Y1786701D3*
X958268Y850000D3*
X1280315Y1073622D3*
X1084252Y901181D3*
X1232283Y1158661D3*
X1743701Y1016142D3*
X669291Y1535433D3*
X787402D3*
Y1614173D3*
X669291D3*
X787402Y1692913D3*
X669291D3*
X846457Y1732283D3*
Y1811024D3*
X629921Y1771654D3*
Y1850394D3*
X787402Y1870079D3*
X688976Y1889764D3*
X1437008Y807087D3*
X1515748D3*
X1358268D3*
X1496063Y669291D3*
X1377953D3*
Y590551D3*
X1496063D3*
X1614173D3*
X1259843D3*
X1614173Y492126D3*
X1259843D3*
X1614173Y669291D3*
Y767717D3*
X1259843Y669291D3*
X428725Y2895387D2*
D21*
X1961079D1*
X428725Y2870518D2*
X1961079D1*
X428725Y2845650D2*
X1961079D1*
X599331Y2820781D2*
X1779926D1*
X612124Y2795912D2*
X827876D1*
X972085D2*
X1779926D1*
X611147Y2771043D2*
X805463D1*
X994546D2*
X1779926D1*
X512172Y2746175D2*
X521990D1*
X595327D2*
X793305D1*
X1006704D2*
X1779926D1*
X504165Y2721306D2*
X519915D1*
X597475D2*
X787934D1*
X1012075D2*
X1794672D1*
X1872231D2*
X1887934D1*
X611001Y2696437D2*
X676118D1*
X753774D2*
X788325D1*
X1011684D2*
X1781147D1*
X610268Y2671568D2*
X635835D1*
X1005434D2*
X1781879D1*
X501626Y2646699D2*
X522944D1*
X594399D2*
X616645D1*
X992104D2*
X1797749D1*
X1869204D2*
X1890473D1*
X503725Y2621831D2*
X513603D1*
X823549D2*
X832443D1*
X967544D2*
X1795210D1*
X1871743D2*
X1888374D1*
X827456Y2596962D2*
X1781245D1*
X973794Y2572093D2*
X1781733D1*
X502114Y2547224D2*
X515180D1*
X602114D2*
X612153D1*
X999038D2*
X1797163D1*
X1869790D2*
X1889985D1*
X503286Y2522356D2*
X514008D1*
X603286D2*
X627631D1*
X1013491D2*
X1788813D1*
X1878090D2*
X1888813D1*
X615883Y2497487D2*
X656879D1*
X1021206D2*
X1776264D1*
X615688Y2472618D2*
X776606D1*
X1136001D2*
X1444965D1*
X1472426D2*
X1776411D1*
X502602Y2447749D2*
X514692D1*
X602602D2*
X779536D1*
X1136001D2*
X1418208D1*
X1558217D2*
X1789497D1*
X1877407D2*
X1889497D1*
X502846Y2422881D2*
X514497D1*
X602846D2*
X788081D1*
X1011879D2*
X1026948D1*
X1136001D2*
X1417182D1*
X1566713D2*
X1796284D1*
X1870620D2*
X1889301D1*
X615737Y2398012D2*
X803754D1*
X996254D2*
X1026948D1*
X1136001D2*
X1344575D1*
X1585805D2*
X1781489D1*
X615835Y2373143D2*
X831391D1*
X968569D2*
X1342231D1*
X1585805D2*
X1781440D1*
X503090Y2348274D2*
X514253D1*
X603090D2*
X1359174D1*
X1409340D2*
X1427583D1*
X1585805D2*
X1795991D1*
X1870913D2*
X1889057D1*
X502358Y2323406D2*
X522065D1*
X595229D2*
X1445210D1*
X1501235D2*
X1789790D1*
X1877163D2*
X1889790D1*
X610463Y2298537D2*
X656879D1*
X910024D2*
X1445210D1*
X1501235D2*
X1776508D1*
X610805Y2273668D2*
X656879D1*
X910024D2*
X1432710D1*
X1590932D2*
X1776215D1*
X503530Y2248799D2*
X520649D1*
X596694D2*
X656879D1*
X910024D2*
X1432710D1*
X1590932D2*
X1788569D1*
X1878335D2*
X1888569D1*
X501870Y2223930D2*
X515473D1*
X601870D2*
X656879D1*
X910024D2*
X971967D1*
X1375454D2*
X1432710D1*
X1590932D2*
X1790278D1*
X1876674D2*
X1890278D1*
X615493Y2199062D2*
X657905D1*
X764956D2*
X817671D1*
X889370D2*
X947065D1*
X1397573D2*
X1423823D1*
X1552602D2*
X1776606D1*
X616030Y2174193D2*
X657905D1*
X764956D2*
X800629D1*
X906460D2*
X929926D1*
X1540542D2*
X1776069D1*
X503969Y2149324D2*
X513316D1*
X603969D2*
X657905D1*
X764956D2*
X798725D1*
X908364D2*
X929682D1*
X1556704D2*
X1788129D1*
X1878774D2*
X1888136D1*
X501333Y2124455D2*
X515962D1*
X601333D2*
X809907D1*
X897182D2*
X929682D1*
X1368471D2*
X1377988D1*
X1557241D2*
X1790766D1*
X1876137D2*
X1890766D1*
X615346Y2099587D2*
X929682D1*
X1380141D2*
X1402827D1*
X1537270D2*
X1776753D1*
X616128Y2074718D2*
X929682D1*
X987710D2*
X1036616D1*
X1408266D2*
X1464301D1*
X1537270D2*
X1775971D1*
X504409Y2049849D2*
X512931D1*
X604409D2*
X929682D1*
X987710D2*
X1028071D1*
X1433120D2*
X1464301D1*
X1537270D2*
X1787690D1*
X1879213D2*
X1887653D1*
X500844Y2024980D2*
X516499D1*
X600844D2*
X929682D1*
X987710D2*
X1032612D1*
X1442690D2*
X1464301D1*
X1537270D2*
X1798725D1*
X1868227D2*
X1891303D1*
X615200Y2000112D2*
X903120D1*
X1105727D2*
X1128901D1*
X1450258D2*
X1464301D1*
X1537270D2*
X1619135D1*
X616225Y1975243D2*
X903120D1*
X1537270D2*
X1611713D1*
X504848Y1950374D2*
X512473D1*
X604848D2*
X903120D1*
X1447963D2*
X1464301D1*
X1537270D2*
X1621430D1*
X1687954D2*
X1793891D1*
X1873061D2*
X1887251D1*
X500307Y1925505D2*
X517036D1*
X600307D2*
X903120D1*
X1077114D2*
X1146186D1*
X1411684D2*
X1464301D1*
X1537270D2*
X1799360D1*
X1867544D2*
X1891840D1*
X615102Y1900636D2*
X969184D1*
X1058217D2*
X1069180D1*
X1158217D2*
X1169180D1*
X1411684D2*
X1464301D1*
X1537270D2*
X1782270D1*
X616323Y1875768D2*
X960346D1*
X1411684D2*
X1464301D1*
X1537270D2*
X1780854D1*
X605288Y1850899D2*
X964594D1*
X1411684D2*
X1464301D1*
X1537270D2*
X1793403D1*
X1873549D2*
X1886860D1*
X499770Y1826030D2*
X517573D1*
X599770D2*
X988422D1*
X1051870D2*
X1088422D1*
X1138979D2*
X1188422D1*
X1411684D2*
X1464301D1*
X1537270D2*
X1800044D1*
X1866860D2*
X1900044D1*
X614907Y1801161D2*
X999360D1*
X1080044D2*
X1236713D1*
X1292690D2*
X1335688D1*
X1411684D2*
X1464301D1*
X1537270D2*
X1782417D1*
X616421Y1776293D2*
X998042D1*
X1088686D2*
X1236713D1*
X1292690D2*
X1335688D1*
X1411684D2*
X1464301D1*
X1537270D2*
X1780756D1*
X605678Y1751424D2*
X1017329D1*
X1113540D2*
X1236713D1*
X1292690D2*
X1335688D1*
X1411684D2*
X1464301D1*
X1537270D2*
X1792915D1*
X1873989D2*
X1892915D1*
X499184Y1726555D2*
X518110D1*
X599184D2*
X847797D1*
X1150942D2*
X1236713D1*
X1292690D2*
X1335688D1*
X1411684D2*
X1464301D1*
X1537270D2*
X1616547D1*
X1723598D2*
X1792915D1*
X1873989D2*
X1892915D1*
X614760Y1701686D2*
X847797D1*
X1150942D2*
X1236713D1*
X1292690D2*
X1335688D1*
X1411684D2*
X1464301D1*
X1537270D2*
X1616547D1*
X1723598D2*
X1777338D1*
X616518Y1676818D2*
X847797D1*
X1150942D2*
X1236713D1*
X1292690D2*
X1335688D1*
X1411684D2*
X1464301D1*
X1537270D2*
X1616547D1*
X1723598D2*
X1775629D1*
X606069Y1651949D2*
X847797D1*
X1150942D2*
X1236713D1*
X1292690D2*
X1335688D1*
X1411684D2*
X1464301D1*
X1537270D2*
X1616547D1*
X1723598D2*
X1786030D1*
X498647Y1627080D2*
X518696D1*
X598647D2*
X847797D1*
X1150942D2*
X1236713D1*
X1412221D2*
X1464301D1*
X1537270D2*
X1616547D1*
X1723598D2*
X1793501D1*
X1873452D2*
X1893501D1*
X614614Y1602211D2*
X1073188D1*
X1178725D2*
X1236713D1*
X1428383D2*
X1464301D1*
X1537270D2*
X1616547D1*
X1723598D2*
X1777534D1*
X616616Y1577343D2*
X1084077D1*
X1183120D2*
X1236713D1*
X1425600D2*
X1464301D1*
X1573501D2*
X1616547D1*
X1723598D2*
X1775532D1*
X606460Y1552474D2*
X1111518D1*
X1169594D2*
X1248383D1*
X1403286D2*
X1464301D1*
X1698842D2*
X1785688D1*
X498012Y1527605D2*
X519282D1*
X598012D2*
X794379D1*
X838979D2*
X1273286D1*
X1398940D2*
X1464301D1*
X1686635D2*
X1794087D1*
X1872817D2*
X1894087D1*
X614419Y1502736D2*
X767671D1*
X865737D2*
X1464301D1*
X1650454D2*
X1777680D1*
X616665Y1477867D2*
X762202D1*
X871157D2*
X1475092D1*
X1654116D2*
X1775434D1*
X606850Y1452999D2*
X769477D1*
X863930D2*
X1499946D1*
X1639419D2*
X1785297D1*
X497426Y1428130D2*
X519917D1*
X597426D2*
X806294D1*
X827103D2*
X1524848D1*
X1625991D2*
X1794721D1*
X1872231D2*
X1894721D1*
X614272Y1403261D2*
X1549702D1*
X1650844D2*
X1777876D1*
X616713Y1378392D2*
X1574555D1*
X1675747D2*
X1775385D1*
X607192Y1353524D2*
X1599458D1*
X1700600D2*
X1784907D1*
X496792Y1328655D2*
X520503D1*
X596792D2*
X1624311D1*
X1725454D2*
X1795307D1*
X1871596D2*
X1895307D1*
X614077Y1303786D2*
X1649165D1*
X1750356D2*
X1778022D1*
X616811Y1278917D2*
X1674067D1*
X607583Y1254049D2*
X1262446D1*
X1313930D2*
X1594672D1*
X1676284D2*
X1698921D1*
X496157Y1229180D2*
X521186D1*
X596157D2*
X1246040D1*
X1676284D2*
X1707221D1*
X1780190D2*
X1795992D1*
X1870962D2*
X1895991D1*
X613881Y1204311D2*
X1248725D1*
X1676284D2*
X1707221D1*
X616860Y1179442D2*
X1195014D1*
X1269546D2*
X1460297D1*
X607924Y1154573D2*
X1189497D1*
X1275063D2*
X1456147D1*
X495473Y1129705D2*
X521821D1*
X595473D2*
X1201460D1*
X1263100D2*
X1283491D1*
X1780190D2*
X1796634D1*
X1870278D2*
X1896626D1*
X613735Y1104836D2*
X1204292D1*
X616909Y1079967D2*
X1204292D1*
X608266Y1055098D2*
X1204292D1*
X1656264D2*
X1666733D1*
X494790Y1030230D2*
X522504D1*
X594790D2*
X1215864D1*
X1631411D2*
X1666694D1*
X1869594D2*
X1897309D1*
X613540Y1005361D2*
X1478999D1*
X1616128D2*
X1666694D1*
X616958Y980492D2*
X1457465D1*
X1616128D2*
X1667475D1*
X608608Y955623D2*
X1457856D1*
X1616128D2*
X1687202D1*
X484585Y930755D2*
X523237D1*
X594106D2*
X1054096D1*
X1114419D2*
X1482026D1*
X1616128D2*
X1705268D1*
X1783852D2*
X1807514D1*
X1859389D2*
X1907514D1*
X613296Y905886D2*
X883442D1*
X1126967D2*
X1267622D1*
X1310610D2*
X1509077D1*
X1616128D2*
X1784223D1*
X617006Y881017D2*
X871381D1*
X1121889D2*
X1240278D1*
X1338003D2*
X1509077D1*
X1616128D2*
X1780122D1*
X608901Y856148D2*
X871381D1*
X1067690D2*
X1234663D1*
X1343618D2*
X1509077D1*
X1616128D2*
X1789155D1*
X1877749D2*
X1889155D1*
X428725Y831280D2*
X541840D1*
X575503D2*
X871381D1*
X1077358D2*
X1241694D1*
X1336538D2*
X1820942D1*
X1933803D2*
X1961079D1*
X428725Y806411D2*
X871381D1*
X986245D2*
X1007563D1*
X1102212D2*
X1276850D1*
X1301439D2*
X1814838D1*
X428725Y781542D2*
X871381D1*
X998745D2*
X1049995D1*
X1124965D2*
X1826069D1*
X428725Y756673D2*
X871381D1*
X927358D2*
X946479D1*
X1023501D2*
X1071381D1*
X1127358D2*
X1873188D1*
X428725Y731804D2*
X847797D1*
X1150942D2*
X1831049D1*
X428725Y706936D2*
X847797D1*
X1150942D2*
X1818940D1*
X428725Y682067D2*
X847797D1*
X1150942D2*
X1824360D1*
X428725Y657198D2*
X847797D1*
X1150942D2*
X1873188D1*
X428725Y632329D2*
X847797D1*
X1150942D2*
X1873188D1*
X428725Y607461D2*
X1873188D1*
X428725Y582592D2*
X1281098D1*
X1388979D2*
X1481489D1*
X1589370D2*
X1873188D1*
X428725Y557723D2*
X1281098D1*
X1388979D2*
X1481489D1*
X1589370D2*
X1873188D1*
X428725Y532854D2*
X1281098D1*
X1388979D2*
X1481489D1*
X1589370D2*
X1873188D1*
X428725Y507986D2*
X1281098D1*
X1388979D2*
X1481489D1*
X1589370D2*
X1873188D1*
X428725Y483117D2*
X1281098D1*
X1388979D2*
X1481489D1*
X1589370D2*
X1786176D1*
X428725Y458248D2*
X1281098D1*
X1388979D2*
X1481489D1*
X1589370D2*
X1786176D1*
X428725Y433379D2*
X1281098D1*
X1388979D2*
X1481489D1*
X1589370D2*
X1786176D1*
X1486512Y593547D2*
X1586854D1*
Y426194D1*
X1788652Y426201D1*
X1788673Y500728D1*
X1875636D1*
X1875673Y662266D1*
X1874117Y662984D1*
X1871155Y663320D1*
X1864878Y662326D1*
X1858523D1*
X1852246Y663320D1*
X1846202Y665284D1*
X1840540Y668169D1*
X1835398Y671904D1*
X1830904Y676398D1*
X1827169Y681540D1*
X1824284Y687202D1*
X1822320Y693246D1*
X1821326Y699523D1*
Y705878D1*
X1822320Y712155D1*
X1824284Y718199D1*
X1827169Y723862D1*
X1830904Y729003D1*
X1835398Y733497D1*
X1840540Y737233D1*
X1846202Y740118D1*
X1852246Y742082D1*
X1858523Y743076D1*
X1864878D1*
X1871155Y742082D1*
X1875673Y740681D1*
Y773397D1*
X1870216Y771183D1*
X1864036Y769699D1*
X1857701Y769201D1*
X1851365Y769699D1*
X1845186Y771183D1*
X1839314Y773615D1*
X1833895Y776936D1*
X1829063Y781063D1*
X1824936Y785895D1*
X1821615Y791314D1*
X1819183Y797186D1*
X1817699Y803365D1*
X1817201Y809701D1*
X1817699Y816036D1*
X1819183Y822216D1*
X1821615Y828087D1*
X1826066Y834940D1*
X1818827Y836550D1*
X1811826Y839221D1*
X1805291Y842888D1*
X1799364Y847473D1*
X1794173Y852876D1*
X1789828Y858981D1*
X1786425Y865657D1*
X1784036Y872759D1*
X1782713Y880135D1*
X1782484Y887625D1*
X1783355Y895067D1*
X1785306Y902302D1*
X1788296Y909173D1*
X1792259Y915532D1*
X1797112Y921242D1*
X1802748Y926180D1*
X1809046Y930239D1*
X1814409Y932754D1*
X1808032Y935519D1*
X1800537Y940112D1*
X1793853Y945821D1*
X1788144Y952506D1*
X1783551Y960001D1*
X1780187Y968122D1*
X1778135Y976670D1*
X1777445Y985433D1*
X1778319Y995123D1*
X1774497Y989839D1*
X1770003Y985345D1*
X1765761Y982210D1*
X1770877Y978497D1*
X1775371Y974003D1*
X1779107Y968862D1*
X1781992Y963199D1*
X1783956Y957155D1*
X1784950Y950878D1*
Y944523D1*
X1783956Y938246D1*
X1781992Y932202D1*
X1779107Y926540D1*
X1775371Y921398D1*
X1770877Y916904D1*
X1765736Y913169D1*
X1760073Y910284D1*
X1754029Y908320D1*
X1747752Y907326D1*
X1741397D1*
X1735120Y908320D1*
X1729076Y910284D1*
X1723414Y913169D1*
X1718272Y916904D1*
X1713778Y921398D1*
X1710043Y926540D1*
X1707158Y932202D1*
X1705194Y938246D1*
X1704721Y940622D1*
X1674071Y971712D1*
X1671142Y976942D1*
X1669515Y982712D1*
X1669201Y986701D1*
Y1136164D1*
X1668776Y1135870D1*
Y1070626D1*
X1660914D1*
X1659717Y1064986D1*
X1657207Y1059542D1*
X1653496Y1054835D1*
X1615382Y1017165D1*
X1610152Y1014236D1*
X1608266Y1013541D1*
X1613626Y1013232D1*
Y844248D1*
X1511571D1*
Y930330D1*
X1505036Y928699D1*
X1498701Y928201D1*
X1492365Y928699D1*
X1486186Y930183D1*
X1480314Y932615D1*
X1474895Y935936D1*
X1470063Y940063D1*
X1465936Y944895D1*
X1462615Y950314D1*
X1460183Y956186D1*
X1458699Y962365D1*
X1458201Y968701D1*
X1458699Y975036D1*
X1460183Y981216D1*
X1462615Y987087D1*
X1465936Y992506D1*
X1470063Y997339D1*
X1474895Y1001466D1*
X1480314Y1004787D1*
X1486186Y1007219D1*
X1492365Y1008702D1*
X1498701Y1009201D1*
X1505036Y1008702D1*
X1511577Y1007085D1*
X1500394Y1012295D1*
X1242861Y1012609D1*
X1237092Y1014236D1*
X1231862Y1017165D1*
X1228819Y1019764D1*
X1211653Y1037374D1*
X1208724Y1042604D1*
X1207097Y1048373D1*
X1206783Y1052362D1*
Y1127216D1*
X1201487Y1132359D1*
X1197752Y1137500D1*
X1194866Y1143163D1*
X1192902Y1149207D1*
X1191908Y1155484D1*
Y1161839D1*
X1192902Y1168116D1*
X1194866Y1174160D1*
X1197752Y1179823D1*
X1201487Y1184964D1*
X1205981Y1189458D1*
X1211122Y1193193D1*
X1216785Y1196079D1*
X1222829Y1198042D1*
X1229106Y1199037D1*
X1235461D1*
X1241738Y1198042D1*
X1247782Y1196079D1*
X1253445Y1193193D1*
X1258586Y1189458D1*
X1263080Y1184964D1*
X1266815Y1179823D1*
X1269701Y1174160D1*
X1271664Y1168116D1*
X1272659Y1161839D1*
Y1155484D1*
X1271664Y1149207D1*
X1269701Y1143163D1*
X1266815Y1137500D1*
X1263080Y1132359D1*
X1257776Y1127227D1*
X1257784Y1107245D1*
X1264816Y1111039D1*
X1270860Y1113003D1*
X1277137Y1113997D1*
X1282735Y1114027D1*
X1283227Y1120115D1*
X1284711Y1126295D1*
X1287143Y1132166D1*
X1290463Y1137585D1*
X1294591Y1142417D1*
X1299423Y1146545D1*
X1304842Y1149865D1*
X1310713Y1152297D1*
X1316893Y1153781D1*
X1323228Y1154280D1*
X1329564Y1153781D1*
X1335744Y1152297D1*
X1341615Y1149865D1*
X1347034Y1146545D1*
X1352954Y1141241D1*
X1463136Y1141248D1*
X1460183Y1148186D1*
X1458699Y1154365D1*
X1458201Y1160701D1*
X1458699Y1167036D1*
X1460183Y1173216D1*
X1462615Y1179087D1*
X1465936Y1184506D1*
X1470382Y1189634D1*
X1462697Y1195366D1*
X1319679D1*
X1314492Y1190070D1*
X1309350Y1186334D1*
X1303688Y1183449D1*
X1297644Y1181485D1*
X1291367Y1180491D1*
X1285011D1*
X1278734Y1181485D1*
X1272690Y1183449D1*
X1267028Y1186334D1*
X1261886Y1190070D1*
X1257393Y1194563D1*
X1253657Y1199705D1*
X1250772Y1205367D1*
X1248808Y1211412D1*
X1247814Y1217689D1*
Y1224044D1*
X1248808Y1230321D1*
X1250772Y1236365D1*
X1253657Y1242027D1*
X1257393Y1247169D1*
X1261886Y1251663D1*
X1267028Y1255398D1*
X1272690Y1258283D1*
X1278734Y1260247D1*
X1285011Y1261241D1*
X1291367D1*
X1297644Y1260247D1*
X1303688Y1258283D1*
X1309350Y1255398D1*
X1314492Y1251663D1*
X1319624Y1246359D1*
X1477198Y1246288D1*
X1483077Y1245118D1*
X1488521Y1242609D1*
X1493228Y1238897D1*
X1500306Y1231819D1*
X1527313Y1231799D1*
X1527351Y1251421D1*
X1597164D1*
X1597162Y1256413D1*
X1673768D1*
Y1187224D1*
X1683690Y1186887D1*
X1689459Y1185260D1*
X1694689Y1182331D1*
X1697732Y1179732D1*
X1709724Y1167740D1*
X1709701Y1245750D1*
X1474934Y1480675D1*
X1471798Y1484991D1*
X1469375Y1489745D1*
X1467727Y1494819D1*
X1466892Y1500088D1*
X1466787Y1677756D1*
Y2075168D1*
X1438622Y2075282D1*
X1432512Y2076498D1*
X1426855Y2079106D1*
X1421962Y2082962D1*
X1365995Y2138930D1*
X1365988Y2101235D1*
X1372690Y2100887D1*
X1378459Y2099260D1*
X1383689Y2096331D1*
X1386732Y2093732D1*
X1435331Y2044689D1*
X1438260Y2039459D1*
X1439887Y2033690D1*
X1440201Y2029701D1*
Y2008168D1*
X1445497Y2003003D1*
X1449233Y1997862D1*
X1452118Y1992199D1*
X1454082Y1986155D1*
X1455076Y1979878D1*
Y1973523D1*
X1454082Y1967246D1*
X1452118Y1961202D1*
X1449233Y1955540D1*
X1445497Y1950398D1*
X1441003Y1945904D1*
X1435862Y1942169D1*
X1430199Y1939284D1*
X1424155Y1937320D1*
X1417878Y1936326D1*
X1411523D1*
X1409192Y1936602D1*
X1409201Y1627425D1*
X1414858Y1622732D1*
X1418986Y1617900D1*
X1422306Y1612481D1*
X1424738Y1606610D1*
X1426222Y1600430D1*
X1426720Y1594094D1*
X1426222Y1587759D1*
X1424738Y1581579D1*
X1422306Y1575708D1*
X1418986Y1570289D1*
X1414858Y1565457D1*
X1410026Y1561329D1*
X1404607Y1558009D1*
X1400099Y1556080D1*
X1401076Y1549878D1*
Y1543523D1*
X1400082Y1537246D1*
X1398118Y1531202D1*
X1395233Y1525540D1*
X1391497Y1520398D1*
X1387003Y1515904D1*
X1381862Y1512169D1*
X1376199Y1509284D1*
X1370155Y1507320D1*
X1363878Y1506326D1*
X1357523D1*
X1351246Y1507320D1*
X1345202Y1509284D1*
X1339540Y1512169D1*
X1334398Y1515904D1*
X1329266Y1521208D1*
X1288712Y1521515D1*
X1282942Y1523142D1*
X1277712Y1526071D1*
X1274669Y1528669D1*
X1244071Y1559712D1*
X1241142Y1564942D1*
X1239515Y1570712D1*
X1239201Y1574701D1*
Y1827484D1*
X1233228Y1824557D1*
X1225613Y1822083D1*
X1217704Y1820831D1*
X1209697D1*
X1201789Y1822083D1*
X1194173Y1824557D1*
X1187039Y1828193D1*
X1180561Y1832899D1*
X1174899Y1838561D1*
X1170193Y1845039D1*
X1166557Y1852173D1*
X1164083Y1859789D1*
X1163720Y1861615D1*
X1160844Y1852173D1*
X1157209Y1845039D1*
X1152502Y1838561D1*
X1146841Y1832899D1*
X1140363Y1828193D1*
X1133228Y1824557D1*
X1125613Y1822083D1*
X1117704Y1820831D1*
X1109697D1*
X1101789Y1822083D1*
X1094173Y1824557D1*
X1087039Y1828193D1*
X1080561Y1832899D1*
X1074899Y1838561D1*
X1070193Y1845039D1*
X1066557Y1852173D1*
X1064083Y1859789D1*
X1063720Y1861615D1*
X1061757Y1854542D1*
X1058726Y1847689D1*
X1054724Y1841354D1*
X1049837Y1835673D1*
X1044171Y1830770D1*
X1038621Y1827188D1*
X1046036Y1826702D1*
X1052216Y1825219D1*
X1058087Y1822787D1*
X1063506Y1819466D1*
X1068339Y1815339D1*
X1072466Y1810506D1*
X1075787Y1805087D1*
X1078219Y1799216D1*
X1079702Y1793036D1*
X1080201Y1786701D1*
X1079955Y1782499D1*
X1119992Y1742028D1*
X1122921Y1736798D1*
X1124159Y1732985D1*
X1125303Y1732524D1*
X1148421D1*
Y1622807D1*
X1156050Y1620488D1*
X1161712Y1617603D1*
X1166854Y1613867D1*
X1171348Y1609374D1*
X1175083Y1604232D1*
X1177968Y1598570D1*
X1179932Y1592525D1*
X1180926Y1586248D1*
Y1579893D1*
X1179932Y1573616D1*
X1177968Y1567572D1*
X1175083Y1561910D1*
X1171348Y1556768D1*
X1166854Y1552274D1*
X1161712Y1548539D1*
X1156050Y1545654D1*
X1150006Y1543690D1*
X1143729Y1542696D1*
X1137374D1*
X1131097Y1543690D1*
X1125053Y1545654D1*
X1119390Y1548539D1*
X1114249Y1552274D1*
X1109755Y1556768D1*
X1105900Y1561968D1*
X1100456Y1564478D1*
X1095748Y1568189D1*
X1080551Y1583830D1*
X1077622Y1589060D1*
X1075995Y1594830D1*
X1075681Y1598819D1*
Y1618692D1*
X1053414Y1618657D1*
X1053413Y1613665D1*
X945311D1*
Y1618695D1*
X850303Y1618657D1*
Y1732524D1*
X945313D1*
X945311Y1737516D1*
X1052812D1*
X1043938Y1746400D1*
X1036523Y1746326D1*
X1030246Y1747320D1*
X1024202Y1749284D1*
X1018540Y1752169D1*
X1013398Y1755904D1*
X1008904Y1760398D1*
X1005169Y1765540D1*
X1002284Y1771202D1*
X1000320Y1777246D1*
X999326Y1783523D1*
Y1789878D1*
X1000320Y1796155D1*
X1002284Y1802199D1*
X1005169Y1807862D1*
X1008904Y1813003D1*
X1013398Y1817497D1*
X1017972Y1820853D1*
X1008862Y1820903D1*
X1001475Y1822160D1*
X994351Y1824484D1*
X987645Y1827827D1*
X981501Y1832116D1*
X976051Y1837259D1*
X971412Y1843144D1*
X967686Y1849645D1*
X964952Y1856622D1*
X963269Y1863923D1*
X962674Y1871393D1*
X963179Y1878869D1*
X964774Y1886191D1*
X967423Y1893200D1*
X971071Y1899746D1*
X975638Y1905686D1*
X981025Y1910894D1*
X984691Y1913670D1*
X905610Y1913673D1*
Y2015728D1*
X932222D1*
X932282Y2172780D1*
X933498Y2178890D1*
X936106Y2184547D1*
X939962Y2189439D1*
X985490Y2234852D1*
X990670Y2238312D1*
X996514Y2240469D1*
X1002701Y2241201D1*
X1346780Y2241119D1*
X1352890Y2239904D1*
X1358547Y2237296D1*
X1363439Y2233439D1*
X1392140Y2204277D1*
X1395184Y2198842D1*
X1396875Y2192846D1*
X1397201Y2182901D1*
X1401063Y2187339D1*
X1405895Y2191466D1*
X1411314Y2194787D1*
X1417186Y2197219D1*
X1423365Y2198702D1*
X1429701Y2199201D1*
X1433902Y2198955D1*
X1447267Y2212329D1*
X1435193Y2212358D1*
Y2294728D1*
X1447742D1*
X1447728Y2340351D1*
X1430075Y2340311D1*
Y2356375D1*
X1415755Y2356390D1*
X1410555Y2351093D1*
X1405413Y2347358D1*
X1399751Y2344473D1*
X1393707Y2342509D1*
X1387430Y2341515D1*
X1381074D1*
X1374797Y2342509D1*
X1368753Y2344473D1*
X1363091Y2347358D1*
X1357949Y2351093D1*
X1353456Y2355587D1*
X1349720Y2360729D1*
X1346835Y2366391D1*
X1344871Y2372435D1*
X1343877Y2378712D1*
Y2385067D1*
X1344871Y2391344D1*
X1346835Y2397388D1*
X1349720Y2403051D1*
X1353456Y2408192D1*
X1357949Y2412686D1*
X1363091Y2416422D1*
X1368753Y2419307D1*
X1374797Y2421271D1*
X1381074Y2422265D1*
X1387430D1*
X1393707Y2421271D1*
X1399751Y2419307D1*
X1405413Y2416422D1*
X1410555Y2412686D1*
X1415687Y2407383D1*
X1427904Y2407398D1*
X1424169Y2412540D1*
X1421284Y2418202D1*
X1419320Y2424246D1*
X1418326Y2430523D1*
Y2436878D1*
X1419320Y2443155D1*
X1421284Y2449199D1*
X1424169Y2454862D1*
X1427904Y2460003D1*
X1432398Y2464497D1*
X1437540Y2468233D1*
X1443202Y2471118D1*
X1449246Y2473082D1*
X1455523Y2474076D1*
X1461878D1*
X1468155Y2473082D1*
X1474199Y2471118D1*
X1479862Y2468233D1*
X1485003Y2464497D1*
X1490136Y2459194D1*
X1537690Y2458887D1*
X1543459Y2457260D1*
X1548689Y2454331D1*
X1555065Y2448399D1*
X1559331Y2443689D1*
X1562260Y2438459D1*
X1563887Y2432690D1*
X1564201Y2422695D1*
X1583311Y2422681D1*
Y2340311D1*
X1498727D1*
X1498729Y2294728D1*
X1588429D1*
Y2212358D1*
X1563307Y2212244D1*
X1543689Y2193071D1*
X1538459Y2190142D1*
X1532690Y2188515D1*
X1528066Y2188201D1*
X1533553Y2182073D1*
X1536873Y2176654D1*
X1539305Y2170783D1*
X1540355Y2166784D1*
X1548689Y2158302D1*
X1551825Y2153986D1*
X1554247Y2149232D1*
X1555895Y2144158D1*
X1556730Y2138888D1*
Y2133553D1*
X1555895Y2128283D1*
X1554247Y2123209D1*
X1551825Y2118455D1*
X1548689Y2114139D1*
X1534758Y2100060D1*
X1534787Y1584660D1*
X1542523Y1586076D1*
X1548878D1*
X1555155Y1585082D1*
X1561199Y1583118D1*
X1566862Y1580233D1*
X1572003Y1576497D1*
X1576497Y1572003D1*
X1580233Y1566862D1*
X1583118Y1561199D1*
X1584809Y1556124D1*
X1589282Y1562523D1*
X1593776Y1567017D1*
X1598918Y1570752D1*
X1604580Y1573638D1*
X1610624Y1575601D1*
X1616901Y1576596D1*
X1619049Y1576680D1*
X1619051Y1743153D1*
X1721106D1*
Y1574169D1*
X1696351D1*
X1696052Y1546405D1*
X1694425Y1540635D1*
X1691496Y1535405D1*
X1688897Y1532362D1*
X1671681Y1515590D1*
X1666451Y1512661D1*
X1660682Y1511034D1*
X1651566Y1510720D1*
X1646463Y1505500D1*
X1649118Y1500199D1*
X1651082Y1494155D1*
X1652076Y1487878D1*
Y1481523D1*
X1651082Y1475246D1*
X1649118Y1469202D1*
X1646233Y1463540D1*
X1642497Y1458398D1*
X1638003Y1453904D1*
X1632862Y1450169D1*
X1627199Y1447284D1*
X1621155Y1445320D1*
X1614878Y1444326D1*
X1607129Y1444491D1*
X1769555Y1281924D1*
X1772691Y1277607D1*
X1775113Y1272854D1*
X1776761Y1267780D1*
X1777596Y1262510D1*
X1777701Y1190751D1*
X1778993Y1198511D1*
X1781709Y1206871D1*
X1785700Y1214703D1*
X1790867Y1221815D1*
X1797083Y1228031D1*
X1804194Y1233198D1*
X1808032Y1235519D1*
X1800537Y1240112D1*
X1793853Y1245821D1*
X1788144Y1252506D1*
X1783551Y1260001D1*
X1780187Y1268122D1*
X1778135Y1276670D1*
X1777445Y1285433D1*
X1778135Y1294196D1*
X1780187Y1302744D1*
X1783551Y1310865D1*
X1788144Y1318361D1*
X1793853Y1325045D1*
X1800537Y1330754D1*
X1808204Y1335426D1*
X1800537Y1340112D1*
X1793853Y1345821D1*
X1788144Y1352506D1*
X1783551Y1360001D1*
X1780187Y1368122D1*
X1778135Y1376670D1*
X1777445Y1385433D1*
X1778135Y1394196D1*
X1780187Y1402744D1*
X1783551Y1410865D1*
X1788144Y1418361D1*
X1793853Y1425045D1*
X1800537Y1430754D1*
X1808204Y1435426D1*
X1800537Y1440112D1*
X1793853Y1445821D1*
X1788144Y1452506D1*
X1783551Y1460001D1*
X1780187Y1468122D1*
X1778135Y1476670D1*
X1777445Y1485433D1*
X1778135Y1494196D1*
X1780187Y1502744D1*
X1783551Y1510865D1*
X1788144Y1518361D1*
X1793853Y1525045D1*
X1800537Y1530754D1*
X1808204Y1535426D1*
X1800537Y1540112D1*
X1793853Y1545821D1*
X1788144Y1552506D1*
X1783551Y1560001D1*
X1780187Y1568122D1*
X1778135Y1576670D1*
X1777445Y1585433D1*
X1778135Y1594196D1*
X1780187Y1602744D1*
X1783551Y1610865D1*
X1788144Y1618361D1*
X1793853Y1625045D1*
X1800537Y1630754D1*
X1808204Y1635426D1*
X1800537Y1640112D1*
X1793853Y1645821D1*
X1788144Y1652506D1*
X1783551Y1660001D1*
X1780187Y1668122D1*
X1778135Y1676670D1*
X1777445Y1685433D1*
X1778135Y1694196D1*
X1780187Y1702744D1*
X1783551Y1710865D1*
X1788144Y1718361D1*
X1793853Y1725045D1*
X1800537Y1730754D1*
X1808032Y1735347D1*
X1814461Y1738087D1*
X1807409Y1741559D1*
X1801264Y1745848D1*
X1795814Y1750991D1*
X1791176Y1756876D1*
X1787450Y1763377D1*
X1784716Y1770354D1*
X1783033Y1777656D1*
X1782438Y1785125D1*
X1782943Y1792601D1*
X1784538Y1799923D1*
X1787187Y1806932D1*
X1790835Y1813478D1*
X1795402Y1819419D1*
X1800789Y1824627D1*
X1806881Y1828989D1*
X1813547Y1832413D1*
X1820642Y1834823D1*
X1823297Y1835432D1*
X1813937Y1838290D1*
X1806803Y1841925D1*
X1800325Y1846631D1*
X1794663Y1852293D1*
X1789956Y1858771D1*
X1786321Y1865906D1*
X1783847Y1873521D1*
X1782594Y1881429D1*
Y1889437D1*
X1783847Y1897345D1*
X1786321Y1904960D1*
X1789956Y1912095D1*
X1794663Y1918573D1*
X1800325Y1924235D1*
X1806803Y1928941D1*
X1813937Y1932576D1*
X1821552Y1935051D1*
X1823379Y1935414D1*
X1813937Y1938290D1*
X1806803Y1941925D1*
X1800325Y1946631D1*
X1794663Y1952293D1*
X1789306Y1959932D1*
X1691521Y1959933D1*
X1687466Y1952895D1*
X1683339Y1948063D1*
X1678506Y1943936D1*
X1673087Y1940615D1*
X1667216Y1938183D1*
X1661036Y1936699D1*
X1654701Y1936201D1*
X1648365Y1936699D1*
X1642186Y1938183D1*
X1636314Y1940615D1*
X1630895Y1943936D1*
X1626063Y1948063D1*
X1621936Y1952895D1*
X1618615Y1958314D1*
X1616183Y1964186D1*
X1614699Y1970365D1*
X1614201Y1976701D1*
X1614699Y1983036D1*
X1616183Y1989216D1*
X1618615Y1995087D1*
X1621936Y2000506D1*
X1626063Y2005339D1*
X1630895Y2009466D1*
X1636314Y2012787D1*
X1642186Y2015219D1*
X1648365Y2016702D1*
X1654701Y2017201D1*
X1661036Y2016702D1*
X1667216Y2015219D1*
X1673087Y2012787D1*
X1676306Y2010936D1*
X1789263Y2010933D1*
X1794663Y2018573D1*
X1800325Y2024235D1*
X1806803Y2028941D1*
X1814422Y2032755D1*
X1808032Y2035519D1*
X1800537Y2040112D1*
X1793853Y2045821D1*
X1788144Y2052506D1*
X1783551Y2060001D1*
X1780187Y2068122D1*
X1778135Y2076670D1*
X1777445Y2085433D1*
X1778135Y2094196D1*
X1780187Y2102744D1*
X1783551Y2110865D1*
X1788144Y2118361D1*
X1793853Y2125045D1*
X1800537Y2130754D1*
X1808204Y2135426D1*
X1800537Y2140112D1*
X1793853Y2145821D1*
X1788144Y2152506D1*
X1783551Y2160001D1*
X1780187Y2168122D1*
X1778135Y2176670D1*
X1777445Y2185433D1*
X1778135Y2194196D1*
X1780187Y2202744D1*
X1783551Y2210865D1*
X1788144Y2218361D1*
X1793853Y2225045D1*
X1800537Y2230754D1*
X1808204Y2235426D1*
X1800537Y2240112D1*
X1793853Y2245821D1*
X1788144Y2252506D1*
X1783551Y2260001D1*
X1780187Y2268122D1*
X1778135Y2276670D1*
X1777445Y2285433D1*
X1778135Y2294196D1*
X1780187Y2302744D1*
X1783551Y2310865D1*
X1788144Y2318361D1*
X1793853Y2325045D1*
X1800537Y2330754D1*
X1808032Y2335347D1*
X1814461Y2338087D1*
X1806803Y2341925D1*
X1800325Y2346631D1*
X1794663Y2352293D1*
X1789956Y2358771D1*
X1786321Y2365906D1*
X1783847Y2373521D1*
X1782594Y2381429D1*
Y2389437D1*
X1783847Y2397345D1*
X1786321Y2404960D1*
X1789956Y2412095D1*
X1794663Y2418573D1*
X1800325Y2424235D1*
X1806803Y2428941D1*
X1814422Y2432755D1*
X1808032Y2435519D1*
X1800537Y2440112D1*
X1793853Y2445821D1*
X1788144Y2452506D1*
X1783551Y2460001D1*
X1780187Y2468122D1*
X1778135Y2476670D1*
X1777445Y2485433D1*
X1778135Y2494196D1*
X1780187Y2502744D1*
X1783551Y2510865D1*
X1788144Y2518361D1*
X1793853Y2525045D1*
X1800537Y2530754D1*
X1808032Y2535347D1*
X1814461Y2538087D1*
X1806803Y2541925D1*
X1800325Y2546631D1*
X1794663Y2552293D1*
X1789956Y2558771D1*
X1786321Y2565906D1*
X1783847Y2573521D1*
X1782594Y2581429D1*
Y2589437D1*
X1783847Y2597345D1*
X1786321Y2604960D1*
X1789956Y2612095D1*
X1794663Y2618573D1*
X1800325Y2624235D1*
X1806803Y2628941D1*
X1813937Y2632576D1*
X1821552Y2635051D1*
X1823379Y2635414D1*
X1813937Y2638290D1*
X1806803Y2641925D1*
X1800325Y2646631D1*
X1794663Y2652293D1*
X1789956Y2658771D1*
X1786321Y2665906D1*
X1783847Y2673521D1*
X1782594Y2681429D1*
Y2689437D1*
X1783847Y2697345D1*
X1786321Y2704960D1*
X1789956Y2712095D1*
X1794663Y2718573D1*
X1800325Y2724235D1*
X1806803Y2728941D1*
X1813937Y2732576D1*
X1819278Y2734409D1*
X1782437Y2734405D1*
Y2836460D1*
X1884492D1*
Y2812642D1*
X1888144Y2818361D1*
X1893853Y2825045D1*
X1900537Y2830754D1*
X1908032Y2835347D1*
X1916154Y2838711D1*
X1924701Y2840763D1*
X1933465Y2841453D1*
X1942228Y2840763D1*
X1950776Y2838711D1*
X1958897Y2835347D1*
X1963549Y2832654D1*
X1963563Y2920293D1*
X426209Y2920256D1*
X426201Y2836418D1*
X509689Y2836460D1*
Y2802994D1*
X512305Y2809053D1*
X516570Y2816014D1*
X521872Y2822222D1*
X528080Y2827524D1*
X535041Y2831790D1*
X542584Y2834914D1*
X550523Y2836820D1*
X558661Y2837461D1*
X566800Y2836820D1*
X574739Y2834914D1*
X582281Y2831790D1*
X589242Y2827524D1*
X595450Y2822222D1*
X600753Y2816014D1*
X605018Y2809053D1*
X608143Y2801510D1*
X610048Y2793572D1*
X610689Y2785433D1*
X610048Y2777294D1*
X608143Y2769356D1*
X605018Y2761813D1*
X600753Y2754852D1*
X595450Y2748644D1*
X589242Y2743342D1*
X582281Y2739076D1*
X574739Y2735952D1*
X571099Y2734925D1*
X577726Y2732766D1*
X584452Y2729463D1*
X590622Y2725211D1*
X596103Y2720102D1*
X600777Y2714245D1*
X604542Y2707766D1*
X607318Y2700806D1*
X609045Y2693515D1*
X609689Y2685433D1*
X609139Y2677960D1*
X607500Y2670648D1*
X604808Y2663655D1*
X601121Y2657132D1*
X596519Y2651219D1*
X591100Y2646043D1*
X584981Y2641717D1*
X577722Y2638111D1*
X584094Y2635347D1*
X591589Y2630754D1*
X598273Y2625045D1*
X603982Y2618361D1*
X607003Y2614045D1*
X610137Y2626139D1*
X614622Y2637800D1*
X620398Y2648877D1*
X627393Y2659229D1*
X635516Y2668721D1*
X644661Y2677232D1*
X654713Y2684652D1*
X665540Y2690885D1*
X677004Y2695852D1*
X688956Y2699487D1*
X701244Y2701744D1*
X713708Y2702595D1*
X726189Y2702028D1*
X738524Y2700051D1*
X750557Y2696688D1*
X762131Y2691984D1*
X773097Y2685999D1*
X783314Y2678810D1*
X792651Y2670509D1*
X800988Y2661204D1*
X802587Y2659357D1*
X797405Y2670725D1*
X793544Y2682607D1*
X791054Y2694850D1*
X789968Y2707296D1*
X790299Y2719784D1*
X792042Y2732155D1*
X795177Y2744249D1*
X799661Y2755910D1*
X805438Y2766987D1*
X812432Y2777339D1*
X820555Y2786831D1*
X829701Y2795342D1*
X839752Y2802762D1*
X850579Y2808995D1*
X862043Y2813962D1*
X873996Y2817597D1*
X886283Y2819855D1*
X898748Y2820705D1*
X911228Y2820138D1*
X923564Y2818161D1*
X935596Y2814799D1*
X947170Y2810094D1*
X958136Y2804109D1*
X968354Y2796920D1*
X977691Y2788619D1*
X986027Y2779314D1*
X993256Y2769124D1*
X999283Y2758181D1*
X1004031Y2746625D1*
X1007440Y2734606D1*
X1009465Y2722278D1*
X1010083Y2710630D1*
X1009374Y2698157D1*
X1007256Y2685844D1*
X1003757Y2673851D1*
X998921Y2662331D1*
X992812Y2651434D1*
X985507Y2641299D1*
X977100Y2632057D1*
X967701Y2623827D1*
X957430Y2616715D1*
X946419Y2610813D1*
X934810Y2606196D1*
X922752Y2602924D1*
X910402Y2601040D1*
X897918Y2600567D1*
X885460Y2601512D1*
X873190Y2603862D1*
X861265Y2607587D1*
X849839Y2612640D1*
X839059Y2618954D1*
X829064Y2626450D1*
X819983Y2635030D1*
X812009Y2644482D1*
X817250Y2633202D1*
X821201Y2621349D1*
X823784Y2609126D1*
X824964Y2596689D1*
X824788Y2585025D1*
X823231Y2572630D1*
X821993Y2566814D1*
X828922Y2572240D1*
X836817Y2577515D1*
X845101Y2582155D1*
X853724Y2586130D1*
X862632Y2589416D1*
X871771Y2591993D1*
X881083Y2593846D1*
X890512Y2594962D1*
X900000Y2595335D1*
X909488Y2594962D1*
X918917Y2593846D1*
X928229Y2591993D1*
X937368Y2589416D1*
X946276Y2586130D1*
X954899Y2582155D1*
X963183Y2577515D1*
X971078Y2572240D1*
X978535Y2566362D1*
X985507Y2559916D1*
X991952Y2552944D1*
X997831Y2545487D1*
X1003106Y2537593D1*
X1007745Y2529308D1*
X1011720Y2520686D1*
X1015007Y2511777D1*
X1017584Y2502639D1*
X1019436Y2493326D1*
X1020552Y2483897D1*
X1020925Y2474409D1*
X1020552Y2464922D1*
X1019436Y2455493D1*
X1017584Y2446180D1*
X1015007Y2437042D1*
X1011720Y2428133D1*
X1007745Y2419511D1*
X1003106Y2411226D1*
X997831Y2403331D1*
X991952Y2395875D1*
X985507Y2388902D1*
X978535Y2382457D1*
X971078Y2376579D1*
X963183Y2371304D1*
X954899Y2366664D1*
X946276Y2362689D1*
X937368Y2359403D1*
X928229Y2356825D1*
X918917Y2354973D1*
X909488Y2353857D1*
X900000Y2353484D1*
X890512Y2353857D1*
X881083Y2354973D1*
X871771Y2356825D1*
X862632Y2359403D1*
X853724Y2362689D1*
X845101Y2366664D1*
X836817Y2371304D1*
X828922Y2376579D1*
X821465Y2382457D1*
X814493Y2388902D1*
X808048Y2395875D1*
X802169Y2403331D1*
X796894Y2411226D1*
X792255Y2419511D1*
X788280Y2428133D1*
X784993Y2437042D1*
X782416Y2446180D1*
X780564Y2455493D1*
X779448Y2464922D1*
X779075Y2474409D1*
X779448Y2483897D1*
X780564Y2493326D1*
X783453Y2506316D1*
X772390Y2498605D1*
X761379Y2492702D1*
X749770Y2488086D1*
X737713Y2484814D1*
X725363Y2482930D1*
X712878Y2482457D1*
X700421Y2483401D1*
X688150Y2485752D1*
X676226Y2489477D1*
X664800Y2494530D1*
X654020Y2500844D1*
X644025Y2508340D1*
X634943Y2516919D1*
X626892Y2526473D1*
X619976Y2536877D1*
X614283Y2547998D1*
X609887Y2559692D1*
X609334Y2561535D1*
X603982Y2552506D1*
X598273Y2545821D1*
X591589Y2540112D1*
X583922Y2535440D1*
X591589Y2530754D1*
X598273Y2525045D1*
X603982Y2518361D1*
X608575Y2510865D1*
X611939Y2502744D1*
X613991Y2494196D1*
X614681Y2485433D1*
X613991Y2476670D1*
X611939Y2468122D1*
X608575Y2460001D1*
X603982Y2452506D1*
X598273Y2445821D1*
X591589Y2440112D1*
X583922Y2435440D1*
X591589Y2430754D1*
X598273Y2425045D1*
X603982Y2418361D1*
X608575Y2410865D1*
X611939Y2402744D1*
X613991Y2394196D1*
X614681Y2385433D1*
X613991Y2376670D1*
X611939Y2368122D1*
X608575Y2360001D1*
X603982Y2352506D1*
X598273Y2345821D1*
X591589Y2340112D1*
X584094Y2335519D1*
X577665Y2332780D1*
X584452Y2329463D1*
X590622Y2325211D1*
X596103Y2320102D1*
X600777Y2314245D1*
X604542Y2307766D1*
X607318Y2300806D1*
X609045Y2293515D1*
X609689Y2285433D1*
X609139Y2277960D1*
X607500Y2270648D1*
X604808Y2263655D1*
X601121Y2257132D1*
X596519Y2251219D1*
X591100Y2246043D1*
X584981Y2241717D1*
X577722Y2238111D1*
X584094Y2235347D1*
X591589Y2230754D1*
X598273Y2225045D1*
X603982Y2218361D1*
X608575Y2210865D1*
X611939Y2202744D1*
X613991Y2194196D1*
X614681Y2185433D1*
X613991Y2176670D1*
X611939Y2168122D1*
X608575Y2160001D1*
X603982Y2152506D1*
X598273Y2145821D1*
X591589Y2140112D1*
X583922Y2135440D1*
X591589Y2130754D1*
X598273Y2125045D1*
X603982Y2118361D1*
X608575Y2110865D1*
X611939Y2102744D1*
X613991Y2094196D1*
X614681Y2085433D1*
X613991Y2076670D1*
X611939Y2068122D1*
X608575Y2060001D1*
X603982Y2052506D1*
X598273Y2045821D1*
X591589Y2040112D1*
X583922Y2035440D1*
X591589Y2030754D1*
X598273Y2025045D1*
X603982Y2018361D1*
X608575Y2010865D1*
X611939Y2002744D1*
X613991Y1994196D1*
X614681Y1985433D1*
X613991Y1976670D1*
X611939Y1968122D1*
X608575Y1960001D1*
X603982Y1952506D1*
X598273Y1945821D1*
X591589Y1940112D1*
X583922Y1935440D1*
X591589Y1930754D1*
X598273Y1925045D1*
X603982Y1918361D1*
X608575Y1910865D1*
X611939Y1902744D1*
X613991Y1894196D1*
X614681Y1885433D1*
X613991Y1876670D1*
X611939Y1868122D1*
X608575Y1860001D1*
X603982Y1852506D1*
X598273Y1845821D1*
X591589Y1840112D1*
X583922Y1835440D1*
X591589Y1830754D1*
X598273Y1825045D1*
X603982Y1818361D1*
X608575Y1810865D1*
X611939Y1802744D1*
X613991Y1794196D1*
X614681Y1785433D1*
X613991Y1776670D1*
X611939Y1768122D1*
X608575Y1760001D1*
X603982Y1752506D1*
X598273Y1745821D1*
X591589Y1740112D1*
X583922Y1735440D1*
X591589Y1730754D1*
X598273Y1725045D1*
X603982Y1718361D1*
X608575Y1710865D1*
X611939Y1702744D1*
X613991Y1694196D1*
X614681Y1685433D1*
X613991Y1676670D1*
X611939Y1668122D1*
X608575Y1660001D1*
X603982Y1652506D1*
X598273Y1645821D1*
X591589Y1640112D1*
X583922Y1635440D1*
X591589Y1630754D1*
X598273Y1625045D1*
X603982Y1618361D1*
X608575Y1610865D1*
X611939Y1602744D1*
X613991Y1594196D1*
X614681Y1585433D1*
X613991Y1576670D1*
X611939Y1568122D1*
X608575Y1560001D1*
X603982Y1552506D1*
X598273Y1545821D1*
X591589Y1540112D1*
X583922Y1535440D1*
X591589Y1530754D1*
X598273Y1525045D1*
X603982Y1518361D1*
X608575Y1510865D1*
X611939Y1502744D1*
X613991Y1494196D1*
X614681Y1485433D1*
X613991Y1476670D1*
X611939Y1468122D1*
X608575Y1460001D1*
X603982Y1452506D1*
X598273Y1445821D1*
X591589Y1440112D1*
X583922Y1435440D1*
X591589Y1430754D1*
X598273Y1425045D1*
X603982Y1418361D1*
X608575Y1410865D1*
X611939Y1402744D1*
X613991Y1394196D1*
X614681Y1385433D1*
X613991Y1376670D1*
X611939Y1368122D1*
X608575Y1360001D1*
X603982Y1352506D1*
X598273Y1345821D1*
X591589Y1340112D1*
X583922Y1335440D1*
X591589Y1330754D1*
X598273Y1325045D1*
X603982Y1318361D1*
X608575Y1310865D1*
X611939Y1302744D1*
X613991Y1294196D1*
X614681Y1285433D1*
X613991Y1276670D1*
X611939Y1268122D1*
X608575Y1260001D1*
X603982Y1252506D1*
X598273Y1245821D1*
X591589Y1240112D1*
X583922Y1235440D1*
X591589Y1230754D1*
X598273Y1225045D1*
X603982Y1218361D1*
X608575Y1210865D1*
X611939Y1202744D1*
X613991Y1194196D1*
X614681Y1185433D1*
X613991Y1176670D1*
X611939Y1168122D1*
X608575Y1160001D1*
X603982Y1152506D1*
X598273Y1145821D1*
X591589Y1140112D1*
X583922Y1135440D1*
X591589Y1130754D1*
X598273Y1125045D1*
X603982Y1118361D1*
X608575Y1110865D1*
X611939Y1102744D1*
X613991Y1094196D1*
X614681Y1085433D1*
X613991Y1076670D1*
X611939Y1068122D1*
X608575Y1060001D1*
X603982Y1052506D1*
X598273Y1045821D1*
X591589Y1040112D1*
X583922Y1035440D1*
X591589Y1030754D1*
X598273Y1025045D1*
X603982Y1018361D1*
X608575Y1010865D1*
X611939Y1002744D1*
X613991Y994196D1*
X614681Y985433D1*
X613991Y976670D1*
X611939Y968122D1*
X608575Y960001D1*
X603982Y952506D1*
X598273Y945821D1*
X591589Y940112D1*
X583922Y935440D1*
X591589Y930754D1*
X598273Y925045D1*
X603982Y918361D1*
X608575Y910865D1*
X611939Y902744D1*
X613991Y894196D1*
X614681Y885433D1*
X613991Y876670D1*
X611939Y868122D1*
X608575Y860001D1*
X603982Y852506D1*
X598273Y845821D1*
X591589Y840112D1*
X584094Y835519D1*
X575972Y832155D1*
X567425Y830103D1*
X558661Y829413D1*
X549898Y830103D1*
X541350Y832155D1*
X533229Y835519D1*
X525734Y840112D1*
X519050Y845821D1*
X513341Y852506D1*
X508748Y860001D1*
X506008Y866429D1*
X502456Y859245D1*
X498149Y853114D1*
X492990Y847679D1*
X487091Y843059D1*
X480578Y839352D1*
X473594Y836639D1*
X466287Y834978D1*
X458815Y834406D1*
X451341Y834933D1*
X444024Y836550D1*
X437023Y839221D1*
X430488Y842888D1*
X426201Y846070D1*
Y426164D1*
X1283618Y426236D1*
Y591579D1*
X1386461D1*
Y426198D1*
X1483964Y426201D1*
X1484012Y593547D1*
X1486512D1*
X812047Y2311870D2*
X907539D1*
Y2203878D1*
X880053Y2203763D1*
X886260Y2199565D1*
X891814Y2194534D1*
X896602Y2188769D1*
X900529Y2182387D1*
X903517Y2175515D1*
X905506Y2168290D1*
X906455Y2160857D1*
X906304Y2152881D1*
X905072Y2145490D1*
X902810Y2138345D1*
X899563Y2131592D1*
X895396Y2125363D1*
X890392Y2119785D1*
X884651Y2114969D1*
X878288Y2111010D1*
X871431Y2107988D1*
X864216Y2105964D1*
X856787Y2104977D1*
X849294Y2105049D1*
X841885Y2106176D1*
X834710Y2108337D1*
X827911Y2111489D1*
X821625Y2115568D1*
X815977Y2120493D1*
X811080Y2126165D1*
X807032Y2132472D1*
X803914Y2139286D1*
X801788Y2146472D1*
X800698Y2153886D1*
X800663Y2161379D1*
X801686Y2168803D1*
X803746Y2176008D1*
X806802Y2182851D1*
X810792Y2189194D1*
X815637Y2194910D1*
X821240Y2199887D1*
X827245Y2203878D1*
X799547D1*
Y2210372D1*
X763455Y2210374D1*
X763445Y2208996D1*
X762420D1*
X762445Y2135193D1*
X660390D1*
Y2208992D1*
X659390Y2208996D1*
Y2305177D1*
X762205Y2305374D1*
X799558D1*
X799547Y2311870D1*
X812047D1*
X1041969Y2495946D2*
X1133524D1*
Y2391891D1*
X1029469D1*
Y2495946D1*
X1041969D1*
X1130790Y2033143D2*
X1128654Y2026789D1*
X1125291Y2020093D1*
X1120984Y2013961D1*
X1115825Y2008527D1*
X1109925Y2003906D1*
X1103413Y2000200D1*
X1096428Y1997487D1*
X1089121Y1995826D1*
X1081650Y1995254D1*
X1074592Y1995731D1*
X1074595Y1990191D1*
X1121107Y1990201D1*
X1131712Y2000331D1*
X1136942Y2003260D1*
X1142712Y2004887D1*
X1148703Y2005201D1*
X1148673Y2015226D1*
X1130781Y2033157D1*
X1040629Y2015727D2*
X1036617Y2021998D1*
X1033544Y2028832D1*
X1031506Y2036043D1*
X1030546Y2043474D1*
X1030684Y2050966D1*
X1031918Y2058357D1*
X1034221Y2065488D1*
X1037544Y2072204D1*
X1041814Y2078362D1*
X1046940Y2083827D1*
X1051089Y2087249D1*
X1038127Y2099810D1*
X1030729Y2096745D1*
X1022943Y2094876D1*
X1014961Y2094248D1*
X1006978Y2094876D1*
X999192Y2096745D1*
X991795Y2099810D1*
X985189Y2103846D1*
X985201Y2015769D1*
X1040619Y2015728D1*
X1338215Y1820673D2*
X1290168D1*
X1290201Y1608070D1*
X1292110Y1613924D1*
X1294996Y1619586D1*
X1298731Y1624728D1*
X1303225Y1629222D1*
X1308366Y1632957D1*
X1314029Y1635842D1*
X1320073Y1637806D1*
X1326350Y1638800D1*
X1333729Y1638679D1*
X1338222Y1643182D1*
X1338201Y1820636D1*
X1163720Y1881786D2*
X1165171Y1887469D1*
X1168235Y1894867D1*
X1172419Y1901694D1*
X1177619Y1907783D1*
X1183708Y1912983D1*
X1190535Y1917167D1*
X1197932Y1920231D1*
X1205718Y1922100D1*
X1213701Y1922728D1*
X1221683Y1922100D1*
X1229469Y1920231D1*
X1236867Y1917167D1*
X1239202Y1915859D1*
X1238229Y1923673D1*
X1148673D1*
Y1945694D1*
X1145025Y1942958D1*
X1139581Y1940449D1*
X1133702Y1939279D1*
X1074621Y1939201D1*
X1074595Y1913673D1*
X1042710D1*
X1049400Y1908162D1*
X1054355Y1902540D1*
X1058433Y1896254D1*
X1061546Y1889438D1*
X1063698Y1881866D1*
X1066557Y1891228D1*
X1070193Y1898363D1*
X1074899Y1904841D1*
X1080561Y1910502D1*
X1087039Y1915209D1*
X1094173Y1918844D1*
X1101789Y1921318D1*
X1109697Y1922571D1*
X1117704D1*
X1125613Y1921318D1*
X1133228Y1918844D1*
X1140363Y1915209D1*
X1146841Y1910502D1*
X1152502Y1904841D1*
X1157209Y1898363D1*
X1160844Y1891228D1*
X1163318Y1883613D1*
X1163682Y1881786D1*
X1949550Y810791D2*
X1963515D1*
X1963563Y844218D1*
X1957612Y840481D1*
X1950768Y837429D1*
X1943552Y835412D1*
X1936117Y834475D1*
X1928626Y834635D1*
X1921239Y835892D1*
X1914115Y838216D1*
X1907409Y841559D1*
X1901264Y845848D1*
X1895814Y850991D1*
X1891176Y856876D1*
X1887450Y863377D1*
X1884716Y870354D1*
X1883466Y875243D1*
X1881521Y868274D1*
X1878490Y861421D1*
X1874488Y855086D1*
X1868803Y848644D1*
X1876087Y845787D1*
X1881506Y842466D1*
X1886339Y838339D1*
X1889136Y835194D1*
X1921690Y834887D1*
X1927459Y833260D1*
X1932689Y830331D1*
X1941065Y822399D1*
X1946331Y816689D1*
X1949262Y811452D1*
X1062803Y736461D2*
X1073887D1*
X1073862Y760143D1*
X1030957Y803060D1*
X1023594Y802932D1*
X1017317Y803926D1*
X1011273Y805890D1*
X1005610Y808775D1*
X1000469Y812511D1*
X995975Y817004D1*
X992240Y822146D1*
X990452Y825428D1*
X984570Y819204D1*
X983761Y818565D1*
X983768Y793994D1*
X1020965Y756719D1*
X1024296Y751734D1*
X1026370Y746110D1*
X1027075Y740150D1*
X1037803Y736461D1*
X1048421D1*
Y622594D1*
X950303D1*
Y736461D1*
X969200D1*
X937638Y768476D1*
X934709Y773706D1*
X933082Y779475D1*
X932768Y783465D1*
Y818572D1*
X927471Y823697D1*
X924861Y827155D1*
X924862Y736492D1*
X948421Y736460D1*
Y622594D1*
X850303D1*
Y736460D1*
X873887D1*
X873941Y885221D1*
X875110Y891100D1*
X877620Y896544D1*
X881331Y901252D1*
X902334Y921811D1*
X907564Y924740D1*
X913334Y926367D1*
X917323Y926681D1*
X1052821D1*
X1057949Y931978D1*
X1063091Y935713D1*
X1068753Y938598D1*
X1074797Y940562D1*
X1081074Y941556D1*
X1087430D1*
X1093707Y940562D1*
X1099751Y938598D1*
X1105413Y935713D1*
X1110555Y931978D1*
X1115048Y927484D1*
X1118784Y922342D1*
X1121669Y916680D1*
X1123633Y910636D1*
X1124627Y904359D1*
Y898004D1*
X1123633Y891727D1*
X1121669Y885682D1*
X1118784Y880020D1*
X1115048Y874878D1*
X1110555Y870385D1*
X1105413Y866649D1*
X1099751Y863764D1*
X1093707Y861800D1*
X1087430Y860806D1*
X1081074D1*
X1074797Y861800D1*
X1068753Y863764D1*
X1063091Y866649D1*
X1057949Y870385D1*
X1052817Y875688D1*
X1053074Y874104D1*
X1057568Y869610D1*
X1061304Y864468D1*
X1064189Y858806D1*
X1066153Y852762D1*
X1067147Y846485D1*
X1067026Y839106D1*
X1118753Y787277D1*
X1122083Y782293D1*
X1124158Y776669D1*
X1124862Y770717D1*
Y736488D1*
X1148421Y736461D1*
Y622594D1*
X1050303D1*
Y736461D1*
X1062803D1*
X1340967Y853400D2*
X1339690Y845341D1*
X1337169Y837580D1*
X1333464Y830310D1*
X1328668Y823708D1*
X1322898Y817938D1*
X1316297Y813142D1*
X1309026Y809437D1*
X1301265Y806916D1*
X1293206Y805639D1*
X1285046D1*
X1276987Y806916D1*
X1269226Y809437D1*
X1261955Y813142D1*
X1255354Y817938D1*
X1249584Y823708D1*
X1244788Y830310D1*
X1241083Y837580D1*
X1238561Y845341D1*
X1237285Y853400D1*
Y861560D1*
X1238561Y869620D1*
X1241083Y877380D1*
X1244788Y884651D1*
X1249584Y891252D1*
X1255354Y897022D1*
X1261955Y901819D1*
X1269226Y905523D1*
X1276987Y908045D1*
X1285046Y909321D1*
X1293206D1*
X1301265Y908045D1*
X1309026Y905523D1*
X1316297Y901819D1*
X1322898Y897022D1*
X1328668Y891252D1*
X1333464Y884651D1*
X1337169Y877380D1*
X1339690Y869620D1*
X1340967Y861560D1*
Y853400D1*
X868526Y1475448D2*
X867250Y1467388D1*
X864728Y1459628D1*
X861023Y1452357D1*
X856227Y1445755D1*
X850457Y1439985D1*
X843856Y1435189D1*
X836585Y1431485D1*
X828825Y1428963D1*
X820765Y1427687D1*
X812605D1*
X804546Y1428963D1*
X796785Y1431485D1*
X789514Y1435189D1*
X782913Y1439985D1*
X777143Y1445755D1*
X772347Y1452357D1*
X768642Y1459628D1*
X766121Y1467388D1*
X764844Y1475448D1*
Y1483608D1*
X766121Y1491667D1*
X768642Y1499428D1*
X772347Y1506698D1*
X777143Y1513300D1*
X782913Y1519070D1*
X789514Y1523866D1*
X796785Y1527571D1*
X804546Y1530092D1*
X812605Y1531369D1*
X820765D1*
X828825Y1530092D1*
X836585Y1527571D1*
X843856Y1523866D1*
X850457Y1519070D1*
X856227Y1513300D1*
X861023Y1506698D1*
X864728Y1499428D1*
X867250Y1491667D1*
X868526Y1483608D1*
Y1475448D1*
X1884492Y2758228D2*
Y2734405D1*
X1847803D1*
X1856631Y2730899D1*
X1863458Y2726715D1*
X1869546Y2721515D1*
X1874747Y2715426D1*
X1878930Y2708599D1*
X1880787Y2704476D1*
X1883551Y2710865D1*
X1888144Y2718361D1*
X1893853Y2725045D1*
X1900537Y2730754D1*
X1908204Y2735426D1*
X1900537Y2740112D1*
X1893853Y2745821D1*
X1888144Y2752506D1*
X1884499Y2758307D1*
X1880787Y2666390D2*
X1876973Y2658771D1*
X1872266Y2652293D1*
X1866604Y2646631D1*
X1860126Y2641925D1*
X1852992Y2638290D1*
X1845377Y2635815D1*
X1843550Y2635452D1*
X1852992Y2632576D1*
X1860126Y2628941D1*
X1866604Y2624235D1*
X1872266Y2618573D1*
X1876973Y2612095D1*
X1880787Y2604476D1*
X1883551Y2610865D1*
X1888144Y2618361D1*
X1893853Y2625045D1*
X1900537Y2630754D1*
X1908204Y2635426D1*
X1900537Y2640112D1*
X1893853Y2645821D1*
X1888144Y2652506D1*
X1883551Y2660001D1*
X1880811Y2666429D1*
X1880787Y2566390D2*
X1876973Y2558771D1*
X1872266Y2552293D1*
X1866604Y2546631D1*
X1860126Y2541925D1*
X1852507Y2538111D1*
X1858897Y2535347D1*
X1866392Y2530754D1*
X1873076Y2525045D1*
X1878785Y2518361D1*
X1883458Y2510694D1*
X1888144Y2518361D1*
X1893853Y2525045D1*
X1900537Y2530754D1*
X1908204Y2535426D1*
X1900537Y2540112D1*
X1893853Y2545821D1*
X1888144Y2552506D1*
X1883551Y2560001D1*
X1880811Y2566429D1*
X1883458Y2460172D2*
X1878785Y2452506D1*
X1873076Y2445821D1*
X1866392Y2440112D1*
X1858897Y2435519D1*
X1852468Y2432780D1*
X1860126Y2428941D1*
X1866604Y2424235D1*
X1872266Y2418573D1*
X1876973Y2412095D1*
X1880787Y2404476D1*
X1883551Y2410865D1*
X1888144Y2418361D1*
X1893853Y2425045D1*
X1900537Y2430754D1*
X1908204Y2435426D1*
X1900537Y2440112D1*
X1893853Y2445821D1*
X1888144Y2452506D1*
X1883472Y2460172D1*
X1880787Y2366390D2*
X1876973Y2358771D1*
X1872266Y2352293D1*
X1866604Y2346631D1*
X1860126Y2341925D1*
X1852507Y2338111D1*
X1858897Y2335347D1*
X1866392Y2330754D1*
X1873076Y2325045D1*
X1878785Y2318361D1*
X1883458Y2310694D1*
X1888144Y2318361D1*
X1893853Y2325045D1*
X1900537Y2330754D1*
X1908204Y2335426D1*
X1900537Y2340112D1*
X1893853Y2345821D1*
X1888144Y2352506D1*
X1883551Y2360001D1*
X1880811Y2366429D1*
X1883458Y2260172D2*
X1878785Y2252506D1*
X1873076Y2245821D1*
X1866392Y2240112D1*
X1858725Y2235440D1*
X1866392Y2230754D1*
X1873076Y2225045D1*
X1878785Y2218361D1*
X1883458Y2210694D1*
X1888144Y2218361D1*
X1893853Y2225045D1*
X1900537Y2230754D1*
X1908204Y2235426D1*
X1900537Y2240112D1*
X1893853Y2245821D1*
X1888144Y2252506D1*
X1883472Y2260172D1*
X1883458Y2160172D2*
X1878785Y2152506D1*
X1873076Y2145821D1*
X1866392Y2140112D1*
X1858725Y2135440D1*
X1866392Y2130754D1*
X1873076Y2125045D1*
X1878785Y2118361D1*
X1883458Y2110694D1*
X1888144Y2118361D1*
X1893853Y2125045D1*
X1900537Y2130754D1*
X1908204Y2135426D1*
X1900537Y2140112D1*
X1893853Y2145821D1*
X1888144Y2152506D1*
X1883472Y2160172D1*
X1883458Y2060172D2*
X1878785Y2052506D1*
X1873076Y2045821D1*
X1866392Y2040112D1*
X1858897Y2035519D1*
X1852468Y2032780D1*
X1860126Y2028941D1*
X1866604Y2024235D1*
X1872266Y2018573D1*
X1876973Y2012095D1*
X1880787Y2004476D1*
X1883551Y2010865D1*
X1888144Y2018361D1*
X1893853Y2025045D1*
X1900537Y2030754D1*
X1908204Y2035426D1*
X1900537Y2040112D1*
X1893853Y2045821D1*
X1888144Y2052506D1*
X1883472Y2060172D1*
X1880787Y1966390D2*
X1876973Y1958771D1*
X1872266Y1952293D1*
X1866604Y1946631D1*
X1860126Y1941925D1*
X1852992Y1938290D1*
X1845377Y1935815D1*
X1843550Y1935452D1*
X1852992Y1932576D1*
X1860126Y1928941D1*
X1866604Y1924235D1*
X1872266Y1918573D1*
X1876973Y1912095D1*
X1880787Y1904476D1*
X1883551Y1910865D1*
X1888144Y1918361D1*
X1893853Y1925045D1*
X1900537Y1930754D1*
X1908204Y1935426D1*
X1900537Y1940112D1*
X1893853Y1945821D1*
X1888144Y1952506D1*
X1883551Y1960001D1*
X1880811Y1966429D1*
X1880787Y1866390D2*
X1876973Y1858771D1*
X1872266Y1852293D1*
X1866604Y1846631D1*
X1860126Y1841925D1*
X1852992Y1838290D1*
X1845377Y1835815D1*
X1843550Y1835452D1*
X1850188Y1833642D1*
X1857068Y1830673D1*
X1863439Y1826729D1*
X1869164Y1821894D1*
X1874118Y1816273D1*
X1878197Y1809986D1*
X1881310Y1803171D1*
X1883461Y1795598D1*
X1885306Y1802302D1*
X1888296Y1809173D1*
X1892259Y1815532D1*
X1897112Y1821242D1*
X1902748Y1826180D1*
X1909046Y1830239D1*
X1914409Y1832754D1*
X1908032Y1835519D1*
X1900537Y1840112D1*
X1893853Y1845821D1*
X1888144Y1852506D1*
X1883551Y1860001D1*
X1880811Y1866429D1*
X1883462Y1775259D2*
X1881521Y1768274D1*
X1878490Y1761421D1*
X1874488Y1755086D1*
X1869601Y1749406D1*
X1863935Y1744502D1*
X1857612Y1740481D1*
X1852525Y1738111D1*
X1858897Y1735347D1*
X1866392Y1730754D1*
X1873076Y1725045D1*
X1878785Y1718361D1*
X1883458Y1710694D1*
X1888144Y1718361D1*
X1893853Y1725045D1*
X1900537Y1730754D1*
X1908032Y1735347D1*
X1914461Y1738087D1*
X1907409Y1741559D1*
X1901264Y1745848D1*
X1895814Y1750991D1*
X1891176Y1756876D1*
X1887450Y1763377D1*
X1884716Y1770354D1*
X1883466Y1775243D1*
X1883458Y1660172D2*
X1878785Y1652506D1*
X1873076Y1645821D1*
X1866392Y1640112D1*
X1858725Y1635440D1*
X1866392Y1630754D1*
X1873076Y1625045D1*
X1878785Y1618361D1*
X1883458Y1610694D1*
X1888144Y1618361D1*
X1893853Y1625045D1*
X1900537Y1630754D1*
X1908204Y1635426D1*
X1900537Y1640112D1*
X1893853Y1645821D1*
X1888144Y1652506D1*
X1883472Y1660172D1*
X1883458Y1560172D2*
X1878785Y1552506D1*
X1873076Y1545821D1*
X1866392Y1540112D1*
X1858725Y1535440D1*
X1866392Y1530754D1*
X1873076Y1525045D1*
X1878785Y1518361D1*
X1883458Y1510694D1*
X1888144Y1518361D1*
X1893853Y1525045D1*
X1900537Y1530754D1*
X1908204Y1535426D1*
X1900537Y1540112D1*
X1893853Y1545821D1*
X1888144Y1552506D1*
X1883472Y1560172D1*
X1883458Y1460172D2*
X1878785Y1452506D1*
X1873076Y1445821D1*
X1866392Y1440112D1*
X1858725Y1435440D1*
X1866392Y1430754D1*
X1873076Y1425045D1*
X1878785Y1418361D1*
X1883458Y1410694D1*
X1888144Y1418361D1*
X1893853Y1425045D1*
X1900537Y1430754D1*
X1908204Y1435426D1*
X1900537Y1440112D1*
X1893853Y1445821D1*
X1888144Y1452506D1*
X1883472Y1460172D1*
X1883458Y1360172D2*
X1878785Y1352506D1*
X1873076Y1345821D1*
X1866392Y1340112D1*
X1858725Y1335440D1*
X1866392Y1330754D1*
X1873076Y1325045D1*
X1878785Y1318361D1*
X1883458Y1310694D1*
X1888144Y1318361D1*
X1893853Y1325045D1*
X1900537Y1330754D1*
X1908204Y1335426D1*
X1900537Y1340112D1*
X1893853Y1345821D1*
X1888144Y1352506D1*
X1883472Y1360172D1*
X1883458Y1260172D2*
X1878785Y1252506D1*
X1873076Y1245821D1*
X1866392Y1240112D1*
X1858725Y1235440D1*
X1866392Y1230754D1*
X1873076Y1225045D1*
X1878785Y1218361D1*
X1883458Y1210694D1*
X1888144Y1218361D1*
X1893853Y1225045D1*
X1900537Y1230754D1*
X1908204Y1235426D1*
X1900537Y1240112D1*
X1893853Y1245821D1*
X1888144Y1252506D1*
X1883472Y1260172D1*
X1883458Y1160172D2*
X1878785Y1152506D1*
X1873076Y1145821D1*
X1866392Y1140112D1*
X1858725Y1135440D1*
X1866392Y1130754D1*
X1873076Y1125045D1*
X1878785Y1118361D1*
X1883458Y1110694D1*
X1888144Y1118361D1*
X1893853Y1125045D1*
X1900537Y1130754D1*
X1908204Y1135426D1*
X1900537Y1140112D1*
X1893853Y1145821D1*
X1888144Y1152506D1*
X1883472Y1160172D1*
X1808204Y1135440D2*
X1800537Y1140112D1*
X1793853Y1145821D1*
X1788144Y1152506D1*
X1783551Y1160001D1*
X1780187Y1168122D1*
X1778135Y1176670D1*
X1777700Y1180338D1*
X1777701Y1090751D1*
X1778993Y1098511D1*
X1781709Y1106871D1*
X1785700Y1114703D1*
X1790867Y1121815D1*
X1797083Y1128031D1*
X1804194Y1133198D1*
X1808204Y1135426D1*
X1883458Y1060172D2*
X1878785Y1052506D1*
X1873076Y1045821D1*
X1866392Y1040112D1*
X1858725Y1035440D1*
X1866392Y1030754D1*
X1873076Y1025045D1*
X1878785Y1018361D1*
X1883458Y1010694D1*
X1888144Y1018361D1*
X1893853Y1025045D1*
X1900537Y1030754D1*
X1908204Y1035426D1*
X1900537Y1040112D1*
X1893853Y1045821D1*
X1888144Y1052506D1*
X1883472Y1060172D1*
X1883458Y960172D2*
X1878785Y952506D1*
X1873076Y945821D1*
X1866392Y940112D1*
X1858897Y935519D1*
X1852468Y932780D1*
X1859255Y929463D1*
X1865425Y925211D1*
X1870906Y920102D1*
X1875580Y914245D1*
X1879345Y907766D1*
X1882121Y900806D1*
X1883461Y895598D1*
X1885306Y902302D1*
X1888296Y909173D1*
X1892259Y915532D1*
X1897112Y921242D1*
X1902748Y926180D1*
X1909046Y930239D1*
X1914409Y932754D1*
X1908032Y935519D1*
X1900537Y940112D1*
X1893853Y945821D1*
X1888144Y952506D1*
X1883472Y960172D1*
X509689Y2767857D2*
Y2734405D1*
X485871D1*
X491589Y2730754D1*
X498273Y2725045D1*
X503982Y2718361D1*
X508575Y2710865D1*
X511387Y2704640D1*
X514709Y2711356D1*
X518980Y2717514D1*
X524106Y2722979D1*
X529977Y2727635D1*
X536467Y2731381D1*
X543435Y2734136D1*
X546229Y2734914D1*
X538751Y2737366D1*
X531477Y2741072D1*
X524872Y2745871D1*
X519099Y2751644D1*
X514301Y2758249D1*
X510594Y2765523D1*
X509694Y2767963D1*
X511315Y2666429D2*
X508575Y2660001D1*
X503982Y2652506D1*
X498273Y2645821D1*
X491589Y2640112D1*
X483922Y2635440D1*
X491589Y2630754D1*
X498273Y2625045D1*
X503982Y2618361D1*
X508654Y2610694D1*
X513341Y2618361D1*
X519050Y2625045D1*
X525734Y2630754D1*
X533229Y2635347D1*
X539658Y2638087D1*
X532606Y2641559D1*
X526461Y2645848D1*
X521011Y2650991D1*
X516373Y2656876D1*
X512647Y2663377D1*
X511340Y2666375D1*
X508654Y2560172D2*
X503982Y2552506D1*
X498273Y2545821D1*
X491589Y2540112D1*
X483922Y2535440D1*
X491589Y2530754D1*
X498273Y2525045D1*
X503982Y2518361D1*
X508654Y2510694D1*
X513341Y2518361D1*
X519050Y2525045D1*
X525734Y2530754D1*
X533401Y2535426D1*
X525734Y2540112D1*
X519050Y2545821D1*
X513341Y2552506D1*
X508668Y2560172D1*
X508654Y2460172D2*
X503982Y2452506D1*
X498273Y2445821D1*
X491589Y2440112D1*
X483922Y2435440D1*
X491589Y2430754D1*
X498273Y2425045D1*
X503982Y2418361D1*
X508654Y2410694D1*
X513341Y2418361D1*
X519050Y2425045D1*
X525734Y2430754D1*
X533401Y2435426D1*
X525734Y2440112D1*
X519050Y2445821D1*
X513341Y2452506D1*
X508668Y2460172D1*
X508654Y2360172D2*
X503982Y2352506D1*
X498273Y2345821D1*
X491589Y2340112D1*
X483922Y2335440D1*
X491589Y2330754D1*
X498273Y2325045D1*
X503982Y2318361D1*
X508575Y2310865D1*
X511387Y2304640D1*
X514709Y2311356D1*
X518980Y2317514D1*
X524106Y2322979D1*
X529977Y2327635D1*
X536467Y2331381D1*
X539606Y2332754D1*
X533229Y2335519D1*
X525734Y2340112D1*
X519050Y2345821D1*
X513341Y2352506D1*
X508668Y2360172D1*
X511315Y2266429D2*
X508575Y2260001D1*
X503982Y2252506D1*
X498273Y2245821D1*
X491589Y2240112D1*
X483922Y2235440D1*
X491589Y2230754D1*
X498273Y2225045D1*
X503982Y2218361D1*
X508654Y2210694D1*
X513341Y2218361D1*
X519050Y2225045D1*
X525734Y2230754D1*
X533229Y2235347D1*
X539658Y2238087D1*
X532606Y2241559D1*
X526461Y2245848D1*
X521011Y2250991D1*
X516373Y2256876D1*
X512647Y2263377D1*
X511340Y2266375D1*
X508654Y2160172D2*
X503982Y2152506D1*
X498273Y2145821D1*
X491589Y2140112D1*
X483922Y2135440D1*
X491589Y2130754D1*
X498273Y2125045D1*
X503982Y2118361D1*
X508654Y2110694D1*
X513341Y2118361D1*
X519050Y2125045D1*
X525734Y2130754D1*
X533401Y2135426D1*
X525734Y2140112D1*
X519050Y2145821D1*
X513341Y2152506D1*
X508668Y2160172D1*
X508654Y2060172D2*
X503982Y2052506D1*
X498273Y2045821D1*
X491589Y2040112D1*
X483922Y2035440D1*
X491589Y2030754D1*
X498273Y2025045D1*
X503982Y2018361D1*
X508654Y2010694D1*
X513341Y2018361D1*
X519050Y2025045D1*
X525734Y2030754D1*
X533401Y2035426D1*
X525734Y2040112D1*
X519050Y2045821D1*
X513341Y2052506D1*
X508668Y2060172D1*
X508654Y1960172D2*
X503982Y1952506D1*
X498273Y1945821D1*
X491589Y1940112D1*
X483922Y1935440D1*
X491589Y1930754D1*
X498273Y1925045D1*
X503982Y1918361D1*
X508654Y1910694D1*
X513341Y1918361D1*
X519050Y1925045D1*
X525734Y1930754D1*
X533401Y1935426D1*
X525734Y1940112D1*
X519050Y1945821D1*
X513341Y1952506D1*
X508668Y1960172D1*
X508654Y1860172D2*
X503982Y1852506D1*
X498273Y1845821D1*
X491589Y1840112D1*
X483922Y1835440D1*
X491589Y1830754D1*
X498273Y1825045D1*
X503982Y1818361D1*
X508654Y1810694D1*
X513341Y1818361D1*
X519050Y1825045D1*
X525734Y1830754D1*
X533401Y1835426D1*
X525734Y1840112D1*
X519050Y1845821D1*
X513341Y1852506D1*
X508668Y1860172D1*
X508654Y1760172D2*
X503982Y1752506D1*
X498273Y1745821D1*
X491589Y1740112D1*
X483922Y1735440D1*
X491589Y1730754D1*
X498273Y1725045D1*
X503982Y1718361D1*
X508654Y1710694D1*
X513341Y1718361D1*
X519050Y1725045D1*
X525734Y1730754D1*
X533401Y1735426D1*
X525734Y1740112D1*
X519050Y1745821D1*
X513341Y1752506D1*
X508668Y1760172D1*
X508654Y1660172D2*
X503982Y1652506D1*
X498273Y1645821D1*
X491589Y1640112D1*
X483922Y1635440D1*
X491589Y1630754D1*
X498273Y1625045D1*
X503982Y1618361D1*
X508654Y1610694D1*
X513341Y1618361D1*
X519050Y1625045D1*
X525734Y1630754D1*
X533401Y1635426D1*
X525734Y1640112D1*
X519050Y1645821D1*
X513341Y1652506D1*
X508668Y1660172D1*
X508654Y1560172D2*
X503982Y1552506D1*
X498273Y1545821D1*
X491589Y1540112D1*
X483922Y1535440D1*
X491589Y1530754D1*
X498273Y1525045D1*
X503982Y1518361D1*
X508654Y1510694D1*
X513341Y1518361D1*
X519050Y1525045D1*
X525734Y1530754D1*
X533401Y1535426D1*
X525734Y1540112D1*
X519050Y1545821D1*
X513341Y1552506D1*
X508668Y1560172D1*
X508654Y1460172D2*
X503982Y1452506D1*
X498273Y1445821D1*
X491589Y1440112D1*
X483922Y1435440D1*
X491589Y1430754D1*
X498273Y1425045D1*
X503982Y1418361D1*
X508654Y1410694D1*
X513341Y1418361D1*
X519050Y1425045D1*
X525734Y1430754D1*
X533401Y1435426D1*
X525734Y1440112D1*
X519050Y1445821D1*
X513341Y1452506D1*
X508668Y1460172D1*
X508654Y1360172D2*
X503982Y1352506D1*
X498273Y1345821D1*
X491589Y1340112D1*
X483922Y1335440D1*
X491589Y1330754D1*
X498273Y1325045D1*
X503982Y1318361D1*
X508654Y1310694D1*
X513341Y1318361D1*
X519050Y1325045D1*
X525734Y1330754D1*
X533401Y1335426D1*
X525734Y1340112D1*
X519050Y1345821D1*
X513341Y1352506D1*
X508668Y1360172D1*
X508654Y1260172D2*
X503982Y1252506D1*
X498273Y1245821D1*
X491589Y1240112D1*
X483922Y1235440D1*
X491589Y1230754D1*
X498273Y1225045D1*
X503982Y1218361D1*
X508654Y1210694D1*
X513341Y1218361D1*
X519050Y1225045D1*
X525734Y1230754D1*
X533401Y1235426D1*
X525734Y1240112D1*
X519050Y1245821D1*
X513341Y1252506D1*
X508668Y1260172D1*
X508654Y1160172D2*
X503982Y1152506D1*
X498273Y1145821D1*
X491589Y1140112D1*
X483922Y1135440D1*
X491589Y1130754D1*
X498273Y1125045D1*
X503982Y1118361D1*
X508654Y1110694D1*
X513341Y1118361D1*
X519050Y1125045D1*
X525734Y1130754D1*
X533401Y1135426D1*
X525734Y1140112D1*
X519050Y1145821D1*
X513341Y1152506D1*
X508668Y1160172D1*
X508654Y1060172D2*
X503982Y1052506D1*
X498273Y1045821D1*
X491589Y1040112D1*
X483922Y1035440D1*
X491589Y1030754D1*
X498273Y1025045D1*
X503982Y1018361D1*
X508654Y1010694D1*
X513341Y1018361D1*
X519050Y1025045D1*
X525734Y1030754D1*
X533401Y1035426D1*
X525734Y1040112D1*
X519050Y1045821D1*
X513341Y1052506D1*
X508668Y1060172D1*
X508654Y960172D2*
X503982Y952506D1*
X498273Y945821D1*
X491589Y940112D1*
X484094Y935519D1*
X477665Y932780D1*
X484452Y929463D1*
X490622Y925211D1*
X496103Y920102D1*
X500777Y914245D1*
X504542Y907766D1*
X505982Y904486D1*
X508748Y910865D1*
X513341Y918361D1*
X519050Y925045D1*
X525734Y930754D1*
X533401Y935426D1*
X525734Y940112D1*
X519050Y945821D1*
X513341Y952506D1*
X508668Y960172D1*
X1528030Y2188196D2*
X1533553Y2182073D1*
X1536873Y2176654D1*
X1539305Y2170783D1*
X1540355Y2166784D1*
X1548689Y2158302D1*
X1551825Y2153985D1*
X1554247Y2149232D1*
X1555895Y2144158D1*
X1556730Y2138888D1*
Y2133553D1*
X1555895Y2128283D1*
X1554247Y2123209D1*
X1551825Y2118455D1*
X1548689Y2114139D1*
X1546876Y2112179D1*
X1535433Y593498D2*
D23*
Y492126D1*
X1484061D2*
X1586806D1*
X1335039Y591530D2*
Y490157D1*
X1283667D2*
X1386412D1*
X853543Y2157874D2*
Y2104927D1*
X800596Y2157874D2*
X906491D1*
X711417Y2182283D2*
Y2135242D1*
X660439Y2182283D2*
X762396D1*
X1670079Y1743105D2*
Y1696063D1*
X1619100D2*
X1721058D1*
X1562598Y891339D2*
Y844297D1*
X1511620Y891339D2*
X1613577D1*
X1081496Y2046281D2*
Y1995302D1*
X1030517Y2046281D2*
X1081496D1*
X1013701Y1871701D2*
Y1820722D1*
X962722Y1871701D2*
X1064680D1*
X900000Y2820664D2*
Y2600596D1*
X789966Y2710630D2*
X1010034D1*
X714961Y2702554D2*
Y2482486D1*
Y2592520D2*
X824994D1*
X1875722Y523898D2*
X1926701D1*
X899362Y1732475D2*
Y1618706D1*
X850352Y1675591D2*
X899362D1*
X1598063Y1251372D2*
Y1206299D1*
X1833465Y2836412D2*
Y2785433D1*
X1782486D2*
X1833465D1*
Y1836412D2*
Y1785433D1*
X1782486D2*
X1884443D1*
X1882486D2*
X1933465D1*
X1833465Y885433D2*
Y834454D1*
X1782486Y885433D2*
X1884443D1*
X1933465D2*
Y834454D1*
X1882486Y885433D2*
X1933465D1*
X458661Y2836412D2*
Y2785433D1*
X558661Y2685433D2*
X609640D1*
X558661Y2285433D2*
X609640D1*
X458661Y885433D2*
Y834454D1*
D25*
X1535433Y492126D3*
X1335039Y490157D3*
D29*
X853543Y2257874D3*
D30*
Y2157874D3*
D31*
X711417Y2257087D3*
Y2182283D3*
X1670079Y1621260D3*
Y1696063D3*
X1562598Y966142D3*
Y891339D3*
D32*
X1081496Y2443919D3*
D33*
Y2046281D3*
D32*
X1314961Y2145276D3*
D33*
X1214961D3*
X1114961D3*
X1014961D3*
D32*
X1313701Y1871701D3*
D33*
X1213701D3*
X1113701D3*
X1013701D3*
D35*
X900000Y2710630D3*
D36*
Y2474409D3*
D35*
X714961Y2592520D3*
D32*
X1839701Y449701D3*
D33*
X1939701D3*
D32*
X1199701Y1974701D3*
D33*
X1299701D3*
D31*
X1926701Y763701D3*
Y688898D3*
D39*
X1545276Y2253543D3*
X1478346D3*
X1473228Y2381496D3*
X1540157D3*
D31*
X1926701Y598701D3*
Y523898D3*
D34*
X952701Y1964701D3*
X1027504D3*
D43*
X899362Y1675591D3*
X999362D3*
X1099362D3*
Y679528D3*
X999362D3*
X899362D3*
D46*
X1560661Y1206299D3*
X1598063D3*
X1635465D3*
Y1115748D3*
X1598063D3*
X1560661D3*
D32*
X1833465Y2785433D3*
D33*
X1933465D3*
X1833465Y2685433D3*
X1933465D3*
X1833465Y2585433D3*
X1933465D3*
X1833465Y2485433D3*
X1933465D3*
X1833465Y2385433D3*
X1933465D3*
X1833465Y2285433D3*
X1933465D3*
X1833465Y2185433D3*
X1933465D3*
X1833465Y2085433D3*
X1933465D3*
X1833465Y1985433D3*
X1933465D3*
X1833465Y1885433D3*
X1933465D3*
X1833465Y1785433D3*
X1933465D3*
X1833465Y1685433D3*
X1933465D3*
X1833465Y1585433D3*
X1933465D3*
X1833465Y1485433D3*
X1933465D3*
X1833465Y1385433D3*
X1933465D3*
X1833465Y1285433D3*
X1933465D3*
X1833465Y1185433D3*
X1933465D3*
X1833465Y1085433D3*
X1933465D3*
X1833465Y985433D3*
X1933465D3*
X1833465Y885433D3*
X1933465D3*
D32*
X458661Y2785433D3*
D33*
X558661D3*
X458661Y2685433D3*
X558661D3*
X458661Y2585433D3*
X558661D3*
X458661Y2485433D3*
X558661D3*
X458661Y2385433D3*
X558661D3*
X458661Y2285433D3*
X558661D3*
X458661Y2185433D3*
X558661D3*
X458661Y2085433D3*
X558661D3*
X458661Y1985433D3*
X558661D3*
X458661Y1885433D3*
X558661D3*
X458661Y1785433D3*
X558661D3*
X458661Y1685433D3*
X558661D3*
X458661Y1585433D3*
X558661D3*
X458661Y1485433D3*
X558661D3*
X458661Y1385433D3*
X558661D3*
X458661Y1285433D3*
X558661D3*
X458661Y1185433D3*
X558661D3*
X458661Y1085433D3*
X558661D3*
X458661Y985433D3*
X558661D3*
X458661Y885433D3*
X558661D3*
M02*
