G04 DipTrace 3.0.0.1*
G04 BottomSilk.gbr*
%MOIN*%
G04 #@! TF.FileFunction,Legend,Bot*
G04 #@! TF.Part,Single*
%ADD10C,0.009843*%
%ADD44O,0.023625X0.025977*%
%ADD45O,0.000394X0.016535*%
%ADD105C,0.00772*%
%ADD106C,0.010807*%
%FSLAX26Y26*%
G04*
G70*
G90*
G75*
G01*
G04 BotSilk*
%LPD*%
X1568252Y406552D2*
D10*
X1500260D1*
Y575551D1*
X1568252D1*
Y406552D1*
X1367252Y404551D2*
X1300252D1*
Y574559D1*
X1367252D1*
Y404551D1*
X736988Y2298446D2*
X685846D1*
X1644508Y1579900D2*
X1695650D1*
X1588169Y1007501D2*
X1537028D1*
X1126772Y2345572D2*
X1036220D1*
Y2144627D1*
X1126772Y2312188D2*
X1036220D1*
X1126772Y2144627D2*
X1036220D1*
X1126772Y2345572D2*
Y2144627D1*
X711173Y624016D2*
X1484402D1*
Y1826378D1*
X711173D1*
Y624016D1*
X1655146Y1115358D2*
X1679953D1*
X1679559Y1205509D1*
X1653964D1*
X1540586Y1206303D2*
X1515780D1*
X1516174Y1116135D1*
X1541768D1*
D44*
X1529168Y1237398D3*
D45*
X1529751Y1249213D3*
X620605Y2234101D2*
D105*
X615852Y2236478D1*
X611043Y2241286D1*
X608667Y2246039D1*
Y2255601D1*
X611043Y2260409D1*
X615852Y2265162D1*
X620605Y2267594D1*
X627790Y2269971D1*
X639783D1*
X646913Y2267594D1*
X651722Y2265162D1*
X656475Y2260409D1*
X658907Y2255601D1*
Y2246039D1*
X656475Y2241286D1*
X651722Y2236477D1*
X646913Y2234101D1*
X620660Y2216230D2*
X618284D1*
X613475Y2213853D1*
X611099Y2211477D1*
X608722Y2206668D1*
Y2197107D1*
X611099Y2192353D1*
X613475Y2189977D1*
X618284Y2187545D1*
X623037D1*
X627845Y2189977D1*
X634975Y2194730D1*
X658907Y2218662D1*
Y2185168D1*
X1579266Y1657308D2*
X1574513Y1659685D1*
X1569705Y1664493D1*
X1567328Y1669247D1*
Y1678808D1*
X1569705Y1683617D1*
X1574513Y1688370D1*
X1579266Y1690802D1*
X1586451Y1693178D1*
X1598445D1*
X1605575Y1690802D1*
X1610383Y1688370D1*
X1615136Y1683617D1*
X1617568Y1678808D1*
Y1669246D1*
X1615136Y1664493D1*
X1610383Y1659685D1*
X1605575Y1657308D1*
X1617568Y1632307D2*
X1567383Y1608376D1*
Y1641869D1*
X1569102Y836851D2*
X1571479Y841604D1*
X1576287Y846413D1*
X1581040Y848789D1*
X1590602D1*
X1595410Y846413D1*
X1600164Y841604D1*
X1602595Y836851D1*
X1604972Y829666D1*
Y817673D1*
X1602595Y810543D1*
X1600164Y805734D1*
X1595410Y800981D1*
X1590602Y798549D1*
X1581040D1*
X1576287Y800981D1*
X1571479Y805734D1*
X1569102Y810543D1*
X1541725Y848734D2*
X1548854Y846357D1*
X1551286Y841604D1*
Y836796D1*
X1548854Y832043D1*
X1544101Y829611D1*
X1534540Y827234D1*
X1527355Y824858D1*
X1522601Y820049D1*
X1520225Y815296D1*
Y808111D1*
X1522601Y803358D1*
X1524978Y800926D1*
X1532163Y798549D1*
X1541725D1*
X1548854Y800926D1*
X1551286Y803358D1*
X1553663Y808111D1*
Y815296D1*
X1551286Y820049D1*
X1546478Y824858D1*
X1539348Y827234D1*
X1529786Y829611D1*
X1524978Y832043D1*
X1522601Y836796D1*
Y841604D1*
X1524978Y846357D1*
X1532163Y848734D1*
X1541725D1*
X962997Y2275563D2*
X1013237D1*
Y2258816D1*
X1010806Y2251631D1*
X1006052Y2246823D1*
X1001244Y2244446D1*
X994114Y2242070D1*
X982121D1*
X974936Y2244446D1*
X970182Y2246823D1*
X965374Y2251631D1*
X962997Y2258816D1*
Y2275563D1*
X972614Y2226630D2*
X970182Y2221822D1*
X963053Y2214637D1*
X1013237D1*
X1847882Y767512D2*
Y746012D1*
X1845450Y738827D1*
X1843073Y736395D1*
X1838320Y734019D1*
X1833512D1*
X1828759Y736396D1*
X1826327Y738827D1*
X1823950Y746012D1*
Y767512D1*
X1874190D1*
X1847882Y750766D2*
X1874190Y734019D1*
X1824005Y713771D2*
Y687518D1*
X1843129Y701833D1*
Y694648D1*
X1845505Y689895D1*
X1847882Y687518D1*
X1855067Y685086D1*
X1859820D1*
X1867005Y687518D1*
X1871814Y692271D1*
X1874190Y699456D1*
Y706641D1*
X1871814Y713771D1*
X1869382Y716148D1*
X1864629Y718580D1*
X1553024Y2322520D2*
X1531524D1*
X1524339Y2324952D1*
X1521907Y2327328D1*
X1519531Y2332081D1*
Y2336890D1*
X1521907Y2341643D1*
X1524339Y2344075D1*
X1531524Y2346451D1*
X1553024D1*
Y2296211D1*
X1536277Y2322520D2*
X1519531Y2296211D1*
X1475407Y2346396D2*
X1499283D1*
X1501660Y2324896D1*
X1499283Y2327273D1*
X1492098Y2329705D1*
X1484968D1*
X1477783Y2327273D1*
X1472975Y2322520D1*
X1470598Y2315335D1*
Y2310581D1*
X1472975Y2303396D1*
X1477783Y2298588D1*
X1484968Y2296211D1*
X1492098D1*
X1499283Y2298588D1*
X1501660Y2301020D1*
X1504091Y2305773D1*
X1546690Y2450472D2*
X1525190D1*
X1518005Y2452904D1*
X1515573Y2455281D1*
X1513197Y2460034D1*
Y2464843D1*
X1515573Y2469596D1*
X1518005Y2472028D1*
X1525190Y2474404D1*
X1546690D1*
Y2424164D1*
X1529943Y2450472D2*
X1513197Y2424164D1*
X1469072Y2467219D2*
X1471449Y2471972D1*
X1478634Y2474349D1*
X1483387D1*
X1490572Y2471972D1*
X1495381Y2464787D1*
X1497757Y2452849D1*
Y2440911D1*
X1495381Y2431349D1*
X1490572Y2426541D1*
X1483387Y2424164D1*
X1481011D1*
X1473881Y2426541D1*
X1469072Y2431349D1*
X1466696Y2438534D1*
Y2440911D1*
X1469072Y2448096D1*
X1473881Y2452849D1*
X1481011Y2455226D1*
X1483387D1*
X1490572Y2452849D1*
X1495381Y2448096D1*
X1497757Y2440911D1*
X1847882Y602512D2*
Y581012D1*
X1845450Y573827D1*
X1843073Y571395D1*
X1838320Y569019D1*
X1833512D1*
X1828759Y571396D1*
X1826327Y573827D1*
X1823950Y581012D1*
Y602512D1*
X1874190D1*
X1847882Y585766D2*
X1874190Y569019D1*
Y544018D2*
X1824005Y520086D1*
Y553580D1*
X1031288Y2043520D2*
X1009788D1*
X1002603Y2045952D1*
X1000171Y2048328D1*
X997794Y2053081D1*
Y2057890D1*
X1000171Y2062643D1*
X1002603Y2065075D1*
X1009788Y2067451D1*
X1031288D1*
Y2017211D1*
X1014541Y2043520D2*
X997794Y2017211D1*
X970417Y2067396D2*
X977547Y2065020D1*
X979979Y2060266D1*
Y2055458D1*
X977547Y2050705D1*
X972793Y2048273D1*
X963232Y2045896D1*
X956047Y2043520D1*
X951294Y2038711D1*
X948917Y2033958D1*
Y2026773D1*
X951294Y2022020D1*
X953670Y2019588D1*
X960855Y2017211D1*
X970417D1*
X977547Y2019588D1*
X979979Y2022020D1*
X982355Y2026773D1*
Y2033958D1*
X979979Y2038711D1*
X975170Y2043520D1*
X968040Y2045896D1*
X958479Y2048273D1*
X953670Y2050705D1*
X951294Y2055458D1*
Y2060266D1*
X953670Y2065020D1*
X960855Y2067396D1*
X970417D1*
X1139000Y607057D2*
Y571187D1*
X1136624Y564002D1*
X1131815Y559249D1*
X1124630Y556817D1*
X1119877D1*
X1112692Y559249D1*
X1107884Y564002D1*
X1105507Y571187D1*
Y607057D1*
X1087636Y595064D2*
Y597440D1*
X1085259Y602249D1*
X1082883Y604625D1*
X1078074Y607002D1*
X1068513D1*
X1063759Y604625D1*
X1061383Y602249D1*
X1058951Y597440D1*
Y592687D1*
X1061383Y587879D1*
X1066136Y580749D1*
X1090068Y556817D1*
X1056574D1*
X1639079Y1330703D2*
Y1294833D1*
X1636703Y1287648D1*
X1631894Y1282895D1*
X1624709Y1280463D1*
X1619956D1*
X1612771Y1282895D1*
X1607962Y1287648D1*
X1605586Y1294833D1*
Y1330703D1*
X1585338Y1330648D2*
X1559085D1*
X1573400Y1311525D1*
X1566215D1*
X1561462Y1309148D1*
X1559085Y1306772D1*
X1556653Y1299587D1*
Y1294833D1*
X1559085Y1287648D1*
X1563838Y1282840D1*
X1571023Y1280463D1*
X1578208D1*
X1585338Y1282840D1*
X1587715Y1285272D1*
X1590147Y1290025D1*
X874223Y505454D2*
D106*
X844123D1*
X834064Y508859D1*
X830660Y512186D1*
X827332Y518841D1*
Y525572D1*
X830660Y532227D1*
X834064Y535631D1*
X844123Y538959D1*
X874223D1*
Y468623D1*
X850778Y505454D2*
X827332Y468623D1*
X805717Y495395D2*
X765559D1*
Y502127D1*
X768886Y508859D1*
X772213Y512186D1*
X778945Y515513D1*
X789004D1*
X795658Y512186D1*
X802390Y505454D1*
X805717Y495395D1*
Y488741D1*
X802390Y478682D1*
X795658Y472027D1*
X789004Y468623D1*
X778945D1*
X772213Y472027D1*
X765559Y478682D1*
X743944Y515513D2*
X723825Y468623D1*
X703785Y515513D1*
X594010Y538881D2*
X604069Y535554D1*
X610801Y525495D1*
X614128Y508781D1*
Y498722D1*
X610801Y482009D1*
X604069Y471950D1*
X594010Y468623D1*
X587356D1*
X577297Y471950D1*
X570642Y482009D1*
X567238Y498722D1*
Y508781D1*
X570642Y525495D1*
X577297Y535554D1*
X587356Y538881D1*
X594010D1*
X570642Y525495D2*
X610801Y482009D1*
X542296Y475354D2*
X545623Y471950D1*
X542296Y468623D1*
X538891Y471950D1*
X542296Y475354D1*
X477117Y538881D2*
X510544D1*
X513871Y508781D1*
X510544Y512109D1*
X500485Y515513D1*
X490503D1*
X480444Y512109D1*
X473713Y505454D1*
X470385Y495395D1*
Y488741D1*
X473713Y478682D1*
X480444Y471950D1*
X490503Y468623D1*
X500485D1*
X510544Y471950D1*
X513871Y475354D1*
X517276Y482009D1*
M02*
