M48
INCH
T01C0.019
T02C0.0354
T03C0.0472
T04C0.126
T05C0.1378
%
T01
X+017437Y+010161
X+017780Y+010406
X+017446Y+009477
X+018577Y+008097
X+018617Y+007027
X+018507Y+006267
X+016142Y+005906
X+016142Y+006693
X+016142Y+007677
X+015157Y+008071
X+014370Y+008071
X+013583Y+008071
X+013780Y+006693
X+013780Y+005906
X+014961Y+005906
X+014961Y+006693
X+016142Y+004921
X+012598Y+004921
X+012598Y+005906
X+012598Y+006693
X+010268Y+008433
X+009583Y+008500
X+010843Y+009012
X+012803Y+010736
X+013232Y+011138
X+012323Y+011587
X+012882Y+012209
X+014987Y+011607
X+014987Y+009687
X+016117Y+014847
X+016201Y+015362
X+015457Y+015457
X+013862Y+015941
X+013607Y+015467
X+013295Y+015984
X+011406Y+015831
X+010397Y+017867
X+008465Y+018110
X+008465Y+017323
X+007874Y+016929
X+007874Y+016142
X+007874Y+015354
X+006693Y+015354
X+006693Y+016142
X+006693Y+016929
X+006299Y+017717
X+006299Y+018504
X+006890Y+018898
X+007874Y+018701
X+012387Y+020757
X+013897Y+021057
X+014297Y+021587
X+015008Y+021583
X+014945Y+021177
X+014147Y+019767
X+016547Y+019767
X+015837Y+017247
X+013843Y+023819
X+014587Y+024337
X+006827Y+008337
T02
X+008535Y+022579
X+008535Y+021579
X+010150Y+021453
X+011150Y+021453
X+012150Y+021453
X+013150Y+021453
X+012997Y+019747
X+011997Y+019747
X+012137Y+018717
X+013137Y+018717
X+011137Y+018717
X+010137Y+018717
X+010815Y+020463
X+010815Y+024439
X+005587Y+024854
X+005587Y+025854
X+005587Y+026854
X+005587Y+027854
X+004587Y+027854
X+004587Y+026854
X+004587Y+025854
X+004587Y+024854
X+004587Y+023854
X+004587Y+022854
X+005587Y+022854
X+005587Y+023854
X+005587Y+021854
X+004587Y+021854
X+004587Y+020854
X+005587Y+020854
X+005587Y+019854
X+005587Y+018854
X+004587Y+018854
X+004587Y+019854
X+004587Y+017854
X+004587Y+016854
X+005587Y+016854
X+005587Y+017854
X+005587Y+015854
X+004587Y+015854
X+004587Y+014854
X+005587Y+014854
X+005587Y+013854
X+005587Y+012854
X+004587Y+012854
X+004587Y+013854
X+004587Y+011854
X+004587Y+010854
X+005587Y+010854
X+005587Y+011854
X+005587Y+009854
X+005587Y+008854
X+004587Y+008854
X+004587Y+009854
X+018335Y+009854
X+018335Y+008854
X+019335Y+008854
X+019335Y+009854
X+019335Y+010854
X+019335Y+011854
X+019335Y+012854
X+019335Y+013854
X+018335Y+013854
X+018335Y+012854
X+018335Y+011854
X+018335Y+010854
X+018335Y+014854
X+018335Y+015854
X+018335Y+016854
X+018335Y+017854
X+018335Y+018854
X+018335Y+019854
X+019335Y+019854
X+019335Y+018854
X+019335Y+017854
X+019335Y+016854
X+019335Y+015854
X+019335Y+014854
X+019335Y+020854
X+018335Y+020854
X+018335Y+021854
X+018335Y+022854
X+018335Y+023854
X+018335Y+024854
X+019335Y+024854
X+019335Y+025854
X+018335Y+025854
X+018335Y+026854
X+018335Y+027854
X+019335Y+027854
X+019335Y+026854
X+019335Y+023854
X+019335Y+022854
X+019335Y+021854
X+019397Y+004497
X+018397Y+004497
T03
X+012891Y+008575
X+008167Y+014795
T04
X+009000Y+027106
X+007150Y+025925
T05
X+009000Y+024744
T00
M30
