G04 DipTrace 3.0.0.1*
G04 Top.gbr*
%MOIN*%
G04 #@! TF.FileFunction,Copper,L1,Top*
G04 #@! TF.Part,Single*
G04 #@! TA.AperFunction,Conductor*
%ADD14C,0.008*%
%ADD15C,0.015*%
%ADD16C,0.01*%
%ADD17C,0.03937*%
%ADD18C,0.03*%
%ADD19C,0.023622*%
%ADD20C,0.029528*%
G04 #@! TA.AperFunction,CopperBalancing*
%ADD21C,0.025*%
G04 #@! TA.AperFunction,Conductor*
%ADD22C,0.05*%
G04 #@! TA.AperFunction,CopperBalancing*
%ADD23C,0.012992*%
%ADD25R,0.059843X0.159843*%
%ADD26R,0.033465X0.159843*%
%ADD27R,0.041339X0.043307*%
%ADD28R,0.043307X0.088583*%
G04 #@! TA.AperFunction,ComponentPad*
%ADD29R,0.062992X0.062992*%
%ADD30C,0.062992*%
%ADD31R,0.059055X0.051181*%
G04 #@! TA.AperFunction,ComponentPad*
%ADD32R,0.059055X0.059055*%
%ADD33C,0.059055*%
%ADD34R,0.051181X0.059055*%
G04 #@! TA.AperFunction,ComponentPad*
%ADD35C,0.177165*%
%ADD36C,0.19685*%
%ADD38R,0.025591X0.041339*%
%ADD39R,0.043307X0.03937*%
%ADD41O,0.062992X0.023622*%
%ADD42O,0.023622X0.062992*%
%ADD47R,0.023622X0.07874*%
%ADD49R,0.043307X0.023622*%
%ADD50R,0.03937X0.137795*%
%ADD51R,0.059055X0.133858*%
G04 #@! TA.AperFunction,ViaPad*
%ADD52C,0.038*%
%FSLAX26Y26*%
G04*
G70*
G90*
G75*
G01*
G04 Top*
%LPD*%
X1113701Y1871701D2*
D14*
X1155701Y1829701D1*
Y1816900D1*
Y1744148D1*
X1169165Y1730684D1*
Y1721197D1*
X1157480Y1709512D1*
Y1674016D1*
X1213701Y1871701D2*
X1171701Y1829701D1*
Y1816900D1*
Y1750776D1*
X1185165Y1737311D1*
Y1721197D1*
X1196850Y1709512D1*
Y1674016D1*
X525197Y488976D2*
D15*
Y448031D1*
X533858Y439370D1*
X703937D1*
X712205Y447638D1*
Y484252D1*
X708661Y487795D1*
X1496063Y590551D2*
D16*
Y571063D1*
X1493701Y568701D1*
Y493701D1*
Y413701D1*
X1534252Y490157D2*
X1532244D1*
X1528701Y493701D1*
X1493701D1*
X1377953Y590551D2*
Y567717D1*
X1375984Y565748D1*
Y493249D1*
Y415617D1*
X1334646Y490551D2*
X1373286D1*
X1375984Y493249D1*
X724409Y886614D2*
Y875409D1*
X682701Y833701D1*
X1431890Y2046850D2*
Y2063512D1*
X1389701Y2105701D1*
X1850701Y626701D2*
D15*
X1785299D1*
X1781976Y630024D1*
X558661Y2685433D2*
D17*
X583433D1*
X646701Y2748701D1*
X743701D1*
X778701Y2713701D1*
X896929D1*
X900000Y2710630D1*
X558661Y2685433D2*
X458661Y2785433D1*
X1519701Y2755504D2*
D18*
X1657102D1*
X1660252Y2752354D1*
X1800386D1*
X1833465Y2785433D1*
X1244551Y2648047D2*
Y2740551D1*
X1259504Y2755504D1*
X1519701D1*
X1833465Y1785433D2*
X1933465D1*
X1534252Y490157D2*
D16*
X1612205D1*
X1614173Y492126D1*
X1334646Y490551D2*
X1261417D1*
X1259843Y492126D1*
Y590551D1*
Y669291D2*
Y590551D1*
Y669291D2*
X1377953D1*
X1614173Y590551D2*
Y669291D1*
X1496063D1*
X1614173D2*
Y767717D1*
X1669291Y886614D2*
D19*
Y925984D1*
D15*
Y965354D1*
X1933465Y885433D2*
D20*
X1833465D1*
X853543Y2157874D2*
Y2125858D1*
X929701Y2049701D1*
X1078076D1*
X1081496Y2046281D1*
X1013701Y1871701D2*
Y1905701D1*
X1080701Y1972701D1*
Y2045486D1*
X1081496Y2046281D1*
X558661Y2285433D2*
X633969D1*
X760701Y2158701D1*
X852717D1*
X853543Y2157874D1*
X1583701Y1724701D2*
Y1689701D1*
X1565701Y1671701D1*
X1514126D1*
D19*
X1511811Y1674016D1*
X1319685Y2381890D2*
D14*
X1384252D1*
X1457480Y2367323D2*
Y2432480D1*
X1458701Y2433701D1*
X1319685Y2456693D2*
D19*
Y2483504D1*
D18*
Y2644441D1*
X1323291Y2648047D1*
X1519701Y2680701D2*
X1355945D1*
X1323291Y2648047D1*
X1519701Y2680701D2*
X1657102D1*
X1660252Y2677551D1*
X1669291Y1083465D2*
D19*
Y1044094D1*
Y1004724D2*
Y1028568D1*
Y1044094D1*
X1743701Y1016142D2*
D21*
X1711417D1*
X1703150Y1024409D1*
X1673450D1*
X1669291Y1028568D1*
X1669685Y1043701D2*
X1715748D1*
X1718898Y1040551D1*
X1777953D1*
X1500787Y2158268D2*
X1494488Y2151969D1*
Y2117717D1*
X1743701Y1016142D2*
X1753543D1*
X1777953Y1040551D1*
X1500787Y2158268D2*
X1524434Y2134621D1*
X1507530Y2117717D1*
X1494488D1*
X1660252Y2677551D2*
D18*
Y2361252D1*
X1601701Y2302701D1*
Y2156701D1*
X1579621Y2134621D1*
X1524434D1*
X1213386Y2381890D2*
D14*
Y2321260D1*
X1235039Y2299606D1*
Y2258787D1*
X1235827Y2258000D1*
X1429701Y2158701D2*
X1443701D1*
X1463701Y2178701D1*
Y2213701D1*
X1466929Y2216929D1*
X1669291Y1516535D2*
X1639764D1*
X1620079Y1536220D1*
X1314961Y2145276D2*
Y2116929D1*
X1377701Y2054189D1*
Y1767575D1*
X1401181Y1744094D1*
X1456299D1*
X1470866Y1729528D1*
Y1675591D1*
X1472441Y1674016D1*
X1214961Y2145276D2*
X1220079D1*
X1357701Y2007654D1*
Y1756472D1*
X1389764Y1724409D1*
X1425984D1*
X1433465Y1716929D1*
Y1674409D1*
X1433071Y1674016D1*
X1386220Y1594094D2*
Y1623228D1*
X1392520Y1629528D1*
Y1672835D1*
X1393701Y1674016D1*
X1329528Y1598425D2*
Y1601969D1*
X1355512Y1627953D1*
Y1672835D1*
X1354331Y1674016D1*
X1236220D2*
Y1771220D1*
X1266701Y1801701D1*
Y1834701D1*
X1276701Y1844701D1*
X1286701D1*
X1313701Y1871701D1*
X1731890Y1834252D2*
Y1762992D1*
X1746457Y1748425D1*
Y1157480D1*
X1712992Y1124016D1*
X1670472D1*
X1669291Y1122835D1*
X1532835D1*
X1498701Y1088701D1*
Y968701D1*
X1433071Y729134D2*
D19*
Y682638D1*
D18*
Y491732D1*
X1434252Y490551D1*
X724409Y1516535D2*
D19*
Y1543110D1*
D20*
Y1644488D1*
X738189Y1658268D1*
Y1734252D1*
X737795Y1734646D1*
X711024Y632677D2*
D14*
Y812205D1*
X741339Y842520D1*
X756299D1*
X778346Y864567D1*
Y918504D1*
X769685Y927165D1*
X725591D1*
X724409Y925984D1*
Y965354D2*
X695276D1*
X644094Y914173D1*
Y719291D1*
X618110Y693307D1*
X544488D1*
X525591Y674409D1*
Y634646D1*
X636220Y632677D2*
Y490157D1*
X633858Y487795D1*
X450787Y634646D2*
Y489370D1*
X450394Y488976D1*
X900000Y2474409D2*
D22*
X998031D1*
X1020472Y2451969D1*
X1073446D1*
X1081496Y2443919D1*
Y2456693D1*
X1213386D1*
X1081496Y2443919D2*
Y2756906D1*
X970291Y2868110D1*
X641339D1*
X558661Y2785433D1*
X853543Y2257874D2*
Y2427953D1*
X900000Y2474409D1*
X1541732Y2216929D2*
D18*
Y2278701D1*
X1423701D1*
X1353701Y2208701D1*
X953701D1*
X908701Y2253701D1*
X857717D1*
X853543Y2257874D1*
X1431890Y1834252D2*
D14*
Y1928740D1*
X1445669Y1942520D1*
X1701575D1*
X1731890Y1972835D1*
Y2046850D1*
Y2283858D1*
X1833465Y2385433D1*
X1819378Y720575D2*
X1843827D1*
X1861701Y702701D1*
X1939701Y449701D2*
Y471701D1*
X1975701Y507701D1*
Y1811701D1*
X1956701Y1830701D1*
X1888197D1*
X1833465Y1885433D1*
X1654701Y1976701D2*
X1414701D1*
X1238701Y2075701D2*
Y2065701D1*
X1298701Y2005701D1*
Y1975701D1*
X1299701Y1974701D1*
X1839701Y449701D2*
Y484701D1*
X1873701Y518701D1*
X1940701D1*
X1948701Y526701D1*
Y718701D1*
X1857701Y809701D1*
X1744575Y720575D2*
Y947701D1*
X1498701Y1160701D2*
X1667787D1*
X1669291Y1162205D1*
Y1477165D2*
X1619236D1*
X1611701Y1484701D1*
X1545701Y1545701D2*
X1361701D1*
X1360701Y1546701D1*
X1681890Y2046850D2*
Y2285039D1*
X1784252Y2387402D1*
Y2536220D1*
X1833465Y2585433D1*
X1631890Y1834252D2*
Y1635827D1*
X1577701Y1581638D1*
Y1468701D1*
X1609000Y1437402D1*
X1668898D1*
X1669291Y1437795D1*
X1026772Y843307D2*
Y1585827D1*
X1000787Y1611811D1*
Y1673228D1*
X1000000Y1674016D1*
X1323228Y1113780D2*
X1189370D1*
X1137402Y1061811D1*
Y896063D1*
X1084646Y843307D1*
X1026772D1*
X1140551Y1583071D2*
Y1217717D1*
X1285039D1*
X1288189Y1220866D1*
X1039701Y1786701D2*
Y1717386D1*
X1039370Y1717717D1*
Y1674016D1*
X960630D2*
Y852362D1*
X958268Y850000D1*
X1280315Y1073622D2*
X1197244D1*
X1166142Y1042520D1*
Y890551D1*
X1086220Y810630D1*
X997638D1*
X958268Y850000D1*
X1084252Y901181D2*
Y1158661D1*
Y1620472D1*
X1079134Y1625591D1*
Y1673622D1*
X1078740Y1674016D1*
X1232283Y1158661D2*
X1084252D1*
X1631890Y2046850D2*
Y2277559D1*
X1757701Y2403370D1*
Y2609669D1*
X1833465Y2685433D1*
X1681890Y1834252D2*
Y1584646D1*
X1721260Y1545276D1*
Y1411811D1*
X1706299Y1396850D1*
X1670866D1*
X1669291Y1398425D1*
D52*
X682701Y833701D3*
X1389701Y2105701D3*
X1850701Y626701D3*
X1583701Y1724701D3*
X1384252Y2381890D3*
X1458701Y2433701D3*
X1777953Y1040551D3*
X1500787Y2158268D3*
X1494488Y2117717D3*
X1777953Y1040551D3*
X1494488Y2117717D3*
X1500787Y2158268D3*
X1494488Y2117717D3*
X1429701Y2158701D3*
X1620079Y1536220D3*
X1386220Y1594094D3*
X1329528Y1598425D3*
X1498701Y968701D3*
X1861701Y702701D3*
X1654701Y1976701D3*
X1414701D3*
X1238701Y2075701D3*
X1857701Y809701D3*
X1744575Y947701D3*
X1498701Y1160701D3*
X1611701Y1484701D3*
X1545701Y1545701D3*
X1360701Y1546701D3*
X1026772Y843307D3*
X1323228Y1113780D3*
X1026772Y843307D3*
X1140551Y1583071D3*
X1288189Y1220866D3*
X1039701Y1786701D3*
X958268Y850000D3*
X1280315Y1073622D3*
X1084252Y901181D3*
X1232283Y1158661D3*
X1743701Y1016142D3*
X669291Y1535433D3*
X787402D3*
Y1614173D3*
X669291D3*
X787402Y1692913D3*
X669291D3*
X846457Y1732283D3*
Y1811024D3*
X629921Y1771654D3*
Y1850394D3*
X787402Y1870079D3*
X688976Y1889764D3*
X1437008Y807087D3*
X1515748D3*
X1358268D3*
X1496063Y669291D3*
X1377953D3*
Y590551D3*
X1496063D3*
X1614173D3*
X1259843D3*
X1614173Y492126D3*
X1259843D3*
X1614173Y669291D3*
Y767717D3*
X1259843Y669291D3*
X428701Y2895387D2*
D21*
X598921D1*
X1012710D2*
X1093452D1*
X1210463D2*
X1357221D1*
X1474282D2*
X1961079D1*
X428701Y2870518D2*
X574067D1*
X1037563D2*
X1093452D1*
X1210463D2*
X1357221D1*
X1474282D2*
X1961079D1*
X428701Y2845650D2*
X549213D1*
X1062417D2*
X1093452D1*
X1210463D2*
X1357221D1*
X1474282D2*
X1961079D1*
X1210463Y2820781D2*
X1357221D1*
X1474282D2*
X1779926D1*
X638833Y2795912D2*
X827876D1*
X1210463D2*
X1357221D1*
X1573208D2*
X1606733D1*
X1713784D2*
X1779926D1*
X613930Y2771043D2*
X805463D1*
X1129360D2*
X1466157D1*
X1573208D2*
X1606733D1*
X1713784D2*
X1779926D1*
X512172Y2746175D2*
X521990D1*
X595327D2*
X793305D1*
X1006704D2*
X1022541D1*
X1131508D2*
X1466157D1*
X1573208D2*
X1606733D1*
X1713784D2*
X1779926D1*
X504165Y2721306D2*
X519915D1*
X597475D2*
X787934D1*
X1012075D2*
X1031489D1*
X1131508D2*
X1200874D1*
X1366958D2*
X1466157D1*
X1573208D2*
X1606733D1*
X1713784D2*
X1794672D1*
X1872231D2*
X1887934D1*
X611001Y2696437D2*
X676118D1*
X753774D2*
X788325D1*
X1011684D2*
X1031489D1*
X1131508D2*
X1200874D1*
X1713784D2*
X1781147D1*
X610268Y2671568D2*
X635835D1*
X1005434D2*
X1031489D1*
X1131508D2*
X1200874D1*
X1713784D2*
X1781049D1*
X501626Y2646699D2*
X522944D1*
X594399D2*
X616645D1*
X992104D2*
X1031489D1*
X1131508D2*
X1200874D1*
X1713784D2*
X1756147D1*
X1869204D2*
X1890473D1*
X503725Y2621831D2*
X513603D1*
X823549D2*
X832443D1*
X967544D2*
X1031489D1*
X1131508D2*
X1200874D1*
X1366958D2*
X1621235D1*
X1699233D2*
X1732807D1*
X1871743D2*
X1888374D1*
X827456Y2596962D2*
X1031489D1*
X1131508D2*
X1200874D1*
X1366958D2*
X1621235D1*
X1699233D2*
X1729682D1*
X973794Y2572093D2*
X1031489D1*
X1131508D2*
X1200874D1*
X1366958D2*
X1621235D1*
X1699233D2*
X1729682D1*
X502114Y2547224D2*
X515180D1*
X602114D2*
X612153D1*
X999038D2*
X1031489D1*
X1131508D2*
X1280708D1*
X1358706D2*
X1621235D1*
X1699233D2*
X1729682D1*
X1869790D2*
X1889985D1*
X503286Y2522356D2*
X514008D1*
X603286D2*
X627631D1*
X1013491D2*
X1031489D1*
X1131508D2*
X1280708D1*
X1358706D2*
X1621235D1*
X1699233D2*
X1729682D1*
X1878090D2*
X1888813D1*
X615883Y2497487D2*
X656879D1*
X1240200D2*
X1280708D1*
X1358706D2*
X1621235D1*
X1699233D2*
X1729682D1*
X615688Y2472618D2*
X776606D1*
X1260659D2*
X1274018D1*
X1365346D2*
X1444965D1*
X1472426D2*
X1621235D1*
X1699233D2*
X1729682D1*
X502602Y2447749D2*
X514692D1*
X602602D2*
X779536D1*
X1262514D2*
X1274018D1*
X1365346D2*
X1418208D1*
X1499184D2*
X1621235D1*
X1699233D2*
X1729682D1*
X1877407D2*
X1889497D1*
X502846Y2422881D2*
X514497D1*
X602846D2*
X788081D1*
X1260024D2*
X1274018D1*
X1365346D2*
X1417182D1*
X1500210D2*
X1621235D1*
X1699233D2*
X1729682D1*
X1870620D2*
X1889301D1*
X615737Y2398012D2*
X803559D1*
X996254D2*
X1026948D1*
X1136001D2*
X1167719D1*
X1259047D2*
X1274018D1*
X1581850D2*
X1621235D1*
X1699233D2*
X1713764D1*
X615835Y2373143D2*
X803559D1*
X968569D2*
X1167719D1*
X1259047D2*
X1274018D1*
X1581850D2*
X1618012D1*
X503090Y2348274D2*
X514253D1*
X603090D2*
X803559D1*
X903530D2*
X1185395D1*
X1241372D2*
X1359174D1*
X1581850D2*
X1593195D1*
X1870913D2*
X1889057D1*
X502358Y2323406D2*
X522065D1*
X595229D2*
X803559D1*
X903530D2*
X1185395D1*
X1249819D2*
X1407905D1*
X1877163D2*
X1889790D1*
X610463Y2298537D2*
X797065D1*
X910024D2*
X1190180D1*
X1348403D2*
X1387983D1*
X610805Y2273668D2*
X797065D1*
X944253D2*
X1190180D1*
X1348403D2*
X1363129D1*
X1760268D2*
X1776215D1*
X503530Y2248799D2*
X520649D1*
X596694D2*
X797065D1*
X969155D2*
X1190180D1*
X1759878D2*
X1788569D1*
X1878335D2*
X1888569D1*
X501870Y2223930D2*
X515473D1*
X601870D2*
X797065D1*
X1759878D2*
X1790278D1*
X1876674D2*
X1890278D1*
X615493Y2199062D2*
X817671D1*
X889370D2*
X907807D1*
X1399575D2*
X1417329D1*
X1759878D2*
X1776606D1*
X616030Y2174193D2*
X800629D1*
X906460D2*
X936518D1*
X1370864D2*
X1389790D1*
X1759878D2*
X1776069D1*
X503969Y2149324D2*
X513316D1*
X603969D2*
X798725D1*
X908364D2*
X961616D1*
X1368471D2*
X1387788D1*
X1759878D2*
X1788129D1*
X1878774D2*
X1888136D1*
X501333Y2124455D2*
X515962D1*
X601333D2*
X809907D1*
X897182D2*
X965864D1*
X1368471D2*
X1405561D1*
X1759878D2*
X1790766D1*
X1876137D2*
X1890766D1*
X615346Y2099587D2*
X989741D1*
X1040200D2*
X1089741D1*
X1140200D2*
X1189741D1*
X1370864D2*
X1396088D1*
X1767690D2*
X1776787D1*
X616128Y2074718D2*
X1036616D1*
X1126381D2*
X1195698D1*
X1767690D2*
X1775961D1*
X504409Y2049849D2*
X512931D1*
X604409D2*
X1028071D1*
X1134878D2*
X1205024D1*
X1767690D2*
X1787690D1*
X1879213D2*
X1887653D1*
X500844Y2024980D2*
X516499D1*
X600844D2*
X1032612D1*
X1130385D2*
X1146196D1*
X1767690D2*
X1798725D1*
X1868227D2*
X1891303D1*
X615200Y2000112D2*
X1057270D1*
X1105727D2*
X1146186D1*
X1767690D2*
X1782114D1*
X616225Y1975243D2*
X1146186D1*
X1759878D2*
X1780952D1*
X504848Y1950374D2*
X512473D1*
X604848D2*
X1146186D1*
X1748012D2*
X1793891D1*
X1873061D2*
X1887251D1*
X500307Y1925505D2*
X517036D1*
X600307D2*
X1146186D1*
X1253237D2*
X1283637D1*
X1315737D2*
X1329682D1*
X1723110D2*
X1799360D1*
X1867544D2*
X1891840D1*
X615102Y1900636D2*
X969184D1*
X1058217D2*
X1069180D1*
X1158217D2*
X1169180D1*
X1459878D2*
X1782270D1*
X616323Y1875768D2*
X693110D1*
X782485D2*
X960346D1*
X1767690D2*
X1780828D1*
X605288Y1850899D2*
X633100D1*
X842495D2*
X964594D1*
X1767690D2*
X1793403D1*
X499770Y1826030D2*
X517573D1*
X599770D2*
X633100D1*
X842495D2*
X988422D1*
X1051870D2*
X1088422D1*
X1767690D2*
X1800044D1*
X614907Y1801161D2*
X633100D1*
X724379D2*
X751215D1*
X842495D2*
X999360D1*
X1080044D2*
X1127680D1*
X1199721D2*
X1227583D1*
X1294692D2*
X1329682D1*
X1767690D2*
X1782389D1*
X616421Y1776293D2*
X633055D1*
X724379D2*
X751215D1*
X842495D2*
X998042D1*
X1081362D2*
X1127680D1*
X1199721D2*
X1208722D1*
X1279848D2*
X1329682D1*
X1767690D2*
X1780736D1*
X605678Y1751424D2*
X633100D1*
X842495D2*
X1011713D1*
X1067690D2*
X1127680D1*
X1264223D2*
X1330219D1*
X1487514D2*
X1603901D1*
X1774282D2*
X1792915D1*
X1873989D2*
X1892915D1*
X499184Y1726555D2*
X518110D1*
X599184D2*
X695210D1*
X780385D2*
X899067D1*
X943471D2*
X952633D1*
X968619D2*
X991987D1*
X1086733D2*
X1110102D1*
X1126124D2*
X1134758D1*
X1337172D2*
X1346344D1*
X1519819D2*
X1603901D1*
X1709878D2*
X1718444D1*
X1774477D2*
X1792915D1*
X1873989D2*
X1892915D1*
X614760Y1701686D2*
X695210D1*
X780385D2*
X847065D1*
X1546645D2*
X1603901D1*
X1709878D2*
X1718444D1*
X616518Y1676818D2*
X701508D1*
X774868D2*
X846088D1*
X1547622D2*
X1603901D1*
X1709878D2*
X1718444D1*
X606069Y1651949D2*
X688569D1*
X774282D2*
X846186D1*
X1547524D2*
X1603901D1*
X1709878D2*
X1718444D1*
X1774477D2*
X1786037D1*
X498647Y1627080D2*
X518696D1*
X598647D2*
X687739D1*
X761098D2*
X860249D1*
X1533462D2*
X1584565D1*
X1709878D2*
X1718444D1*
X1774477D2*
X1793501D1*
X1873452D2*
X1893501D1*
X614614Y1602211D2*
X687739D1*
X761098D2*
X932612D1*
X1178725D2*
X1286713D1*
X1428383D2*
X1559712D1*
X1636831D2*
X1653901D1*
X1709878D2*
X1718444D1*
X616616Y1577343D2*
X687739D1*
X761098D2*
X932612D1*
X988637D2*
X996671D1*
X1183120D2*
X1292426D1*
X1425600D2*
X1517915D1*
X1611977D2*
X1654975D1*
X606460Y1552474D2*
X687739D1*
X761098D2*
X932612D1*
X988637D2*
X998774D1*
X1169594D2*
X1318110D1*
X1659682D2*
X1675483D1*
X1774477D2*
X1785646D1*
X498012Y1527605D2*
X519282D1*
X598012D2*
X673042D1*
X775796D2*
X794379D1*
X838979D2*
X932612D1*
X988637D2*
X998774D1*
X1168569D2*
X1322504D1*
X1774477D2*
X1794087D1*
X1872817D2*
X1894087D1*
X614419Y1502736D2*
X674213D1*
X865737D2*
X932612D1*
X988637D2*
X998774D1*
X1168569D2*
X1549702D1*
X616665Y1477867D2*
X668940D1*
X871157D2*
X932612D1*
X988637D2*
X998774D1*
X1168569D2*
X1549702D1*
X606850Y1452999D2*
X667085D1*
X863930D2*
X932612D1*
X988637D2*
X998774D1*
X1168569D2*
X1555122D1*
X1774477D2*
X1785319D1*
X497426Y1428130D2*
X519917D1*
X597426D2*
X665180D1*
X783657D2*
X806294D1*
X827103D2*
X932612D1*
X988637D2*
X998774D1*
X1168569D2*
X1579731D1*
X1774477D2*
X1794721D1*
X1872231D2*
X1894721D1*
X614272Y1403261D2*
X664204D1*
X784585D2*
X932612D1*
X988637D2*
X998774D1*
X1168569D2*
X1614155D1*
X616713Y1378392D2*
X669184D1*
X779653D2*
X932612D1*
X988637D2*
X998774D1*
X1168569D2*
X1614057D1*
X607192Y1353524D2*
X664301D1*
X784487D2*
X932612D1*
X988637D2*
X998774D1*
X1168569D2*
X1609223D1*
X1774477D2*
X1784927D1*
X496792Y1328655D2*
X520503D1*
X596792D2*
X670161D1*
X778676D2*
X932612D1*
X988637D2*
X998774D1*
X1168569D2*
X1609858D1*
X1774477D2*
X1795307D1*
X1871596D2*
X1895307D1*
X614077Y1303786D2*
X671967D1*
X776870D2*
X932612D1*
X988637D2*
X998774D1*
X1168569D2*
X1612251D1*
X616811Y1278917D2*
X663960D1*
X784878D2*
X932612D1*
X988637D2*
X998774D1*
X1168569D2*
X1608833D1*
X607583Y1254049D2*
X666254D1*
X782583D2*
X932612D1*
X988637D2*
X998774D1*
X1168569D2*
X1262446D1*
X1313930D2*
X1611128D1*
X1774477D2*
X1784535D1*
X496157Y1229180D2*
X521186D1*
X596157D2*
X665766D1*
X783022D2*
X932612D1*
X988637D2*
X998774D1*
X1330337D2*
X1610639D1*
X1774477D2*
X1795991D1*
X1870962D2*
X1895991D1*
X613881Y1204311D2*
X664008D1*
X784780D2*
X932612D1*
X988637D2*
X998774D1*
X1327651D2*
X1608881D1*
X616860Y1179442D2*
X668012D1*
X780776D2*
X932612D1*
X988637D2*
X998774D1*
X1269546D2*
X1460297D1*
X607924Y1154573D2*
X664692D1*
X784145D2*
X932612D1*
X988637D2*
X998774D1*
X1275063D2*
X1456147D1*
X1774282D2*
X1784185D1*
X495473Y1129705D2*
X521821D1*
X595473D2*
X664546D1*
X784292D2*
X932612D1*
X988637D2*
X998774D1*
X1112270D2*
X1166743D1*
X1362954D2*
X1470112D1*
X1757241D2*
X1796626D1*
X1870278D2*
X1896626D1*
X613735Y1104836D2*
X668403D1*
X780385D2*
X932612D1*
X988637D2*
X998774D1*
X1112270D2*
X1141840D1*
X1365249D2*
X1476460D1*
X1732290D2*
X1778413D1*
X616909Y1079967D2*
X664057D1*
X784731D2*
X932612D1*
X988637D2*
X998774D1*
X1348012D2*
X1470698D1*
X1528530D2*
X1613960D1*
X1724624D2*
X1766157D1*
X608266Y1055098D2*
X665522D1*
X783266D2*
X932612D1*
X988637D2*
X998774D1*
X1318813D2*
X1470698D1*
X1526723D2*
X1615669D1*
X494790Y1030230D2*
X522504D1*
X594790D2*
X666499D1*
X782290D2*
X932612D1*
X988637D2*
X998774D1*
X1194155D2*
X1470698D1*
X1526723D2*
X1616840D1*
X1869594D2*
X1897309D1*
X613540Y1005361D2*
X663911D1*
X784878D2*
X932612D1*
X988637D2*
X998774D1*
X1194155D2*
X1470698D1*
X1526723D2*
X1613813D1*
X616958Y980492D2*
X671870D1*
X776284D2*
X932612D1*
X988637D2*
X998774D1*
X1194155D2*
X1457465D1*
X1539956D2*
X1617426D1*
X608608Y955623D2*
X646967D1*
X778432D2*
X932612D1*
X988637D2*
X998774D1*
X1194155D2*
X1457856D1*
X1539516D2*
X1615229D1*
X484585Y930755D2*
X523237D1*
X594106D2*
X622212D1*
X803188D2*
X932612D1*
X988637D2*
X998774D1*
X1194155D2*
X1482026D1*
X1515346D2*
X1614155D1*
X1783852D2*
X1807514D1*
X1859389D2*
X1907514D1*
X806362Y905886D2*
X932612D1*
X988637D2*
X998774D1*
X1194155D2*
X1267622D1*
X1310610D2*
X1619917D1*
X1772573D2*
X1784200D1*
X806362Y881017D2*
X929731D1*
X988637D2*
X998774D1*
X1192299D2*
X1240278D1*
X1338003D2*
X1614253D1*
X1772573D2*
X1780125D1*
X672085Y856148D2*
X688764D1*
X804897D2*
X915717D1*
X1170278D2*
X1234663D1*
X1343618D2*
X1633637D1*
X1704946D2*
X1716602D1*
X1772573D2*
X1789155D1*
X1877749D2*
X1889155D1*
X428701Y831280D2*
X541840D1*
X575503D2*
X616108D1*
X672085D2*
X691547D1*
X783608D2*
X919868D1*
X1145424D2*
X1241694D1*
X1336538D2*
X1716596D1*
X1772573D2*
X1820942D1*
X1894497D2*
X1947700D1*
X428701Y806411D2*
X616108D1*
X672085D2*
X683027D1*
X743813D2*
X963276D1*
X1120571D2*
X1276850D1*
X1301439D2*
X1716596D1*
X1772573D2*
X1814838D1*
X1900551D2*
X1947700D1*
X428701Y781542D2*
X616108D1*
X672085D2*
X683027D1*
X739028D2*
X873139D1*
X890614D2*
X898872D1*
X943667D2*
X951914D1*
X969382D2*
X977550D1*
X1337368D2*
X1345606D1*
X1363064D2*
X1384956D1*
X1402439D2*
X1424360D1*
X1441768D2*
X1463715D1*
X1481144D2*
X1503071D1*
X1520521D2*
X1716596D1*
X1772573D2*
X1826069D1*
X1924428D2*
X1947700D1*
X428701Y756673D2*
X616108D1*
X672085D2*
X683027D1*
X739028D2*
X847016D1*
X1546694D2*
X1707758D1*
X1856167D2*
X1872160D1*
X428701Y731804D2*
X616108D1*
X672085D2*
X683027D1*
X739028D2*
X846088D1*
X1547622D2*
X1707758D1*
X428701Y706936D2*
X519575D1*
X668911D2*
X683023D1*
X739028D2*
X846186D1*
X1547524D2*
X1707758D1*
X1904458D2*
X1920718D1*
X760610Y682067D2*
X860444D1*
X1533266D2*
X1707758D1*
X1899038D2*
X1920698D1*
X575161Y657198D2*
X586616D1*
X760610D2*
X1394087D1*
X1472085D2*
X1745161D1*
X1818764D2*
X1920698D1*
X575161Y632329D2*
X586616D1*
X760610D2*
X1394087D1*
X1472085D2*
X1745161D1*
X1818764D2*
X1920698D1*
X575161Y607461D2*
X586616D1*
X760610D2*
X1394087D1*
X1472085D2*
X1745161D1*
X1818764D2*
X1920698D1*
X478774Y582592D2*
X586616D1*
X760610D2*
X1280708D1*
X1588149D2*
X1920698D1*
X478774Y557723D2*
X608198D1*
X664223D2*
X1280708D1*
X1588149D2*
X1920698D1*
X574770Y532854D2*
X584243D1*
X758266D2*
X1280708D1*
X1588149D2*
X1849311D1*
X574770Y507986D2*
X584243D1*
X758266D2*
X1280708D1*
X1588149D2*
X1824409D1*
X574770Y483117D2*
X584243D1*
X758266D2*
X1280708D1*
X1588149D2*
X1786176D1*
X574770Y458248D2*
X584243D1*
X758266D2*
X1280708D1*
X1588149D2*
X1786176D1*
X428701Y433379D2*
X1280708D1*
X1588149D2*
X1786176D1*
X1504188Y591579D2*
X1585673D1*
Y426198D1*
X1788652Y426201D1*
X1788673Y500728D1*
X1819874D1*
X1855669Y536732D1*
X1860377Y540443D1*
X1865821Y542953D1*
X1871700Y544122D1*
X1923164Y544201D1*
X1923201Y708097D1*
X1861927Y769412D1*
X1854523Y769326D1*
X1848246Y770320D1*
X1842202Y772284D1*
X1836540Y775169D1*
X1831398Y778904D1*
X1826904Y783398D1*
X1823169Y788540D1*
X1820284Y794202D1*
X1818320Y800246D1*
X1817326Y806523D1*
Y812878D1*
X1818320Y819155D1*
X1820284Y825199D1*
X1823169Y830862D1*
X1826066Y834940D1*
X1818827Y836550D1*
X1811826Y839221D1*
X1805291Y842888D1*
X1799364Y847473D1*
X1794173Y852876D1*
X1789828Y858981D1*
X1786425Y865657D1*
X1784036Y872759D1*
X1782713Y880135D1*
X1782484Y887625D1*
X1783355Y895067D1*
X1785306Y902302D1*
X1788296Y909173D1*
X1792259Y915532D1*
X1797112Y921242D1*
X1802748Y926180D1*
X1809046Y930239D1*
X1814409Y932754D1*
X1808032Y935519D1*
X1800537Y940112D1*
X1793853Y945821D1*
X1788144Y952506D1*
X1783551Y960001D1*
X1780187Y968122D1*
X1778135Y976670D1*
X1777445Y985433D1*
X1777927Y992439D1*
X1770003Y985345D1*
X1765761Y982210D1*
X1770877Y978497D1*
X1775371Y974003D1*
X1779107Y968862D1*
X1781992Y963199D1*
X1783956Y957155D1*
X1784950Y950878D1*
Y944523D1*
X1783956Y938246D1*
X1781992Y932202D1*
X1779107Y926540D1*
X1775371Y921398D1*
X1770068Y916266D1*
X1770075Y762789D1*
X1778870Y762744D1*
Y678405D1*
X1710280D1*
Y762744D1*
X1719118D1*
X1718967Y872116D1*
X1714973Y865786D1*
X1709667Y860508D1*
X1703317Y856548D1*
X1696242Y854105D1*
X1688977Y853303D1*
X1646934Y853411D1*
X1639589Y854845D1*
X1632749Y857883D1*
X1626760Y862372D1*
X1621925Y868084D1*
X1618487Y874732D1*
X1616619Y881980D1*
X1616417Y889461D1*
X1617890Y896799D1*
X1620965Y903622D1*
X1622751Y906290D1*
X1619465Y911802D1*
X1617060Y918889D1*
X1616297Y926335D1*
X1617216Y933762D1*
X1619770Y940797D1*
X1622751Y945660D1*
X1619465Y951172D1*
X1617060Y958259D1*
X1616297Y965705D1*
X1617216Y973132D1*
X1619770Y980167D1*
X1622657Y985145D1*
X1618831Y991977D1*
X1616705Y999513D1*
X1616398Y1007338D1*
X1617926Y1015018D1*
X1621204Y1022129D1*
X1622657Y1024515D1*
X1618831Y1031347D1*
X1616705Y1038883D1*
X1616398Y1046708D1*
X1617926Y1054388D1*
X1621204Y1061499D1*
X1622657Y1063885D1*
X1618831Y1070717D1*
X1616705Y1078254D1*
X1616398Y1086078D1*
X1617926Y1093758D1*
X1619291Y1097335D1*
X1543441D1*
X1524201Y1078138D1*
Y1000175D1*
X1529497Y995003D1*
X1533233Y989862D1*
X1536118Y984199D1*
X1538082Y978155D1*
X1539076Y971878D1*
Y965523D1*
X1538082Y959246D1*
X1536118Y953202D1*
X1533233Y947540D1*
X1529497Y942398D1*
X1525003Y937904D1*
X1519862Y934169D1*
X1514199Y931284D1*
X1508155Y929320D1*
X1501878Y928326D1*
X1495523D1*
X1489246Y929320D1*
X1483202Y931284D1*
X1477540Y934169D1*
X1472398Y937904D1*
X1467904Y942398D1*
X1464169Y947540D1*
X1461284Y953202D1*
X1459320Y959246D1*
X1458326Y965523D1*
Y971878D1*
X1459320Y978155D1*
X1461284Y984199D1*
X1464169Y989862D1*
X1467904Y995003D1*
X1473208Y1000136D1*
X1473279Y1090702D1*
X1474449Y1096581D1*
X1476958Y1102025D1*
X1480669Y1106732D1*
X1494377Y1120439D1*
X1486186Y1122183D1*
X1480314Y1124615D1*
X1474895Y1127936D1*
X1470063Y1132063D1*
X1465936Y1136895D1*
X1462615Y1142314D1*
X1460183Y1148186D1*
X1458699Y1154365D1*
X1458201Y1160701D1*
X1458699Y1167036D1*
X1460183Y1173216D1*
X1462615Y1179087D1*
X1465936Y1184506D1*
X1470063Y1189339D1*
X1474895Y1193466D1*
X1480314Y1196787D1*
X1486186Y1199219D1*
X1492365Y1200702D1*
X1498701Y1201201D1*
X1505036Y1200702D1*
X1511216Y1199219D1*
X1517087Y1196787D1*
X1522506Y1193466D1*
X1527339Y1189339D1*
X1530136Y1186194D1*
X1614570Y1186201D1*
X1612361Y1192633D1*
X1611421Y1198570D1*
Y1204580D1*
X1612361Y1210516D1*
X1614219Y1216233D1*
X1616758Y1221250D1*
X1614219Y1226287D1*
X1612361Y1232003D1*
X1611421Y1237940D1*
Y1243950D1*
X1612361Y1249887D1*
X1614219Y1255603D1*
X1616758Y1260620D1*
X1614219Y1265657D1*
X1612361Y1271373D1*
X1611421Y1277310D1*
Y1283320D1*
X1612361Y1289257D1*
X1614219Y1294973D1*
X1616758Y1299990D1*
X1614219Y1305027D1*
X1612361Y1310743D1*
X1611421Y1316680D1*
Y1322690D1*
X1612361Y1328627D1*
X1614219Y1334343D1*
X1616758Y1339360D1*
X1614219Y1344397D1*
X1612361Y1350113D1*
X1611421Y1356050D1*
Y1362060D1*
X1612361Y1367997D1*
X1614219Y1373713D1*
X1616947Y1379068D1*
X1619926Y1383302D1*
X1617216Y1390649D1*
X1616295Y1398425D1*
X1617216Y1406202D1*
X1619169Y1411906D1*
X1605011Y1412215D1*
X1599242Y1413843D1*
X1594011Y1416772D1*
X1590969Y1419370D1*
X1557071Y1453712D1*
X1554142Y1458942D1*
X1552515Y1464712D1*
X1552201Y1468701D1*
X1552036Y1505699D1*
X1545701Y1505201D1*
X1539365Y1505699D1*
X1533186Y1507183D1*
X1527314Y1509615D1*
X1521895Y1512936D1*
X1517063Y1517063D1*
X1514266Y1520208D1*
X1391355Y1520201D1*
X1387003Y1515904D1*
X1381862Y1512169D1*
X1376199Y1509284D1*
X1370155Y1507320D1*
X1363878Y1506326D1*
X1357523D1*
X1351246Y1507320D1*
X1345202Y1509284D1*
X1339540Y1512169D1*
X1334398Y1515904D1*
X1329904Y1520398D1*
X1326169Y1525540D1*
X1323284Y1531202D1*
X1321320Y1537246D1*
X1320326Y1543523D1*
Y1549878D1*
X1321320Y1556155D1*
X1322018Y1558630D1*
X1314029Y1561008D1*
X1308366Y1563893D1*
X1303225Y1567629D1*
X1298731Y1572123D1*
X1294996Y1577264D1*
X1292110Y1582927D1*
X1290147Y1588971D1*
X1289152Y1595248D1*
Y1601603D1*
X1290147Y1607880D1*
X1292110Y1613924D1*
X1295983Y1621063D1*
X1287427Y1617902D1*
X1281582Y1616499D1*
X1275591Y1616028D1*
X1269599Y1616499D1*
X1263754Y1617902D1*
X1258201Y1620202D1*
X1251388Y1624674D1*
X1246514Y1622650D1*
X1238834Y1621122D1*
X1231009Y1621430D1*
X1223473Y1623555D1*
X1216641Y1627382D1*
X1211973Y1624650D1*
X1204627Y1621940D1*
X1196850Y1621020D1*
X1189074Y1621940D1*
X1181728Y1624650D1*
X1177060Y1627382D1*
X1170228Y1623555D1*
X1162691Y1621430D1*
X1154867Y1621122D1*
X1158938Y1619157D1*
X1164356Y1615836D1*
X1169189Y1611709D1*
X1173316Y1606876D1*
X1176637Y1601457D1*
X1179069Y1595586D1*
X1180553Y1589406D1*
X1181051Y1583071D1*
X1180553Y1576735D1*
X1179069Y1570556D1*
X1176637Y1564684D1*
X1173316Y1559266D1*
X1169189Y1554433D1*
X1166044Y1551636D1*
X1166051Y1243178D1*
X1254370Y1243217D1*
X1259551Y1249504D1*
X1264384Y1253631D1*
X1269802Y1256952D1*
X1275674Y1259384D1*
X1281853Y1260868D1*
X1288189Y1261366D1*
X1294525Y1260868D1*
X1300704Y1259384D1*
X1306576Y1256952D1*
X1311994Y1253631D1*
X1316827Y1249504D1*
X1320954Y1244671D1*
X1324275Y1239253D1*
X1326707Y1233381D1*
X1328190Y1227202D1*
X1328689Y1220866D1*
X1328190Y1214531D1*
X1326707Y1208351D1*
X1324275Y1202480D1*
X1320954Y1197061D1*
X1316827Y1192228D1*
X1311994Y1188101D1*
X1306576Y1184780D1*
X1300704Y1182348D1*
X1294525Y1180865D1*
X1288189Y1180366D1*
X1281853Y1180865D1*
X1275674Y1182348D1*
X1269802Y1184780D1*
X1264384Y1188101D1*
X1259560Y1192220D1*
X1258586Y1189458D1*
X1263080Y1184964D1*
X1266815Y1179823D1*
X1269701Y1174160D1*
X1271664Y1168116D1*
X1272659Y1161839D1*
Y1155484D1*
X1271664Y1149207D1*
X1269701Y1143163D1*
X1267817Y1139289D1*
X1291763Y1139280D1*
X1296926Y1144576D1*
X1302067Y1148311D1*
X1307730Y1151197D1*
X1313774Y1153161D1*
X1320051Y1154155D1*
X1326406D1*
X1332683Y1153161D1*
X1338727Y1151197D1*
X1344390Y1148311D1*
X1349531Y1144576D1*
X1354025Y1140082D1*
X1357760Y1134941D1*
X1360645Y1129278D1*
X1362609Y1123234D1*
X1363603Y1116957D1*
Y1110602D1*
X1362609Y1104325D1*
X1360645Y1098281D1*
X1357760Y1092618D1*
X1354025Y1087477D1*
X1349531Y1082983D1*
X1344390Y1079248D1*
X1338727Y1076362D1*
X1332683Y1074399D1*
X1326406Y1073404D1*
X1320808Y1073375D1*
X1320316Y1067286D1*
X1318833Y1061107D1*
X1316401Y1055235D1*
X1313080Y1049817D1*
X1308953Y1044984D1*
X1304120Y1040857D1*
X1298702Y1037536D1*
X1292830Y1035104D1*
X1286651Y1033621D1*
X1280315Y1033122D1*
X1273979Y1033621D1*
X1267800Y1035104D1*
X1261928Y1037536D1*
X1256510Y1040857D1*
X1251677Y1044984D1*
X1248880Y1048129D1*
X1207805Y1048122D1*
X1191625Y1031940D1*
X1191563Y888550D1*
X1190394Y882671D1*
X1187884Y877227D1*
X1184173Y872520D1*
X1101209Y790000D1*
X1095979Y787071D1*
X1090202Y785443D1*
X1096129Y782947D1*
X1098415Y781667D1*
X1103452Y784206D1*
X1109169Y786064D1*
X1115105Y787004D1*
X1121115D1*
X1127052Y786064D1*
X1132768Y784206D1*
X1137785Y781667D1*
X1142822Y784206D1*
X1148539Y786064D1*
X1154475Y787004D1*
X1160486D1*
X1166422Y786064D1*
X1172138Y784206D1*
X1177155Y781667D1*
X1182192Y784206D1*
X1187909Y786064D1*
X1193845Y787004D1*
X1199856D1*
X1205792Y786064D1*
X1211508Y784206D1*
X1216525Y781667D1*
X1221562Y784206D1*
X1227279Y786064D1*
X1233215Y787004D1*
X1239226D1*
X1245162Y786064D1*
X1250878Y784206D1*
X1255896Y781667D1*
X1260933Y784206D1*
X1266649Y786064D1*
X1272585Y787004D1*
X1278596D1*
X1284532Y786064D1*
X1290249Y784206D1*
X1295266Y781667D1*
X1300303Y784206D1*
X1306019Y786064D1*
X1311955Y787004D1*
X1317966D1*
X1323902Y786064D1*
X1329619Y784206D1*
X1334974Y781478D1*
X1339163Y778476D1*
X1344983Y780792D1*
X1352357Y782071D1*
X1359831Y781673D1*
X1367027Y779616D1*
X1373582Y776004D1*
X1374008Y775677D1*
X1379678Y779034D1*
X1386777Y781402D1*
X1394226Y782126D1*
X1401649Y781168D1*
X1408670Y778577D1*
X1413491Y775768D1*
X1420323Y779594D1*
X1427860Y781720D1*
X1435684Y782027D1*
X1443365Y780500D1*
X1450476Y777221D1*
X1452755Y775686D1*
X1458418Y779034D1*
X1465517Y781402D1*
X1472966Y782126D1*
X1480389Y781168D1*
X1487410Y778577D1*
X1492118Y775677D1*
X1497788Y779034D1*
X1504887Y781402D1*
X1512337Y782126D1*
X1519759Y781168D1*
X1526781Y778577D1*
X1533046Y774484D1*
X1538240Y769095D1*
X1542100Y762683D1*
X1544431Y755571D1*
X1545122Y748819D1*
X1545028Y706951D1*
X1543632Y699598D1*
X1540630Y692743D1*
X1536173Y686730D1*
X1530486Y681865D1*
X1523857Y678392D1*
X1516619Y676487D1*
X1509139Y676245D1*
X1501793Y677680D1*
X1494954Y680718D1*
X1492152Y682584D1*
X1486781Y679383D1*
X1479707Y676940D1*
X1472266Y676138D1*
X1469565Y676269D1*
X1469571Y594210D1*
X1504193Y594193D1*
Y591605D1*
X1285724Y591972D2*
X1363215D1*
X1363209Y594193D1*
X1396558D1*
X1396571Y676254D1*
X1391028Y676245D1*
X1383683Y677680D1*
X1376843Y680718D1*
X1374041Y682584D1*
X1368671Y679383D1*
X1361597Y676940D1*
X1354156Y676138D1*
X1346723Y677018D1*
X1339675Y679535D1*
X1339202Y679789D1*
X1332350Y675320D1*
X1326797Y673020D1*
X1320953Y671617D1*
X1314961Y671146D1*
X1308969Y671617D1*
X1303124Y673020D1*
X1297571Y675320D1*
X1295286Y676601D1*
X1290249Y674061D1*
X1284532Y672204D1*
X1278596Y671264D1*
X1272585D1*
X1266649Y672204D1*
X1260933Y674061D1*
X1255915Y676601D1*
X1250878Y674061D1*
X1245162Y672204D1*
X1239226Y671264D1*
X1233215D1*
X1227279Y672204D1*
X1221562Y674061D1*
X1216545Y676601D1*
X1211508Y674061D1*
X1205792Y672204D1*
X1199856Y671264D1*
X1193845D1*
X1187909Y672204D1*
X1182192Y674061D1*
X1177175Y676601D1*
X1172138Y674061D1*
X1166422Y672204D1*
X1160486Y671264D1*
X1154475D1*
X1148539Y672204D1*
X1142822Y674061D1*
X1137805Y676601D1*
X1132768Y674061D1*
X1127052Y672204D1*
X1121115Y671264D1*
X1115105D1*
X1109169Y672204D1*
X1103452Y674061D1*
X1098435Y676601D1*
X1093398Y674061D1*
X1087682Y672204D1*
X1081745Y671264D1*
X1075735D1*
X1069798Y672204D1*
X1064082Y674061D1*
X1059065Y676601D1*
X1054028Y674061D1*
X1048312Y672204D1*
X1042375Y671264D1*
X1036365D1*
X1030428Y672204D1*
X1024712Y674061D1*
X1019695Y676601D1*
X1014658Y674061D1*
X1008942Y672204D1*
X1003005Y671264D1*
X996995D1*
X991058Y672204D1*
X985342Y674061D1*
X979987Y676790D1*
X975798Y679792D1*
X970313Y677576D1*
X962953Y676219D1*
X955476Y676539D1*
X948258Y678520D1*
X945501Y679789D1*
X938649Y675320D1*
X933096Y673020D1*
X927252Y671617D1*
X921260Y671146D1*
X915268Y671617D1*
X909424Y673020D1*
X903871Y675320D1*
X897057Y679792D1*
X891573Y677576D1*
X884213Y676219D1*
X876735Y676539D1*
X869518Y678520D1*
X862926Y682063D1*
X857290Y686988D1*
X852897Y693047D1*
X849967Y699934D1*
X848648Y707301D1*
X848701Y751666D1*
X850174Y759003D1*
X853248Y765827D1*
X857768Y771792D1*
X863506Y776598D1*
X870171Y780001D1*
X877429Y781830D1*
X884911Y781993D1*
X892241Y780481D1*
X897022Y778487D1*
X903871Y782947D1*
X909424Y785247D1*
X915268Y786650D1*
X921260Y787122D1*
X927252Y786650D1*
X933096Y785247D1*
X938649Y782947D1*
X945462Y778476D1*
X951283Y780792D1*
X958657Y782071D1*
X966130Y781673D1*
X973326Y779616D1*
X975762Y778487D1*
X982611Y782947D1*
X988164Y785247D1*
X990934Y786029D1*
X986061Y787909D1*
X981077Y791240D1*
X962516Y809689D1*
X955090Y809625D1*
X948813Y810619D1*
X942769Y812583D1*
X937107Y815468D1*
X931965Y819204D1*
X927471Y823697D1*
X923736Y828839D1*
X920851Y834501D1*
X918887Y840545D1*
X917893Y846822D1*
Y853178D1*
X918887Y859455D1*
X920851Y865499D1*
X923736Y871161D1*
X927471Y876303D1*
X931965Y880796D1*
X935134Y883214D1*
X935130Y1618622D1*
X927252Y1616499D1*
X921260Y1616028D1*
X915268Y1616499D1*
X909424Y1617902D1*
X903871Y1620202D1*
X897057Y1624674D1*
X891573Y1622458D1*
X884213Y1621101D1*
X876735Y1621421D1*
X869518Y1623402D1*
X862926Y1626945D1*
X857290Y1631870D1*
X852897Y1637929D1*
X849967Y1644815D1*
X848648Y1652183D1*
X848701Y1696548D1*
X850174Y1703885D1*
X853248Y1710709D1*
X857768Y1716674D1*
X863506Y1721479D1*
X870171Y1724883D1*
X877429Y1726712D1*
X884911Y1726875D1*
X892241Y1725363D1*
X897022Y1723369D1*
X903871Y1727829D1*
X909424Y1730129D1*
X915268Y1731532D1*
X921260Y1732004D1*
X927252Y1731532D1*
X933096Y1730129D1*
X938649Y1727829D1*
X945462Y1723358D1*
X950336Y1725381D1*
X958016Y1726909D1*
X965841Y1726602D1*
X973377Y1724476D1*
X980210Y1720650D1*
X984877Y1723381D1*
X992224Y1726091D1*
X1000000Y1727012D1*
X1007776Y1726091D1*
X1014204Y1723805D1*
X1014201Y1755228D1*
X1008904Y1760398D1*
X1005169Y1765540D1*
X1002284Y1771202D1*
X1000320Y1777246D1*
X999326Y1783523D1*
Y1789878D1*
X1000320Y1796155D1*
X1002284Y1802199D1*
X1005169Y1807862D1*
X1008904Y1813003D1*
X1013398Y1817497D1*
X1017972Y1820853D1*
X1008862Y1820903D1*
X1001475Y1822160D1*
X994351Y1824484D1*
X987645Y1827827D1*
X981501Y1832116D1*
X976051Y1837259D1*
X971412Y1843144D1*
X967686Y1849645D1*
X964952Y1856622D1*
X963269Y1863923D1*
X962674Y1871393D1*
X963179Y1878869D1*
X964774Y1886191D1*
X967423Y1893200D1*
X971071Y1899746D1*
X975638Y1905686D1*
X981025Y1910894D1*
X987118Y1915257D1*
X993783Y1918681D1*
X1000878Y1921091D1*
X1008250Y1922436D1*
X1015739Y1922688D1*
X1023184Y1921839D1*
X1030424Y1919910D1*
X1037304Y1916941D1*
X1043675Y1912997D1*
X1049400Y1908162D1*
X1054355Y1902540D1*
X1058433Y1896254D1*
X1061546Y1889438D1*
X1063698Y1881866D1*
X1066557Y1891228D1*
X1070193Y1898363D1*
X1074899Y1904841D1*
X1080561Y1910502D1*
X1087039Y1915209D1*
X1094173Y1918844D1*
X1101789Y1921318D1*
X1109697Y1922571D1*
X1117704D1*
X1125613Y1921318D1*
X1133228Y1918844D1*
X1140363Y1915209D1*
X1146841Y1910502D1*
X1152502Y1904841D1*
X1157209Y1898363D1*
X1160844Y1891228D1*
X1163318Y1883613D1*
X1163682Y1881786D1*
X1166557Y1891228D1*
X1170193Y1898363D1*
X1174899Y1904841D1*
X1180561Y1910502D1*
X1187039Y1915209D1*
X1194173Y1918844D1*
X1201789Y1921318D1*
X1209697Y1922571D1*
X1217704D1*
X1225613Y1921318D1*
X1233228Y1918844D1*
X1240363Y1915209D1*
X1246841Y1910502D1*
X1252502Y1904841D1*
X1257209Y1898363D1*
X1260844Y1891228D1*
X1262677Y1885888D1*
X1262673Y1922728D1*
X1332156D1*
X1332201Y1935330D1*
X1326363Y1931193D1*
X1319228Y1927557D1*
X1311613Y1925083D1*
X1303704Y1923831D1*
X1295697D1*
X1287789Y1925083D1*
X1280173Y1927557D1*
X1273039Y1931193D1*
X1266561Y1935899D1*
X1260899Y1941561D1*
X1256193Y1948039D1*
X1252557Y1955173D1*
X1250725Y1960514D1*
X1250728Y1923673D1*
X1148673D1*
Y2025728D1*
X1242570D1*
X1232365Y2035699D1*
X1226186Y2037183D1*
X1220314Y2039615D1*
X1214895Y2042936D1*
X1210063Y2047063D1*
X1205936Y2051895D1*
X1202615Y2057314D1*
X1200183Y2063186D1*
X1198699Y2069365D1*
X1198201Y2075701D1*
X1198699Y2082036D1*
X1200183Y2088216D1*
X1203447Y2095572D1*
X1195433Y2098132D1*
X1188299Y2101767D1*
X1181821Y2106474D1*
X1176159Y2112136D1*
X1171452Y2118614D1*
X1167817Y2125748D1*
X1165343Y2133363D1*
X1164980Y2135190D1*
X1162104Y2125748D1*
X1158469Y2118614D1*
X1153762Y2112136D1*
X1148100Y2106474D1*
X1141622Y2101767D1*
X1134488Y2098132D1*
X1126873Y2095658D1*
X1118964Y2094405D1*
X1110957D1*
X1103048Y2095658D1*
X1095433Y2098132D1*
X1088299Y2101767D1*
X1081821Y2106474D1*
X1076159Y2112136D1*
X1071452Y2118614D1*
X1067817Y2125748D1*
X1065343Y2133363D1*
X1064980Y2135190D1*
X1062104Y2125748D1*
X1058469Y2118614D1*
X1053762Y2112136D1*
X1048100Y2106474D1*
X1041622Y2101767D1*
X1034488Y2098132D1*
X1026873Y2095658D1*
X1018964Y2094405D1*
X1010957D1*
X1003048Y2095658D1*
X995433Y2098132D1*
X988299Y2101767D1*
X981821Y2106474D1*
X976159Y2112136D1*
X971452Y2118614D1*
X967817Y2125748D1*
X965343Y2133363D1*
X964090Y2141272D1*
Y2149279D1*
X965343Y2157188D1*
X967817Y2164803D1*
X971047Y2171214D1*
X950759Y2171316D1*
X944947Y2172237D1*
X939350Y2174055D1*
X934107Y2176727D1*
X929346Y2180185D1*
X905467Y2203901D1*
X880053Y2203763D1*
X886260Y2199565D1*
X891814Y2194534D1*
X896602Y2188769D1*
X900529Y2182387D1*
X903517Y2175515D1*
X905506Y2168290D1*
X906455Y2160857D1*
X906304Y2152881D1*
X905072Y2145490D1*
X902810Y2138345D1*
X899563Y2131592D1*
X895396Y2125363D1*
X890392Y2119785D1*
X884651Y2114969D1*
X878288Y2111010D1*
X871431Y2107988D1*
X864216Y2105964D1*
X856787Y2104977D1*
X849294Y2105049D1*
X841885Y2106176D1*
X834710Y2108337D1*
X827911Y2111489D1*
X821625Y2115568D1*
X815977Y2120493D1*
X811080Y2126165D1*
X807032Y2132472D1*
X803914Y2139286D1*
X801788Y2146472D1*
X800698Y2153886D1*
X800663Y2161379D1*
X801686Y2168803D1*
X803746Y2176008D1*
X806802Y2182851D1*
X810792Y2189194D1*
X815637Y2194910D1*
X821240Y2199887D1*
X827245Y2203878D1*
X799547D1*
Y2311870D1*
X806042D1*
X806043Y2398255D1*
X796894Y2411226D1*
X792255Y2419511D1*
X788280Y2428133D1*
X784993Y2437042D1*
X782416Y2446180D1*
X780564Y2455493D1*
X779448Y2464922D1*
X779075Y2474409D1*
X779448Y2483897D1*
X780564Y2493326D1*
X783453Y2506316D1*
X772390Y2498605D1*
X761379Y2492702D1*
X749770Y2488086D1*
X737713Y2484814D1*
X725363Y2482930D1*
X712878Y2482457D1*
X700421Y2483401D1*
X688150Y2485752D1*
X676226Y2489477D1*
X664800Y2494530D1*
X654020Y2500844D1*
X644025Y2508340D1*
X634943Y2516919D1*
X626892Y2526473D1*
X619976Y2536877D1*
X614283Y2547998D1*
X609887Y2559692D1*
X609334Y2561535D1*
X603982Y2552506D1*
X598273Y2545821D1*
X591589Y2540112D1*
X583922Y2535440D1*
X591589Y2530754D1*
X598273Y2525045D1*
X603982Y2518361D1*
X608575Y2510865D1*
X611939Y2502744D1*
X613991Y2494196D1*
X614681Y2485433D1*
X613991Y2476670D1*
X611939Y2468122D1*
X608575Y2460001D1*
X603982Y2452506D1*
X598273Y2445821D1*
X591589Y2440112D1*
X583922Y2435440D1*
X591589Y2430754D1*
X598273Y2425045D1*
X603982Y2418361D1*
X608575Y2410865D1*
X611939Y2402744D1*
X613991Y2394196D1*
X614681Y2385433D1*
X613991Y2376670D1*
X611939Y2368122D1*
X608575Y2360001D1*
X603982Y2352506D1*
X598273Y2345821D1*
X591589Y2340112D1*
X584094Y2335519D1*
X577665Y2332780D1*
X584452Y2329463D1*
X590622Y2325211D1*
X596103Y2320102D1*
X600777Y2314245D1*
X604542Y2307766D1*
X607318Y2300806D1*
X609045Y2293515D1*
X609689Y2285433D1*
X609139Y2277960D1*
X607500Y2270648D1*
X604808Y2263655D1*
X601121Y2257132D1*
X596519Y2251219D1*
X591100Y2246043D1*
X584981Y2241717D1*
X577722Y2238111D1*
X584094Y2235347D1*
X591589Y2230754D1*
X598273Y2225045D1*
X603982Y2218361D1*
X608575Y2210865D1*
X611939Y2202744D1*
X613991Y2194196D1*
X614681Y2185433D1*
X613991Y2176670D1*
X611939Y2168122D1*
X608575Y2160001D1*
X603982Y2152506D1*
X598273Y2145821D1*
X591589Y2140112D1*
X583922Y2135440D1*
X591589Y2130754D1*
X598273Y2125045D1*
X603982Y2118361D1*
X608575Y2110865D1*
X611939Y2102744D1*
X613991Y2094196D1*
X614681Y2085433D1*
X613991Y2076670D1*
X611939Y2068122D1*
X608575Y2060001D1*
X603982Y2052506D1*
X598273Y2045821D1*
X591589Y2040112D1*
X583922Y2035440D1*
X591589Y2030754D1*
X598273Y2025045D1*
X603982Y2018361D1*
X608575Y2010865D1*
X611939Y2002744D1*
X613991Y1994196D1*
X614681Y1985433D1*
X613991Y1976670D1*
X611939Y1968122D1*
X608575Y1960001D1*
X603982Y1952506D1*
X598273Y1945821D1*
X591589Y1940112D1*
X583922Y1935440D1*
X591589Y1930754D1*
X598273Y1925045D1*
X603982Y1918361D1*
X608575Y1910865D1*
X611939Y1902744D1*
X613991Y1894196D1*
X614681Y1885433D1*
X613991Y1876670D1*
X611939Y1868122D1*
X608575Y1860001D1*
X603982Y1852506D1*
X598273Y1845821D1*
X591589Y1840112D1*
X583922Y1835440D1*
X591589Y1830754D1*
X598273Y1825045D1*
X603982Y1818361D1*
X608575Y1810865D1*
X611939Y1802744D1*
X613991Y1794196D1*
X614681Y1785433D1*
X613991Y1776670D1*
X611939Y1768122D1*
X608575Y1760001D1*
X603982Y1752506D1*
X598273Y1745821D1*
X591589Y1740112D1*
X583922Y1735440D1*
X591589Y1730754D1*
X598273Y1725045D1*
X603982Y1718361D1*
X608575Y1710865D1*
X611939Y1702744D1*
X613991Y1694196D1*
X614681Y1685433D1*
X613991Y1676670D1*
X611939Y1668122D1*
X608575Y1660001D1*
X603982Y1652506D1*
X598273Y1645821D1*
X591589Y1640112D1*
X583922Y1635440D1*
X591589Y1630754D1*
X598273Y1625045D1*
X603982Y1618361D1*
X608575Y1610865D1*
X611939Y1602744D1*
X613991Y1594196D1*
X614681Y1585433D1*
X613991Y1576670D1*
X611939Y1568122D1*
X608575Y1560001D1*
X603982Y1552506D1*
X598273Y1545821D1*
X591589Y1540112D1*
X583922Y1535440D1*
X591589Y1530754D1*
X598273Y1525045D1*
X603982Y1518361D1*
X608575Y1510865D1*
X611939Y1502744D1*
X613991Y1494196D1*
X614681Y1485433D1*
X613991Y1476670D1*
X611939Y1468122D1*
X608575Y1460001D1*
X603982Y1452506D1*
X598273Y1445821D1*
X591589Y1440112D1*
X583922Y1435440D1*
X591589Y1430754D1*
X598273Y1425045D1*
X603982Y1418361D1*
X608575Y1410865D1*
X611939Y1402744D1*
X613991Y1394196D1*
X614681Y1385433D1*
X613991Y1376670D1*
X611939Y1368122D1*
X608575Y1360001D1*
X603982Y1352506D1*
X598273Y1345821D1*
X591589Y1340112D1*
X583922Y1335440D1*
X591589Y1330754D1*
X598273Y1325045D1*
X603982Y1318361D1*
X608575Y1310865D1*
X611939Y1302744D1*
X613991Y1294196D1*
X614681Y1285433D1*
X613991Y1276670D1*
X611939Y1268122D1*
X608575Y1260001D1*
X603982Y1252506D1*
X598273Y1245821D1*
X591589Y1240112D1*
X583922Y1235440D1*
X591589Y1230754D1*
X598273Y1225045D1*
X603982Y1218361D1*
X608575Y1210865D1*
X611939Y1202744D1*
X613991Y1194196D1*
X614681Y1185433D1*
X613991Y1176670D1*
X611939Y1168122D1*
X608575Y1160001D1*
X603982Y1152506D1*
X598273Y1145821D1*
X591589Y1140112D1*
X583922Y1135440D1*
X591589Y1130754D1*
X598273Y1125045D1*
X603982Y1118361D1*
X608575Y1110865D1*
X611939Y1102744D1*
X613991Y1094196D1*
X614681Y1085433D1*
X613991Y1076670D1*
X611939Y1068122D1*
X608575Y1060001D1*
X603982Y1052506D1*
X598273Y1045821D1*
X591589Y1040112D1*
X583922Y1035440D1*
X591589Y1030754D1*
X598273Y1025045D1*
X603982Y1018361D1*
X608575Y1010865D1*
X611939Y1002744D1*
X613991Y994196D1*
X614681Y985433D1*
X613991Y976670D1*
X611939Y968122D1*
X608575Y960001D1*
X603982Y952506D1*
X598273Y945821D1*
X591589Y940112D1*
X583922Y935440D1*
X591589Y930754D1*
X598273Y925045D1*
X603982Y918361D1*
X608575Y910865D1*
X611939Y902744D1*
X613991Y894196D1*
X614681Y885433D1*
X613991Y876670D1*
X611939Y868122D1*
X608575Y860001D1*
X603982Y852506D1*
X598273Y845821D1*
X591589Y840112D1*
X584094Y835519D1*
X575972Y832155D1*
X567425Y830103D1*
X558661Y829413D1*
X549898Y830103D1*
X541350Y832155D1*
X533229Y835519D1*
X525734Y840112D1*
X519050Y845821D1*
X513341Y852506D1*
X508748Y860001D1*
X506008Y866429D1*
X502456Y859245D1*
X498149Y853114D1*
X492990Y847679D1*
X487091Y843059D1*
X480578Y839352D1*
X473594Y836639D1*
X466287Y834978D1*
X458815Y834406D1*
X451341Y834933D1*
X444024Y836550D1*
X437023Y839221D1*
X430488Y842888D1*
X426201Y846070D1*
Y685637D1*
X502670Y685673D1*
X506200Y690970D1*
X527927Y712698D1*
X532911Y716028D1*
X538535Y718103D1*
X544488Y718807D1*
X607553D1*
X618568Y729827D1*
X618673Y916174D1*
X619842Y922053D1*
X622352Y927497D1*
X626063Y932205D1*
X674761Y980902D1*
X670596Y987335D1*
X668296Y992888D1*
X666893Y998732D1*
X666421Y1004724D1*
X666893Y1010716D1*
X668296Y1016561D1*
X670596Y1022114D1*
X671876Y1024399D1*
X669337Y1029437D1*
X667480Y1035153D1*
X666539Y1041089D1*
Y1047100D1*
X667480Y1053036D1*
X669337Y1058752D1*
X671876Y1063770D1*
X669337Y1068807D1*
X667480Y1074523D1*
X666539Y1080459D1*
Y1086470D1*
X667480Y1092406D1*
X669337Y1098123D1*
X671876Y1103140D1*
X669337Y1108177D1*
X667480Y1113893D1*
X666539Y1119829D1*
Y1125840D1*
X667480Y1131776D1*
X669337Y1137493D1*
X671876Y1142510D1*
X669337Y1147547D1*
X667480Y1153263D1*
X666539Y1159199D1*
Y1165210D1*
X667480Y1171146D1*
X669337Y1176863D1*
X671876Y1181880D1*
X669337Y1186917D1*
X667480Y1192633D1*
X666539Y1198570D1*
Y1204580D1*
X667480Y1210516D1*
X669337Y1216233D1*
X671876Y1221250D1*
X669337Y1226287D1*
X667480Y1232003D1*
X666539Y1237940D1*
Y1243950D1*
X667480Y1249887D1*
X669337Y1255603D1*
X671876Y1260620D1*
X669337Y1265657D1*
X667480Y1271373D1*
X666539Y1277310D1*
Y1283320D1*
X667480Y1289257D1*
X669337Y1294973D1*
X672066Y1300328D1*
X675068Y1304517D1*
X672801Y1310170D1*
X671483Y1317537D1*
X671842Y1325012D1*
X673861Y1332219D1*
X675061Y1334815D1*
X670596Y1341666D1*
X668296Y1347219D1*
X666893Y1353063D1*
X666421Y1359055D1*
X666893Y1365047D1*
X668296Y1370891D1*
X670596Y1376444D1*
X671876Y1378730D1*
X669337Y1383767D1*
X667480Y1389484D1*
X666539Y1395420D1*
Y1401430D1*
X667480Y1407367D1*
X669337Y1413083D1*
X671876Y1418100D1*
X669337Y1423137D1*
X667480Y1428854D1*
X666539Y1434790D1*
Y1440801D1*
X667480Y1446737D1*
X669337Y1452453D1*
X672066Y1457809D1*
X675068Y1461998D1*
X672801Y1467650D1*
X671483Y1475017D1*
X671842Y1482493D1*
X673861Y1489699D1*
X677439Y1496273D1*
X679200Y1498551D1*
X675884Y1504589D1*
X673892Y1511652D1*
X673604Y1518985D1*
X675036Y1526182D1*
X678108Y1532846D1*
X682651Y1538609D1*
X688414Y1543152D1*
X690243Y1544176D1*
X690345Y1647169D1*
X691184Y1652465D1*
X692841Y1657564D1*
X695275Y1662342D1*
X698427Y1666679D1*
X700256Y1668657D1*
X704020Y1683268D1*
Y1693570D1*
X697721Y1693587D1*
Y1727913D1*
X635587Y1727909D1*
Y1859492D1*
X695626Y1859602D1*
Y1895909D1*
X779965D1*
Y1859493D1*
X840004Y1859492D1*
Y1727909D1*
X777865D1*
X777870Y1693587D1*
X772353D1*
X772253Y1655587D1*
X771414Y1650291D1*
X769757Y1645192D1*
X767323Y1640414D1*
X764172Y1636077D1*
X758587Y1630343D1*
X758579Y1544192D1*
X764368Y1540273D1*
X769349Y1534884D1*
X772935Y1528481D1*
X774927Y1521419D1*
X775215Y1514086D1*
X774618Y1510103D1*
X779915Y1516298D1*
X786119Y1521598D1*
X793077Y1525861D1*
X800616Y1528984D1*
X808550Y1530889D1*
X816685Y1531529D1*
X824820Y1530889D1*
X832754Y1528984D1*
X840293Y1525861D1*
X847251Y1521598D1*
X853456Y1516298D1*
X858755Y1510093D1*
X863019Y1503136D1*
X866141Y1495597D1*
X868046Y1487662D1*
X868686Y1479528D1*
X868046Y1471393D1*
X866141Y1463458D1*
X863019Y1455919D1*
X858755Y1448962D1*
X853456Y1442757D1*
X847251Y1437458D1*
X840293Y1433194D1*
X832754Y1430071D1*
X824820Y1428166D1*
X816685Y1427526D1*
X808550Y1428166D1*
X800616Y1430071D1*
X793077Y1433194D1*
X786119Y1437458D1*
X782292Y1440559D1*
X782280Y1434790D1*
X781339Y1428854D1*
X779482Y1423137D1*
X776943Y1418120D1*
X779482Y1413083D1*
X781339Y1407367D1*
X782280Y1401430D1*
Y1395420D1*
X781339Y1389484D1*
X779482Y1383767D1*
X776943Y1378750D1*
X779482Y1373713D1*
X781339Y1367997D1*
X782280Y1362060D1*
Y1356050D1*
X781339Y1350113D1*
X779482Y1344397D1*
X776753Y1339042D1*
X773751Y1334853D1*
X776116Y1328864D1*
X777357Y1321483D1*
X777031Y1314704D1*
X775088Y1307476D1*
X773751Y1304557D1*
X778223Y1297704D1*
X780523Y1292151D1*
X781926Y1286307D1*
X782398Y1280315D1*
X781926Y1274323D1*
X780523Y1268479D1*
X778223Y1262926D1*
X776943Y1260640D1*
X779482Y1255603D1*
X781339Y1249887D1*
X782280Y1243950D1*
Y1237940D1*
X781339Y1232003D1*
X779482Y1226287D1*
X776943Y1221270D1*
X779482Y1216233D1*
X781339Y1210516D1*
X782280Y1204580D1*
Y1198570D1*
X781339Y1192633D1*
X779482Y1186917D1*
X776943Y1181900D1*
X779482Y1176863D1*
X781339Y1171146D1*
X782280Y1165210D1*
Y1159199D1*
X781339Y1153263D1*
X779482Y1147547D1*
X776943Y1142530D1*
X779482Y1137493D1*
X781339Y1131776D1*
X782280Y1125840D1*
Y1119829D1*
X781339Y1113893D1*
X779482Y1108177D1*
X776943Y1103160D1*
X779482Y1098123D1*
X781339Y1092406D1*
X782280Y1086470D1*
Y1080459D1*
X781339Y1074523D1*
X779482Y1068807D1*
X776943Y1063789D1*
X779482Y1058752D1*
X781339Y1053036D1*
X782280Y1047100D1*
Y1041089D1*
X781339Y1035153D1*
X779482Y1029437D1*
X776943Y1024419D1*
X779482Y1019382D1*
X781339Y1013666D1*
X782280Y1007730D1*
Y1001719D1*
X781339Y995783D1*
X779482Y990066D1*
X776753Y984711D1*
X773775Y980477D1*
X776485Y973131D1*
X777406Y965354D1*
X776485Y957578D1*
X774669Y952171D1*
X779443Y950724D1*
X784674Y947795D1*
X793491Y939422D1*
X798976Y933492D1*
X801905Y928262D1*
X803533Y922493D1*
X803847Y918504D1*
X803533Y860578D1*
X801905Y854808D1*
X798976Y849578D1*
X796378Y846536D1*
X771288Y821890D1*
X766058Y818961D1*
X760288Y817334D1*
X751897Y817020D1*
X736548Y801666D1*
X736524Y683738D1*
X758114Y683705D1*
Y581649D1*
X661680D1*
X661721Y538781D1*
X755752Y538823D1*
Y436767D1*
X586768D1*
Y538823D1*
X610743D1*
X610720Y581613D1*
X589130Y581649D1*
Y667831D1*
X572651Y667807D1*
X572681Y583618D1*
X476247D1*
X476288Y539968D1*
X572288Y540004D1*
Y437949D1*
X426244D1*
X426201Y426201D1*
X1283183D1*
X1283224Y591972D1*
X1285724D1*
X721890Y1775705D2*
X753726D1*
X753697Y1809599D1*
X721894Y1809492D1*
Y1775713D1*
X901015Y2311870D2*
X907539D1*
X907717Y2291201D1*
X914567Y2290739D1*
X920289Y2289366D1*
X925725Y2287114D1*
X930743Y2284039D1*
X935217Y2280217D1*
X969226Y2246209D1*
X1192714Y2246201D1*
X1192673Y2299185D1*
X1199330Y2299253D1*
X1192756Y2306271D1*
X1189827Y2311501D1*
X1188200Y2317271D1*
X1187886Y2321260D1*
Y2348555D1*
X1170233Y2348578D1*
Y2409174D1*
X1133552Y2409193D1*
X1133524Y2391891D1*
X1029469D1*
Y2404440D1*
X1016746Y2404615D1*
X1009384Y2405781D1*
X1002282Y2408090D1*
X997831Y2403331D1*
X991952Y2395875D1*
X985507Y2388902D1*
X978535Y2382457D1*
X971078Y2376579D1*
X963183Y2371304D1*
X954899Y2366664D1*
X946276Y2362689D1*
X937368Y2359403D1*
X928229Y2356825D1*
X918917Y2354973D1*
X909488Y2353857D1*
X901075Y2353526D1*
X901043Y2311888D1*
X1468673Y2717155D2*
Y2773013D1*
X1359721Y2773019D1*
Y2920236D1*
X1207948Y2920256D1*
X1207981Y2773019D1*
X1126194D1*
X1128411Y2764336D1*
X1128996Y2756906D1*
Y2504220D1*
X1217113Y2504047D1*
X1224474Y2502881D1*
X1231563Y2500577D1*
X1238205Y2497193D1*
X1244235Y2492812D1*
X1246192Y2491002D1*
X1257540Y2491004D1*
Y2474158D1*
X1259573Y2467782D1*
X1260739Y2460420D1*
Y2452966D1*
X1259573Y2445604D1*
X1257537Y2439240D1*
X1257540Y2422382D1*
X1246260D1*
X1241306Y2418265D1*
X1236438Y2415203D1*
X1256540Y2415201D1*
Y2348578D1*
X1238913D1*
X1238886Y2331848D1*
X1255669Y2314595D1*
X1258598Y2309365D1*
X1260226Y2303595D1*
X1260539Y2299167D1*
X1345910Y2299185D1*
Y2253941D1*
X1399346Y2307216D1*
X1404107Y2310675D1*
X1409350Y2313346D1*
X1414947Y2315165D1*
X1420759Y2316085D1*
X1541732Y2316201D1*
X1547599Y2315739D1*
X1553320Y2314366D1*
X1558757Y2312114D1*
X1563783Y2309032D1*
X1565650Y2308411D1*
X1566991Y2313990D1*
X1566874Y2316295D1*
X1410390D1*
Y2350914D1*
X1405413Y2347358D1*
X1399751Y2344473D1*
X1393707Y2342509D1*
X1387430Y2341515D1*
X1381074D1*
X1374797Y2342509D1*
X1368753Y2344473D1*
X1363091Y2347358D1*
X1361263Y2348579D1*
X1276532D1*
Y2490004D1*
X1283221D1*
X1283185Y2557674D1*
X1203366Y2557649D1*
Y2738445D1*
X1364477D1*
Y2717204D1*
X1468689Y2717201D1*
X1471769Y2802594D2*
X1570729D1*
Y2717194D1*
X1609203Y2717201D1*
X1609225Y2799445D1*
X1711280D1*
Y2630460D1*
X1696778D1*
X1696752Y2378479D1*
X1732181Y2413913D1*
X1732279Y2611670D1*
X1733449Y2617549D1*
X1735958Y2622993D1*
X1739670Y2627701D1*
X1784174Y2672205D1*
X1782594Y2681429D1*
Y2689437D1*
X1783847Y2697345D1*
X1786321Y2704960D1*
X1789956Y2712095D1*
X1794663Y2718573D1*
X1800325Y2724235D1*
X1806803Y2728941D1*
X1813937Y2732576D1*
X1819278Y2734409D1*
X1782437Y2734406D1*
Y2836461D1*
X1884492D1*
Y2812642D1*
X1888144Y2818361D1*
X1893853Y2825045D1*
X1900537Y2830754D1*
X1908032Y2835347D1*
X1916154Y2838711D1*
X1924701Y2840763D1*
X1933465Y2841453D1*
X1942228Y2840763D1*
X1950776Y2838711D1*
X1958897Y2835347D1*
X1963549Y2832654D1*
X1963563Y2920293D1*
X1471717Y2920256D1*
X1471760Y2802587D1*
X1132462Y2043782D2*
X1131547Y2036345D1*
X1129552Y2029122D1*
X1126521Y2022269D1*
X1122519Y2015934D1*
X1117632Y2010253D1*
X1111966Y2005350D1*
X1105644Y2001329D1*
X1098800Y1998277D1*
X1091583Y1996260D1*
X1084149Y1995322D1*
X1076657Y1995483D1*
X1069270Y1996740D1*
X1062147Y1999064D1*
X1055440Y2002407D1*
X1049296Y2006696D1*
X1043846Y2011839D1*
X1039208Y2017724D1*
X1035481Y2024225D1*
X1032747Y2031202D1*
X1031065Y2038503D1*
X1030469Y2045973D1*
X1030975Y2053449D1*
X1032569Y2060771D1*
X1035219Y2067780D1*
X1038866Y2074326D1*
X1043433Y2080266D1*
X1048821Y2085474D1*
X1054913Y2089837D1*
X1061578Y2093261D1*
X1068673Y2095671D1*
X1076045Y2097016D1*
X1083534Y2097268D1*
X1090979Y2096420D1*
X1098220Y2094490D1*
X1105099Y2091521D1*
X1111470Y2087577D1*
X1117195Y2082742D1*
X1122150Y2077120D1*
X1126228Y2070834D1*
X1129342Y2064018D1*
X1131423Y2056820D1*
X1132429Y2049395D1*
X1132462Y2043782D1*
X1419839Y2197981D2*
Y2221810D1*
X1378055Y2180185D1*
X1373295Y2176727D1*
X1368041Y2174051D1*
X1365988Y2171303D1*
Y2101918D1*
X1397091Y2070750D1*
X1398335Y2069171D1*
X1398579Y2078480D1*
Y2107720D1*
X1443589D1*
X1443587Y2112713D1*
X1454280D1*
X1454113Y2120894D1*
X1455105Y2127159D1*
X1448087Y2122615D1*
X1442216Y2120183D1*
X1436036Y2118699D1*
X1429701Y2118201D1*
X1423365Y2118699D1*
X1417186Y2120183D1*
X1411314Y2122615D1*
X1405895Y2125936D1*
X1401063Y2130063D1*
X1396936Y2134895D1*
X1393615Y2140314D1*
X1391183Y2146186D1*
X1389699Y2152365D1*
X1389201Y2158701D1*
X1389699Y2165036D1*
X1391183Y2171216D1*
X1393615Y2177087D1*
X1396936Y2182506D1*
X1401063Y2187339D1*
X1405895Y2191466D1*
X1411314Y2194787D1*
X1417186Y2197219D1*
X1419828Y2197964D1*
X1332160Y1820673D2*
X1294581Y1820449D1*
X1292646Y1819904D1*
X1292122Y1799700D1*
X1290953Y1793821D1*
X1288443Y1788377D1*
X1284732Y1783670D1*
X1261703Y1760640D1*
X1261720Y1729375D1*
X1266649Y1730946D1*
X1272585Y1731886D1*
X1278596D1*
X1284532Y1730946D1*
X1290249Y1729088D1*
X1295266Y1726549D1*
X1300303Y1729088D1*
X1306019Y1730946D1*
X1311955Y1731886D1*
X1317966D1*
X1323902Y1730946D1*
X1329619Y1729088D1*
X1334974Y1726360D1*
X1339208Y1723381D1*
X1346554Y1726091D1*
X1351261Y1726855D1*
X1337071Y1741484D1*
X1334142Y1746714D1*
X1332515Y1752483D1*
X1332201Y1756472D1*
Y1820681D1*
X1241208Y1828758D2*
X1233228Y1824557D1*
X1225613Y1822083D1*
X1217704Y1820831D1*
X1209697D1*
X1200508Y1822444D1*
X1197201Y1816900D1*
Y1761383D1*
X1205795Y1752300D1*
X1208724Y1747069D1*
X1210352Y1741300D1*
X1210665Y1731730D1*
X1210799Y1773221D1*
X1211969Y1779100D1*
X1214478Y1784544D1*
X1218189Y1789252D1*
X1241219Y1812281D1*
X1241201Y1828732D1*
X1126893Y1822444D2*
X1117704Y1820831D1*
X1109697D1*
X1101789Y1822083D1*
X1094173Y1824557D1*
X1087039Y1828193D1*
X1080561Y1832899D1*
X1074899Y1838561D1*
X1070193Y1845039D1*
X1066557Y1852173D1*
X1064083Y1859789D1*
X1063720Y1861615D1*
X1061757Y1854542D1*
X1058726Y1847689D1*
X1054724Y1841354D1*
X1049837Y1835673D1*
X1044171Y1830770D1*
X1038621Y1827188D1*
X1046036Y1826702D1*
X1052216Y1825219D1*
X1058087Y1822787D1*
X1063506Y1819466D1*
X1068339Y1815339D1*
X1072466Y1810506D1*
X1075787Y1805087D1*
X1078219Y1799216D1*
X1079702Y1793036D1*
X1080201Y1786701D1*
X1079702Y1780365D1*
X1078219Y1774186D1*
X1075787Y1768314D1*
X1072466Y1762895D1*
X1068339Y1758063D1*
X1065194Y1755266D1*
X1065201Y1724121D1*
X1070964Y1726091D1*
X1078740Y1727012D1*
X1086516Y1726091D1*
X1093863Y1723381D1*
X1098424Y1720568D1*
X1104087Y1723916D1*
X1111187Y1726284D1*
X1118636Y1727008D1*
X1126058Y1726050D1*
X1133080Y1723459D1*
X1135359Y1722194D1*
X1137670Y1726117D1*
X1133958Y1730825D1*
X1131449Y1736268D1*
X1130279Y1742148D1*
X1130201Y1819134D1*
X1126932Y1822407D1*
X1010054Y2708130D2*
X1009062Y2695676D1*
X1006666Y2683415D1*
X1002895Y2671504D1*
X997799Y2660098D1*
X991444Y2649342D1*
X983910Y2639375D1*
X975296Y2630326D1*
X965712Y2622312D1*
X955282Y2615435D1*
X944140Y2609784D1*
X932429Y2605432D1*
X920301Y2602435D1*
X907911Y2600832D1*
X895419Y2600643D1*
X882986Y2601870D1*
X870772Y2604498D1*
X858935Y2608493D1*
X847627Y2613804D1*
X836993Y2620362D1*
X827171Y2628082D1*
X818286Y2636866D1*
X812009Y2644482D1*
X817250Y2633202D1*
X821201Y2621349D1*
X823784Y2609126D1*
X824964Y2596689D1*
X824788Y2585025D1*
X823231Y2572630D1*
X821993Y2566814D1*
X828922Y2572240D1*
X836817Y2577515D1*
X845101Y2582155D1*
X853724Y2586130D1*
X862632Y2589416D1*
X871771Y2591993D1*
X881083Y2593846D1*
X890512Y2594962D1*
X900000Y2595335D1*
X909488Y2594962D1*
X918917Y2593846D1*
X928229Y2591993D1*
X937368Y2589416D1*
X946276Y2586130D1*
X954899Y2582155D1*
X963183Y2577515D1*
X971078Y2572240D1*
X978535Y2566362D1*
X985507Y2559916D1*
X991952Y2552944D1*
X997831Y2545487D1*
X1003106Y2537593D1*
X1007745Y2529308D1*
X1012041Y2519816D1*
X1019596Y2516732D1*
X1025951Y2512838D1*
X1031619Y2507997D1*
X1034001Y2505615D1*
X1033996Y2737229D1*
X950647Y2820580D1*
X908738Y2820365D1*
X921116Y2818668D1*
X933221Y2815580D1*
X944899Y2811140D1*
X955998Y2805405D1*
X966377Y2798450D1*
X975900Y2790363D1*
X984445Y2781250D1*
X991903Y2771227D1*
X998177Y2760423D1*
X1003187Y2748978D1*
X1006868Y2737040D1*
X1009172Y2724761D1*
X1010070Y2712300D1*
X1010054Y2708130D1*
X802982Y2658627D2*
X798337Y2668406D1*
X794208Y2680197D1*
X791441Y2692380D1*
X790072Y2704798D1*
X790119Y2717291D1*
X791581Y2729698D1*
X794440Y2741860D1*
X798659Y2753620D1*
X804182Y2764826D1*
X810940Y2775333D1*
X818845Y2785008D1*
X827795Y2793724D1*
X837675Y2801370D1*
X848358Y2807848D1*
X859706Y2813073D1*
X871573Y2816979D1*
X883807Y2819515D1*
X895400Y2820610D1*
X660965D1*
X607288Y2766885D1*
X603022Y2758249D1*
X598223Y2751644D1*
X592451Y2745871D1*
X585846Y2741072D1*
X578572Y2737366D1*
X571099Y2734925D1*
X577726Y2732766D1*
X584452Y2729463D1*
X590622Y2725211D1*
X596103Y2720102D1*
X600777Y2714245D1*
X604542Y2707766D1*
X607318Y2700806D1*
X609045Y2693515D1*
X609689Y2685433D1*
X609139Y2677960D1*
X607500Y2670648D1*
X604808Y2663655D1*
X601121Y2657132D1*
X596519Y2651219D1*
X591100Y2646043D1*
X584981Y2641717D1*
X577722Y2638111D1*
X584094Y2635347D1*
X591589Y2630754D1*
X598273Y2625045D1*
X603982Y2618361D1*
X607003Y2614045D1*
X610137Y2626139D1*
X614622Y2637800D1*
X620398Y2648877D1*
X627393Y2659229D1*
X635516Y2668721D1*
X644661Y2677232D1*
X654713Y2684652D1*
X665540Y2690885D1*
X677004Y2695852D1*
X688956Y2699487D1*
X701244Y2701744D1*
X713708Y2702595D1*
X726189Y2702028D1*
X738524Y2700051D1*
X750557Y2696688D1*
X762131Y2691984D1*
X773097Y2685999D1*
X783314Y2678810D1*
X792651Y2670509D1*
X800988Y2661204D1*
X802974Y2658629D1*
X1797583Y762744D2*
X1853673D1*
Y744141D1*
X1855410Y743292D1*
X1864878Y743076D1*
X1871155Y742082D1*
X1877199Y740118D1*
X1882862Y737233D1*
X1888003Y733497D1*
X1892497Y729003D1*
X1896233Y723862D1*
X1899118Y718199D1*
X1901082Y712155D1*
X1902076Y705878D1*
Y699523D1*
X1901082Y693246D1*
X1899118Y687202D1*
X1896233Y681540D1*
X1892497Y676398D1*
X1888003Y671904D1*
X1882862Y668169D1*
X1877199Y665284D1*
X1871155Y663320D1*
X1864878Y662326D1*
X1858523D1*
X1852246Y663320D1*
X1846202Y665284D1*
X1840540Y668169D1*
X1835398Y671904D1*
X1830904Y676398D1*
X1829328Y678398D1*
X1785083Y678405D1*
Y762744D1*
X1797583D1*
X1750181Y672193D2*
X1816272D1*
Y587854D1*
X1747681D1*
Y672193D1*
X1750181D1*
X676433Y683705D2*
X685564D1*
X685602Y814205D1*
X686772Y820085D1*
X689281Y825528D1*
X692992Y830236D1*
X716091Y853334D1*
X702052Y853411D1*
X694707Y854845D1*
X687867Y857883D1*
X681878Y862372D1*
X677043Y868084D1*
X673605Y874732D1*
X671737Y881980D1*
X671535Y889461D1*
X673009Y896799D1*
X676083Y903622D1*
X677775Y906405D1*
X675688Y909711D1*
X669595Y901673D1*
X669281Y715302D1*
X667654Y709533D1*
X664725Y704303D1*
X662126Y701260D1*
X644552Y683686D1*
X676433Y683705D1*
X1722185Y1080851D2*
X1721664Y1077181D1*
X1728769Y1075108D1*
X1731398Y1074551D1*
X1755958D1*
X1762454Y1077968D1*
X1768498Y1079932D1*
X1774775Y1080926D1*
X1777618Y1081038D1*
Y1089828D1*
X1778993Y1098511D1*
X1781709Y1106871D1*
X1785700Y1114703D1*
X1790867Y1121815D1*
X1797083Y1128031D1*
X1804194Y1133198D1*
X1808032Y1135519D1*
X1800537Y1140112D1*
X1793853Y1145821D1*
X1788144Y1152506D1*
X1783551Y1160001D1*
X1780187Y1168122D1*
X1778135Y1176670D1*
X1777445Y1185433D1*
X1778135Y1194196D1*
X1780187Y1202744D1*
X1783551Y1210865D1*
X1788144Y1218361D1*
X1793853Y1225045D1*
X1800537Y1230754D1*
X1808204Y1235426D1*
X1800537Y1240112D1*
X1793853Y1245821D1*
X1788144Y1252506D1*
X1783551Y1260001D1*
X1780187Y1268122D1*
X1778135Y1276670D1*
X1777445Y1285433D1*
X1778135Y1294196D1*
X1780187Y1302744D1*
X1783551Y1310865D1*
X1788144Y1318361D1*
X1793853Y1325045D1*
X1800537Y1330754D1*
X1808204Y1335426D1*
X1800537Y1340112D1*
X1793853Y1345821D1*
X1788144Y1352506D1*
X1783551Y1360001D1*
X1780187Y1368122D1*
X1778135Y1376670D1*
X1777445Y1385433D1*
X1778135Y1394196D1*
X1780187Y1402744D1*
X1783551Y1410865D1*
X1788144Y1418361D1*
X1793853Y1425045D1*
X1800537Y1430754D1*
X1808204Y1435426D1*
X1800537Y1440112D1*
X1793853Y1445821D1*
X1788144Y1452506D1*
X1783551Y1460001D1*
X1780187Y1468122D1*
X1778135Y1476670D1*
X1777445Y1485433D1*
X1778135Y1494196D1*
X1780187Y1502744D1*
X1783551Y1510865D1*
X1788144Y1518361D1*
X1793853Y1525045D1*
X1800537Y1530754D1*
X1808204Y1535426D1*
X1800537Y1540112D1*
X1793853Y1545821D1*
X1788144Y1552506D1*
X1783551Y1560001D1*
X1780187Y1568122D1*
X1778135Y1576670D1*
X1777445Y1585433D1*
X1778135Y1594196D1*
X1780187Y1602744D1*
X1783551Y1610865D1*
X1788144Y1618361D1*
X1793853Y1625045D1*
X1800537Y1630754D1*
X1808204Y1635426D1*
X1800537Y1640112D1*
X1793853Y1645821D1*
X1788144Y1652506D1*
X1783551Y1660001D1*
X1780187Y1668122D1*
X1778135Y1676670D1*
X1777445Y1685433D1*
X1778135Y1694196D1*
X1780187Y1702744D1*
X1783551Y1710865D1*
X1788144Y1718361D1*
X1793853Y1725045D1*
X1800537Y1730754D1*
X1808032Y1735347D1*
X1814461Y1738087D1*
X1807409Y1741559D1*
X1801264Y1745848D1*
X1795814Y1750991D1*
X1791176Y1756876D1*
X1787450Y1763377D1*
X1784716Y1770354D1*
X1783033Y1777656D1*
X1782438Y1785125D1*
X1782943Y1792601D1*
X1784538Y1799923D1*
X1787187Y1806932D1*
X1790835Y1813478D1*
X1795402Y1819419D1*
X1800789Y1824627D1*
X1806881Y1828989D1*
X1813547Y1832413D1*
X1820642Y1834823D1*
X1823297Y1835432D1*
X1813937Y1838290D1*
X1806803Y1841925D1*
X1800325Y1846631D1*
X1794663Y1852293D1*
X1789956Y1858771D1*
X1786321Y1865906D1*
X1783847Y1873521D1*
X1782594Y1881429D1*
Y1889437D1*
X1783847Y1897345D1*
X1786321Y1904960D1*
X1789956Y1912095D1*
X1794663Y1918573D1*
X1800325Y1924235D1*
X1806803Y1928941D1*
X1813937Y1932576D1*
X1821552Y1935051D1*
X1823379Y1935414D1*
X1813937Y1938290D1*
X1806803Y1941925D1*
X1800325Y1946631D1*
X1794663Y1952293D1*
X1789956Y1958771D1*
X1786321Y1965906D1*
X1783847Y1973521D1*
X1782594Y1981429D1*
Y1989437D1*
X1783847Y1997345D1*
X1786321Y2004960D1*
X1789956Y2012095D1*
X1794663Y2018573D1*
X1800325Y2024235D1*
X1806803Y2028941D1*
X1814422Y2032755D1*
X1808032Y2035519D1*
X1800537Y2040112D1*
X1793853Y2045821D1*
X1788144Y2052506D1*
X1783551Y2060001D1*
X1780187Y2068122D1*
X1778135Y2076670D1*
X1777445Y2085433D1*
X1778135Y2094196D1*
X1780187Y2102744D1*
X1783551Y2110865D1*
X1788144Y2118361D1*
X1793853Y2125045D1*
X1800537Y2130754D1*
X1808204Y2135426D1*
X1800537Y2140112D1*
X1793853Y2145821D1*
X1788144Y2152506D1*
X1783551Y2160001D1*
X1780187Y2168122D1*
X1778135Y2176670D1*
X1777445Y2185433D1*
X1778135Y2194196D1*
X1780187Y2202744D1*
X1783551Y2210865D1*
X1788144Y2218361D1*
X1793853Y2225045D1*
X1800537Y2230754D1*
X1808204Y2235426D1*
X1800537Y2240112D1*
X1793853Y2245821D1*
X1788144Y2252506D1*
X1783551Y2260001D1*
X1780187Y2268122D1*
X1778135Y2276670D1*
X1777445Y2285433D1*
X1778112Y2294009D1*
X1757411Y2273317D1*
X1757390Y2107735D1*
X1765201Y2107720D1*
Y1985980D1*
X1757437D1*
X1757076Y1968846D1*
X1755449Y1963076D1*
X1752520Y1957846D1*
X1749921Y1954803D1*
X1716563Y1921890D1*
X1711333Y1918961D1*
X1705564Y1917334D1*
X1701575Y1917020D1*
X1457385D1*
X1457390Y1900078D1*
X1620193Y1900114D1*
Y1895085D1*
X1765201Y1895122D1*
Y1773382D1*
X1757535D1*
X1767087Y1763414D1*
X1770016Y1758184D1*
X1771643Y1752414D1*
X1771957Y1748425D1*
X1771878Y1155480D1*
X1770709Y1149600D1*
X1768199Y1144157D1*
X1764488Y1139449D1*
X1727981Y1103386D1*
X1722751Y1100457D1*
X1718937Y1099219D1*
X1718657Y1098587D1*
X1721367Y1091241D1*
X1722287Y1083465D1*
X1722185Y1080851D1*
X1658249Y1549846D2*
X1680612D1*
X1661260Y1569657D1*
X1658331Y1574887D1*
X1656704Y1580657D1*
X1656390Y1584646D1*
X1656142Y1627947D1*
X1653632Y1622503D1*
X1649921Y1617795D1*
X1606521Y1574395D1*
X1613743Y1576222D1*
X1620079Y1576720D1*
X1626414Y1576222D1*
X1632594Y1574738D1*
X1638465Y1572306D1*
X1643884Y1568986D1*
X1648717Y1564858D1*
X1652844Y1560026D1*
X1656165Y1554607D1*
X1658188Y1549843D1*
X1663858Y1566614D1*
X1660147Y1571322D1*
X1657638Y1576766D1*
X1656468Y1582645D1*
X1656390Y1584646D1*
X1496370Y1723193D2*
X1502464Y1725673D1*
X1509838Y1726953D1*
X1517311Y1726555D1*
X1524507Y1724497D1*
X1531062Y1720886D1*
X1536645Y1715902D1*
X1540975Y1709797D1*
X1543832Y1702880D1*
X1545073Y1695499D1*
X1545028Y1651833D1*
X1543632Y1644480D1*
X1540630Y1637625D1*
X1536173Y1631612D1*
X1530486Y1626747D1*
X1523857Y1623274D1*
X1516619Y1621368D1*
X1509139Y1621127D1*
X1501793Y1622562D1*
X1494954Y1625600D1*
X1492021Y1627382D1*
X1485189Y1623555D1*
X1477652Y1621430D1*
X1469827Y1621122D1*
X1462147Y1622650D1*
X1455036Y1625928D1*
X1452651Y1627382D1*
X1445818Y1623555D1*
X1438282Y1621430D1*
X1430457Y1621122D1*
X1422777Y1622650D1*
X1417582Y1624855D1*
X1416769Y1621640D1*
X1417017Y1620397D1*
X1420752Y1615256D1*
X1423638Y1609593D1*
X1425601Y1603549D1*
X1426596Y1597272D1*
Y1590917D1*
X1425601Y1584640D1*
X1423638Y1578596D1*
X1419600Y1571208D1*
X1514191Y1571201D1*
X1519398Y1576497D1*
X1524540Y1580233D1*
X1530202Y1583118D1*
X1536246Y1585082D1*
X1542523Y1586076D1*
X1548878D1*
X1552515Y1585627D1*
X1554142Y1591396D1*
X1557071Y1596626D1*
X1559669Y1599669D1*
X1606384Y1646384D1*
X1606390Y1768395D1*
X1464179Y1768346D1*
X1469623Y1765837D1*
X1474330Y1762126D1*
X1491496Y1744516D1*
X1494425Y1739286D1*
X1496052Y1733517D1*
X1496366Y1723229D1*
X1053667Y1624270D2*
X1047146Y1621940D1*
X1039370Y1621020D1*
X1031594Y1621940D1*
X1026279Y1623714D1*
X1026287Y1622381D1*
X1047402Y1600815D1*
X1050331Y1595585D1*
X1051958Y1589816D1*
X1052272Y1585827D1*
Y926012D1*
X1057949Y931978D1*
X1058759Y932616D1*
X1058504Y1610602D1*
X1055575Y1615832D1*
X1053948Y1621601D1*
X1053712Y1623598D1*
X1340967Y853400D2*
X1339690Y845341D1*
X1337169Y837580D1*
X1333464Y830310D1*
X1328668Y823708D1*
X1322898Y817938D1*
X1316297Y813142D1*
X1309026Y809437D1*
X1301265Y806916D1*
X1293206Y805639D1*
X1285046D1*
X1276987Y806916D1*
X1269226Y809437D1*
X1261955Y813142D1*
X1255354Y817938D1*
X1249584Y823708D1*
X1244788Y830310D1*
X1241083Y837580D1*
X1238561Y845341D1*
X1237285Y853400D1*
Y861560D1*
X1238561Y869620D1*
X1241083Y877380D1*
X1244788Y884651D1*
X1249584Y891252D1*
X1255354Y897022D1*
X1261955Y901819D1*
X1269226Y905523D1*
X1276987Y908045D1*
X1285046Y909321D1*
X1293206D1*
X1301265Y908045D1*
X1309026Y905523D1*
X1316297Y901819D1*
X1322898Y897022D1*
X1328668Y891252D1*
X1333464Y884651D1*
X1337169Y877380D1*
X1339690Y869620D1*
X1340967Y861560D1*
Y853400D1*
X1356169Y2490004D2*
X1362839D1*
Y2416264D1*
X1368753Y2419307D1*
X1374797Y2421271D1*
X1381074Y2422265D1*
X1387430D1*
X1393707Y2421271D1*
X1399751Y2419307D1*
X1405413Y2416422D1*
X1410390Y2412828D1*
Y2418350D1*
X1421181D1*
X1419320Y2424246D1*
X1418326Y2430523D1*
Y2436878D1*
X1419320Y2443155D1*
X1421284Y2449199D1*
X1424169Y2454862D1*
X1427904Y2460003D1*
X1432398Y2464497D1*
X1437540Y2468233D1*
X1443202Y2471118D1*
X1449246Y2473082D1*
X1455523Y2474076D1*
X1461878D1*
X1468155Y2473082D1*
X1474199Y2471118D1*
X1479862Y2468233D1*
X1485003Y2464497D1*
X1489497Y2460003D1*
X1493233Y2454862D1*
X1496118Y2449199D1*
X1498082Y2443155D1*
X1499076Y2436878D1*
Y2430523D1*
X1498082Y2424246D1*
X1496179Y2418350D1*
X1579374D1*
Y2331993D1*
X1623780Y2376399D1*
X1623731Y2630460D1*
X1609225D1*
Y2644181D1*
X1570728Y2644246D1*
Y2633610D1*
X1468673D1*
Y2644206D1*
X1371019Y2644201D1*
X1364477Y2637615D1*
Y2557649D1*
X1356225D1*
X1356185Y2490041D1*
X1095941Y2809592D2*
Y2920236D1*
X426209Y2920256D1*
X426201Y2836418D1*
X509689Y2836461D1*
Y2802994D1*
X512305Y2809053D1*
X516570Y2816014D1*
X521872Y2822222D1*
X528080Y2827524D1*
X535041Y2831790D1*
X540024Y2833970D1*
X610490Y2904230D1*
X616520Y2908611D1*
X623161Y2911995D1*
X630250Y2914298D1*
X637612Y2915464D1*
X716339Y2915610D1*
X974018Y2915464D1*
X981380Y2914298D1*
X988469Y2911995D1*
X995110Y2908611D1*
X1001140Y2904230D1*
X1056912Y2848665D1*
X1095962Y2809615D1*
X1884492Y2758228D2*
Y2734406D1*
X1847803D1*
X1856631Y2730899D1*
X1863458Y2726715D1*
X1869546Y2721515D1*
X1874747Y2715426D1*
X1878930Y2708599D1*
X1880787Y2704476D1*
X1883551Y2710865D1*
X1888144Y2718361D1*
X1893853Y2725045D1*
X1900537Y2730754D1*
X1908204Y2735426D1*
X1900537Y2740112D1*
X1893853Y2745821D1*
X1888144Y2752506D1*
X1884499Y2758307D1*
X1880787Y2666390D2*
X1876973Y2658771D1*
X1872266Y2652293D1*
X1866604Y2646631D1*
X1860126Y2641925D1*
X1852992Y2638290D1*
X1845377Y2635815D1*
X1843550Y2635452D1*
X1852992Y2632576D1*
X1860126Y2628941D1*
X1866604Y2624235D1*
X1872266Y2618573D1*
X1876973Y2612095D1*
X1880787Y2604476D1*
X1883551Y2610865D1*
X1888144Y2618361D1*
X1893853Y2625045D1*
X1900537Y2630754D1*
X1908204Y2635426D1*
X1900537Y2640112D1*
X1893853Y2645821D1*
X1888144Y2652506D1*
X1883551Y2660001D1*
X1880811Y2666429D1*
X1880787Y2566390D2*
X1876973Y2558771D1*
X1872266Y2552293D1*
X1866604Y2546631D1*
X1860126Y2541925D1*
X1852507Y2538111D1*
X1858897Y2535347D1*
X1866392Y2530754D1*
X1873076Y2525045D1*
X1878785Y2518361D1*
X1883458Y2510694D1*
X1888144Y2518361D1*
X1893853Y2525045D1*
X1900537Y2530754D1*
X1908204Y2535426D1*
X1900537Y2540112D1*
X1893853Y2545821D1*
X1888144Y2552506D1*
X1883551Y2560001D1*
X1880811Y2566429D1*
X1883458Y2460172D2*
X1878785Y2452506D1*
X1873076Y2445821D1*
X1866392Y2440112D1*
X1858897Y2435519D1*
X1852468Y2432780D1*
X1860126Y2428941D1*
X1866604Y2424235D1*
X1872266Y2418573D1*
X1876973Y2412095D1*
X1880787Y2404476D1*
X1883551Y2410865D1*
X1888144Y2418361D1*
X1893853Y2425045D1*
X1900537Y2430754D1*
X1908204Y2435426D1*
X1900537Y2440112D1*
X1893853Y2445821D1*
X1888144Y2452506D1*
X1883472Y2460172D1*
X1880787Y2366390D2*
X1876973Y2358771D1*
X1872266Y2352293D1*
X1866604Y2346631D1*
X1860126Y2341925D1*
X1852507Y2338111D1*
X1858897Y2335347D1*
X1866392Y2330754D1*
X1873076Y2325045D1*
X1878785Y2318361D1*
X1883458Y2310694D1*
X1888144Y2318361D1*
X1893853Y2325045D1*
X1900537Y2330754D1*
X1908204Y2335426D1*
X1900537Y2340112D1*
X1893853Y2345821D1*
X1888144Y2352506D1*
X1883551Y2360001D1*
X1880811Y2366429D1*
X1883458Y2260172D2*
X1878785Y2252506D1*
X1873076Y2245821D1*
X1866392Y2240112D1*
X1858725Y2235440D1*
X1866392Y2230754D1*
X1873076Y2225045D1*
X1878785Y2218361D1*
X1883458Y2210694D1*
X1888144Y2218361D1*
X1893853Y2225045D1*
X1900537Y2230754D1*
X1908204Y2235426D1*
X1900537Y2240112D1*
X1893853Y2245821D1*
X1888144Y2252506D1*
X1883472Y2260172D1*
X1883458Y2160172D2*
X1878785Y2152506D1*
X1873076Y2145821D1*
X1866392Y2140112D1*
X1858725Y2135440D1*
X1866392Y2130754D1*
X1873076Y2125045D1*
X1878785Y2118361D1*
X1883458Y2110694D1*
X1888144Y2118361D1*
X1893853Y2125045D1*
X1900537Y2130754D1*
X1908204Y2135426D1*
X1900537Y2140112D1*
X1893853Y2145821D1*
X1888144Y2152506D1*
X1883472Y2160172D1*
X1883458Y2060172D2*
X1878785Y2052506D1*
X1873076Y2045821D1*
X1866392Y2040112D1*
X1858897Y2035519D1*
X1852468Y2032780D1*
X1860126Y2028941D1*
X1866604Y2024235D1*
X1872266Y2018573D1*
X1876973Y2012095D1*
X1880787Y2004476D1*
X1883551Y2010865D1*
X1888144Y2018361D1*
X1893853Y2025045D1*
X1900537Y2030754D1*
X1908204Y2035426D1*
X1900537Y2040112D1*
X1893853Y2045821D1*
X1888144Y2052506D1*
X1883472Y2060172D1*
X1880787Y1966390D2*
X1876973Y1958771D1*
X1872266Y1952293D1*
X1866604Y1946631D1*
X1860126Y1941925D1*
X1852992Y1938290D1*
X1845377Y1935815D1*
X1843550Y1935452D1*
X1852992Y1932576D1*
X1860126Y1928941D1*
X1866604Y1924235D1*
X1872266Y1918573D1*
X1876973Y1912095D1*
X1880787Y1904476D1*
X1883551Y1910865D1*
X1888144Y1918361D1*
X1893853Y1925045D1*
X1900537Y1930754D1*
X1908204Y1935426D1*
X1900537Y1940112D1*
X1893853Y1945821D1*
X1888144Y1952506D1*
X1883551Y1960001D1*
X1880811Y1966429D1*
X1883462Y1775259D2*
X1881521Y1768274D1*
X1878490Y1761421D1*
X1874488Y1755086D1*
X1869601Y1749406D1*
X1863935Y1744502D1*
X1857612Y1740481D1*
X1852525Y1738111D1*
X1858897Y1735347D1*
X1866392Y1730754D1*
X1873076Y1725045D1*
X1878785Y1718361D1*
X1883458Y1710694D1*
X1888144Y1718361D1*
X1893853Y1725045D1*
X1900537Y1730754D1*
X1908032Y1735347D1*
X1914461Y1738087D1*
X1907409Y1741559D1*
X1901264Y1745848D1*
X1895814Y1750991D1*
X1891176Y1756876D1*
X1887450Y1763377D1*
X1884716Y1770354D1*
X1883466Y1775243D1*
X1883458Y1660172D2*
X1878785Y1652506D1*
X1873076Y1645821D1*
X1866392Y1640112D1*
X1858725Y1635440D1*
X1866392Y1630754D1*
X1873076Y1625045D1*
X1878785Y1618361D1*
X1883458Y1610694D1*
X1888144Y1618361D1*
X1893853Y1625045D1*
X1900537Y1630754D1*
X1908204Y1635426D1*
X1900537Y1640112D1*
X1893853Y1645821D1*
X1888144Y1652506D1*
X1883472Y1660172D1*
X1883458Y1560172D2*
X1878785Y1552506D1*
X1873076Y1545821D1*
X1866392Y1540112D1*
X1858725Y1535440D1*
X1866392Y1530754D1*
X1873076Y1525045D1*
X1878785Y1518361D1*
X1883458Y1510694D1*
X1888144Y1518361D1*
X1893853Y1525045D1*
X1900537Y1530754D1*
X1908204Y1535426D1*
X1900537Y1540112D1*
X1893853Y1545821D1*
X1888144Y1552506D1*
X1883472Y1560172D1*
X1883458Y1460172D2*
X1878785Y1452506D1*
X1873076Y1445821D1*
X1866392Y1440112D1*
X1858725Y1435440D1*
X1866392Y1430754D1*
X1873076Y1425045D1*
X1878785Y1418361D1*
X1883458Y1410694D1*
X1888144Y1418361D1*
X1893853Y1425045D1*
X1900537Y1430754D1*
X1908204Y1435426D1*
X1900537Y1440112D1*
X1893853Y1445821D1*
X1888144Y1452506D1*
X1883472Y1460172D1*
X1883458Y1360172D2*
X1878785Y1352506D1*
X1873076Y1345821D1*
X1866392Y1340112D1*
X1858725Y1335440D1*
X1866392Y1330754D1*
X1873076Y1325045D1*
X1878785Y1318361D1*
X1883458Y1310694D1*
X1888144Y1318361D1*
X1893853Y1325045D1*
X1900537Y1330754D1*
X1908204Y1335426D1*
X1900537Y1340112D1*
X1893853Y1345821D1*
X1888144Y1352506D1*
X1883472Y1360172D1*
X1883458Y1260172D2*
X1878785Y1252506D1*
X1873076Y1245821D1*
X1866392Y1240112D1*
X1858725Y1235440D1*
X1866392Y1230754D1*
X1873076Y1225045D1*
X1878785Y1218361D1*
X1883458Y1210694D1*
X1888144Y1218361D1*
X1893853Y1225045D1*
X1900537Y1230754D1*
X1908204Y1235426D1*
X1900537Y1240112D1*
X1893853Y1245821D1*
X1888144Y1252506D1*
X1883472Y1260172D1*
X1883458Y1160172D2*
X1878785Y1152506D1*
X1873076Y1145821D1*
X1866392Y1140112D1*
X1858725Y1135440D1*
X1866392Y1130754D1*
X1873076Y1125045D1*
X1878785Y1118361D1*
X1883458Y1110694D1*
X1888144Y1118361D1*
X1893853Y1125045D1*
X1900537Y1130754D1*
X1908204Y1135426D1*
X1900537Y1140112D1*
X1893853Y1145821D1*
X1888144Y1152506D1*
X1883472Y1160172D1*
X1883458Y1060172D2*
X1878785Y1052506D1*
X1873076Y1045821D1*
X1866392Y1040112D1*
X1858725Y1035440D1*
X1866392Y1030754D1*
X1873076Y1025045D1*
X1878785Y1018361D1*
X1883458Y1010694D1*
X1888144Y1018361D1*
X1893853Y1025045D1*
X1900537Y1030754D1*
X1908204Y1035426D1*
X1900537Y1040112D1*
X1893853Y1045821D1*
X1888144Y1052506D1*
X1883472Y1060172D1*
X1883458Y960172D2*
X1878785Y952506D1*
X1873076Y945821D1*
X1866392Y940112D1*
X1858897Y935519D1*
X1852468Y932780D1*
X1859255Y929463D1*
X1865425Y925211D1*
X1870906Y920102D1*
X1875580Y914245D1*
X1879345Y907766D1*
X1882121Y900806D1*
X1883461Y895598D1*
X1885306Y902302D1*
X1888296Y909173D1*
X1892259Y915532D1*
X1897112Y921242D1*
X1902748Y926180D1*
X1909046Y930239D1*
X1914409Y932754D1*
X1908032Y935519D1*
X1900537Y940112D1*
X1893853Y945821D1*
X1888144Y952506D1*
X1883472Y960172D1*
X1883462Y875259D2*
X1881521Y868274D1*
X1878490Y861421D1*
X1874488Y855086D1*
X1868803Y848644D1*
X1876087Y845787D1*
X1881506Y842466D1*
X1886339Y838339D1*
X1890466Y833506D1*
X1893787Y828087D1*
X1896219Y822216D1*
X1897702Y816036D1*
X1898201Y809701D1*
X1897955Y805499D1*
X1950206Y753258D1*
X1950201Y837242D1*
X1943552Y835412D1*
X1936117Y834475D1*
X1928626Y834635D1*
X1921239Y835892D1*
X1914115Y838216D1*
X1907409Y841559D1*
X1901264Y845848D1*
X1895814Y850991D1*
X1891176Y856876D1*
X1887450Y863377D1*
X1884716Y870354D1*
X1883466Y875243D1*
X509689Y2767877D2*
Y2734405D1*
X485871D1*
X491589Y2730754D1*
X498273Y2725045D1*
X503982Y2718361D1*
X508575Y2710865D1*
X511387Y2704640D1*
X514709Y2711356D1*
X518980Y2717514D1*
X524106Y2722979D1*
X529977Y2727635D1*
X536467Y2731381D1*
X543435Y2734136D1*
X546229Y2734914D1*
X538751Y2737366D1*
X531477Y2741072D1*
X524872Y2745871D1*
X519099Y2751644D1*
X514301Y2758249D1*
X510594Y2765523D1*
X509694Y2767963D1*
X511315Y2666429D2*
X508575Y2660001D1*
X503982Y2652506D1*
X498273Y2645821D1*
X491589Y2640112D1*
X483922Y2635440D1*
X491589Y2630754D1*
X498273Y2625045D1*
X503982Y2618361D1*
X508654Y2610694D1*
X513341Y2618361D1*
X519050Y2625045D1*
X525734Y2630754D1*
X533229Y2635347D1*
X539658Y2638087D1*
X532606Y2641559D1*
X526461Y2645848D1*
X521011Y2650991D1*
X516373Y2656876D1*
X512647Y2663377D1*
X511340Y2666375D1*
X508654Y2560172D2*
X503982Y2552506D1*
X498273Y2545821D1*
X491589Y2540112D1*
X483922Y2535440D1*
X491589Y2530754D1*
X498273Y2525045D1*
X503982Y2518361D1*
X508654Y2510694D1*
X513341Y2518361D1*
X519050Y2525045D1*
X525734Y2530754D1*
X533401Y2535426D1*
X525734Y2540112D1*
X519050Y2545821D1*
X513341Y2552506D1*
X508668Y2560172D1*
X508654Y2460172D2*
X503982Y2452506D1*
X498273Y2445821D1*
X491589Y2440112D1*
X483922Y2435440D1*
X491589Y2430754D1*
X498273Y2425045D1*
X503982Y2418361D1*
X508654Y2410694D1*
X513341Y2418361D1*
X519050Y2425045D1*
X525734Y2430754D1*
X533401Y2435426D1*
X525734Y2440112D1*
X519050Y2445821D1*
X513341Y2452506D1*
X508668Y2460172D1*
X508654Y2360172D2*
X503982Y2352506D1*
X498273Y2345821D1*
X491589Y2340112D1*
X483922Y2335440D1*
X491589Y2330754D1*
X498273Y2325045D1*
X503982Y2318361D1*
X508575Y2310865D1*
X511387Y2304640D1*
X514709Y2311356D1*
X518980Y2317514D1*
X524106Y2322979D1*
X529977Y2327635D1*
X536467Y2331381D1*
X539606Y2332754D1*
X533229Y2335519D1*
X525734Y2340112D1*
X519050Y2345821D1*
X513341Y2352506D1*
X508668Y2360172D1*
X511315Y2266429D2*
X508575Y2260001D1*
X503982Y2252506D1*
X498273Y2245821D1*
X491589Y2240112D1*
X483922Y2235440D1*
X491589Y2230754D1*
X498273Y2225045D1*
X503982Y2218361D1*
X508654Y2210694D1*
X513341Y2218361D1*
X519050Y2225045D1*
X525734Y2230754D1*
X533229Y2235347D1*
X539658Y2238087D1*
X532606Y2241559D1*
X526461Y2245848D1*
X521011Y2250991D1*
X516373Y2256876D1*
X512647Y2263377D1*
X511340Y2266375D1*
X508654Y2160172D2*
X503982Y2152506D1*
X498273Y2145821D1*
X491589Y2140112D1*
X483922Y2135440D1*
X491589Y2130754D1*
X498273Y2125045D1*
X503982Y2118361D1*
X508654Y2110694D1*
X513341Y2118361D1*
X519050Y2125045D1*
X525734Y2130754D1*
X533401Y2135426D1*
X525734Y2140112D1*
X519050Y2145821D1*
X513341Y2152506D1*
X508668Y2160172D1*
X508654Y2060172D2*
X503982Y2052506D1*
X498273Y2045821D1*
X491589Y2040112D1*
X483922Y2035440D1*
X491589Y2030754D1*
X498273Y2025045D1*
X503982Y2018361D1*
X508654Y2010694D1*
X513341Y2018361D1*
X519050Y2025045D1*
X525734Y2030754D1*
X533401Y2035426D1*
X525734Y2040112D1*
X519050Y2045821D1*
X513341Y2052506D1*
X508668Y2060172D1*
X508654Y1960172D2*
X503982Y1952506D1*
X498273Y1945821D1*
X491589Y1940112D1*
X483922Y1935440D1*
X491589Y1930754D1*
X498273Y1925045D1*
X503982Y1918361D1*
X508654Y1910694D1*
X513341Y1918361D1*
X519050Y1925045D1*
X525734Y1930754D1*
X533401Y1935426D1*
X525734Y1940112D1*
X519050Y1945821D1*
X513341Y1952506D1*
X508668Y1960172D1*
X508654Y1860172D2*
X503982Y1852506D1*
X498273Y1845821D1*
X491589Y1840112D1*
X483922Y1835440D1*
X491589Y1830754D1*
X498273Y1825045D1*
X503982Y1818361D1*
X508654Y1810694D1*
X513341Y1818361D1*
X519050Y1825045D1*
X525734Y1830754D1*
X533401Y1835426D1*
X525734Y1840112D1*
X519050Y1845821D1*
X513341Y1852506D1*
X508668Y1860172D1*
X508654Y1760172D2*
X503982Y1752506D1*
X498273Y1745821D1*
X491589Y1740112D1*
X483922Y1735440D1*
X491589Y1730754D1*
X498273Y1725045D1*
X503982Y1718361D1*
X508654Y1710694D1*
X513341Y1718361D1*
X519050Y1725045D1*
X525734Y1730754D1*
X533401Y1735426D1*
X525734Y1740112D1*
X519050Y1745821D1*
X513341Y1752506D1*
X508668Y1760172D1*
X508654Y1660172D2*
X503982Y1652506D1*
X498273Y1645821D1*
X491589Y1640112D1*
X483922Y1635440D1*
X491589Y1630754D1*
X498273Y1625045D1*
X503982Y1618361D1*
X508654Y1610694D1*
X513341Y1618361D1*
X519050Y1625045D1*
X525734Y1630754D1*
X533401Y1635426D1*
X525734Y1640112D1*
X519050Y1645821D1*
X513341Y1652506D1*
X508668Y1660172D1*
X508654Y1560172D2*
X503982Y1552506D1*
X498273Y1545821D1*
X491589Y1540112D1*
X483922Y1535440D1*
X491589Y1530754D1*
X498273Y1525045D1*
X503982Y1518361D1*
X508654Y1510694D1*
X513341Y1518361D1*
X519050Y1525045D1*
X525734Y1530754D1*
X533401Y1535426D1*
X525734Y1540112D1*
X519050Y1545821D1*
X513341Y1552506D1*
X508668Y1560172D1*
X508654Y1460172D2*
X503982Y1452506D1*
X498273Y1445821D1*
X491589Y1440112D1*
X483922Y1435440D1*
X491589Y1430754D1*
X498273Y1425045D1*
X503982Y1418361D1*
X508654Y1410694D1*
X513341Y1418361D1*
X519050Y1425045D1*
X525734Y1430754D1*
X533401Y1435426D1*
X525734Y1440112D1*
X519050Y1445821D1*
X513341Y1452506D1*
X508668Y1460172D1*
X508654Y1360172D2*
X503982Y1352506D1*
X498273Y1345821D1*
X491589Y1340112D1*
X483922Y1335440D1*
X491589Y1330754D1*
X498273Y1325045D1*
X503982Y1318361D1*
X508654Y1310694D1*
X513341Y1318361D1*
X519050Y1325045D1*
X525734Y1330754D1*
X533401Y1335426D1*
X525734Y1340112D1*
X519050Y1345821D1*
X513341Y1352506D1*
X508668Y1360172D1*
X508654Y1260172D2*
X503982Y1252506D1*
X498273Y1245821D1*
X491589Y1240112D1*
X483922Y1235440D1*
X491589Y1230754D1*
X498273Y1225045D1*
X503982Y1218361D1*
X508654Y1210694D1*
X513341Y1218361D1*
X519050Y1225045D1*
X525734Y1230754D1*
X533401Y1235426D1*
X525734Y1240112D1*
X519050Y1245821D1*
X513341Y1252506D1*
X508668Y1260172D1*
X508654Y1160172D2*
X503982Y1152506D1*
X498273Y1145821D1*
X491589Y1140112D1*
X483922Y1135440D1*
X491589Y1130754D1*
X498273Y1125045D1*
X503982Y1118361D1*
X508654Y1110694D1*
X513341Y1118361D1*
X519050Y1125045D1*
X525734Y1130754D1*
X533401Y1135426D1*
X525734Y1140112D1*
X519050Y1145821D1*
X513341Y1152506D1*
X508668Y1160172D1*
X508654Y1060172D2*
X503982Y1052506D1*
X498273Y1045821D1*
X491589Y1040112D1*
X483922Y1035440D1*
X491589Y1030754D1*
X498273Y1025045D1*
X503982Y1018361D1*
X508654Y1010694D1*
X513341Y1018361D1*
X519050Y1025045D1*
X525734Y1030754D1*
X533401Y1035426D1*
X525734Y1040112D1*
X519050Y1045821D1*
X513341Y1052506D1*
X508668Y1060172D1*
X508654Y960172D2*
X503982Y952506D1*
X498273Y945821D1*
X491589Y940112D1*
X484094Y935519D1*
X477665Y932780D1*
X484452Y929463D1*
X490622Y925211D1*
X496103Y920102D1*
X500777Y914245D1*
X504542Y907766D1*
X505982Y904486D1*
X508748Y910865D1*
X513341Y918361D1*
X519050Y925045D1*
X525734Y930754D1*
X533401Y935426D1*
X525734Y940112D1*
X519050Y945821D1*
X513341Y952506D1*
X508668Y960172D1*
X1720933Y1737886D2*
X1711260Y1748004D1*
X1708331Y1753234D1*
X1707636Y1755120D1*
X1707390Y1709252D1*
Y1595191D1*
X1720948Y1581650D1*
X1720957Y1737900D1*
X1711260Y1748004D1*
X1708331Y1753234D1*
X1707638Y1755112D1*
X1001272Y874801D2*
Y1575290D1*
X986098Y1590438D1*
X986130Y879436D1*
X991033Y873805D1*
X994588Y867879D1*
X1000469Y874104D1*
X1001279Y874742D1*
X1128209Y1088681D2*
X1171345Y1131816D1*
X1169783Y1133161D1*
X1109774D1*
X1109752Y932636D1*
X1111896Y930738D1*
X1111980Y1063812D1*
X1113150Y1069691D1*
X1115659Y1075135D1*
X1119370Y1079842D1*
X1128209Y1088681D1*
X1115051Y1230217D2*
Y1551652D1*
X1109747Y1556778D1*
X1109752Y1184193D1*
X1200805Y1184161D1*
X1205981Y1189458D1*
X1209666Y1192220D1*
X1136562Y1192530D1*
X1130793Y1194158D1*
X1125563Y1197087D1*
X1121161Y1201156D1*
X1117830Y1206140D1*
X1115756Y1211764D1*
X1115051Y1217717D1*
Y1230217D1*
X1534252Y591530D2*
D23*
Y490157D1*
X1585624D1*
X1334646Y591924D2*
Y490551D1*
X1283273D2*
X1334646D1*
X737795Y1895861D2*
Y1809651D1*
X695675Y1852756D2*
X779916D1*
X796850Y1859443D2*
Y1727958D1*
X753746Y1793701D2*
X839955D1*
X678740Y1859443D2*
Y1727958D1*
X635636Y1793701D2*
X721845D1*
X853543Y2157874D2*
Y2104927D1*
X800596Y2157874D2*
X906491D1*
X1519701Y2802546D2*
Y2755504D1*
X1468722D2*
X1570680D1*
X1660252Y2799396D2*
Y2752354D1*
X1609273D2*
X1711231D1*
X1081496Y2097260D2*
Y1995302D1*
X1030517Y2046281D2*
X1132475D1*
X1532283Y2418301D2*
Y2316344D1*
Y2367323D2*
X1579325D1*
X708661Y538774D2*
Y436816D1*
Y487795D2*
X755703D1*
X525197Y539955D2*
Y437997D1*
Y488976D2*
X572239D1*
X1013701Y1922680D2*
Y1820722D1*
X962722Y1871701D2*
X1064680D1*
X900000Y2820664D2*
Y2600596D1*
X789966Y2710630D2*
X1010034D1*
X714961Y2702554D2*
Y2482486D1*
Y2592520D2*
X824994D1*
X1781976Y672144D2*
Y587903D1*
X1747730Y630024D2*
X1816223D1*
X1302756Y2299136D2*
Y2258000D1*
X1345861D1*
X1669291Y886614D2*
Y853352D1*
X1616344Y886614D2*
X1669291D1*
X1616344Y925984D2*
X1669291D1*
X1616344Y965354D2*
X1669291D1*
X1511811Y1726963D2*
Y1621069D1*
Y1674016D2*
X1545073D1*
X1118110Y1726963D2*
Y1674016D1*
X881890Y1726963D2*
Y1621069D1*
X848628Y1674016D2*
X881890D1*
X671462Y1477165D2*
X724409D1*
X671462Y1319685D2*
X777357D1*
X724409Y886614D2*
Y853352D1*
X671462Y886614D2*
X724409D1*
X881890Y782081D2*
Y676187D1*
X848628Y729134D2*
X881890D1*
X960630Y782081D2*
Y676187D1*
X1354331Y782081D2*
Y676187D1*
X1393701Y782081D2*
Y676187D1*
X1472441Y782081D2*
Y676187D1*
X1511811Y782081D2*
Y676187D1*
Y729134D2*
X1545074D1*
X1431890Y2107672D2*
Y2046850D1*
X1276581Y2419291D2*
X1362790D1*
X1244551Y2738396D2*
Y2557698D1*
X1203415Y2648047D2*
X1244551D1*
X1833465Y2836412D2*
Y2785433D1*
X1782486D2*
X1833465D1*
Y1836412D2*
Y1785433D1*
X1782486D2*
X1884443D1*
X1882486D2*
X1933465D1*
X1833465Y885433D2*
Y834454D1*
X1782486Y885433D2*
X1884443D1*
X1933465D2*
Y834454D1*
X1882486Y885433D2*
X1933465D1*
X458661Y2836412D2*
Y2785433D1*
X558661Y2685433D2*
X609640D1*
X558661Y2285433D2*
X609640D1*
X458661Y885433D2*
Y834454D1*
D25*
X1534252Y490157D3*
D26*
X1434252Y490551D3*
D25*
X1334646D3*
D27*
X737795Y1734646D3*
Y1852756D3*
D28*
X796850Y1793701D3*
X678740D3*
D29*
X853543Y2257874D3*
D30*
Y2157874D3*
D31*
X1519701Y2680701D3*
Y2755504D3*
X1660252Y2677551D3*
Y2752354D3*
D32*
X1081496Y2443919D3*
D33*
Y2046281D3*
D34*
X1466929Y2216929D3*
X1541732D3*
X1532283Y2367323D3*
X1457480D3*
X708661Y487795D3*
X633858D3*
X525197Y488976D3*
X450394D3*
D32*
X1314961Y2145276D3*
D33*
X1214961D3*
X1114961D3*
X1014961D3*
D32*
X1313701Y1871701D3*
D33*
X1213701D3*
X1113701D3*
X1013701D3*
D35*
X900000Y2710630D3*
D36*
Y2474409D3*
D35*
X714961Y2592520D3*
D32*
X1839701Y449701D3*
D33*
X1939701D3*
D32*
X1199701Y1974701D3*
D33*
X1299701D3*
D38*
X1819378Y720575D3*
X1744575D3*
X1781976Y630024D3*
D34*
X711024Y632677D3*
X636220D3*
X525591Y634646D3*
X450787D3*
D39*
X1235827Y2258000D3*
X1302756D3*
D41*
X1669291Y886614D3*
Y925984D3*
Y965354D3*
Y1004724D3*
Y1044094D3*
Y1083465D3*
Y1122835D3*
Y1162205D3*
Y1201575D3*
Y1240945D3*
Y1280315D3*
Y1319685D3*
Y1359055D3*
Y1398425D3*
Y1437795D3*
Y1477165D3*
Y1516535D3*
D42*
X1511811Y1674016D3*
X1472441D3*
X1433071D3*
X1393701D3*
X1354331D3*
X1314961D3*
X1275591D3*
X1236220D3*
X1196850D3*
X1157480D3*
X1118110D3*
X1078740D3*
X1039370D3*
X1000000D3*
X960630D3*
X921260D3*
X881890D3*
D41*
X724409Y1516535D3*
Y1477165D3*
Y1437795D3*
Y1398425D3*
Y1359055D3*
Y1319685D3*
Y1280315D3*
Y1240945D3*
Y1201575D3*
Y1162205D3*
Y1122835D3*
Y1083465D3*
Y1044094D3*
Y1004724D3*
Y965354D3*
Y925984D3*
Y886614D3*
D42*
X881890Y729134D3*
X921260D3*
X960630D3*
X1000000D3*
X1039370D3*
X1078740D3*
X1118110D3*
X1157480D3*
X1196850D3*
X1236220D3*
X1275591D3*
X1314961D3*
X1354331D3*
X1393701D3*
X1433071D3*
X1472441D3*
X1511811D3*
D47*
X1731890Y2046850D3*
X1681890D3*
X1631890D3*
X1581890D3*
X1531890D3*
X1481890D3*
X1431890D3*
Y1834252D3*
X1481890D3*
X1531890D3*
X1581890D3*
X1631890D3*
X1681890D3*
X1731890D3*
D49*
X1319685Y2381890D3*
Y2419291D3*
Y2456693D3*
X1213386D3*
Y2381890D3*
D50*
X1323291Y2648047D3*
X1244551D3*
D51*
X1415740Y2866441D3*
X1151961D3*
D32*
X1833465Y2785433D3*
D33*
X1933465D3*
X1833465Y2685433D3*
X1933465D3*
X1833465Y2585433D3*
X1933465D3*
X1833465Y2485433D3*
X1933465D3*
X1833465Y2385433D3*
X1933465D3*
X1833465Y2285433D3*
X1933465D3*
X1833465Y2185433D3*
X1933465D3*
X1833465Y2085433D3*
X1933465D3*
X1833465Y1985433D3*
X1933465D3*
X1833465Y1885433D3*
X1933465D3*
X1833465Y1785433D3*
X1933465D3*
X1833465Y1685433D3*
X1933465D3*
X1833465Y1585433D3*
X1933465D3*
X1833465Y1485433D3*
X1933465D3*
X1833465Y1385433D3*
X1933465D3*
X1833465Y1285433D3*
X1933465D3*
X1833465Y1185433D3*
X1933465D3*
X1833465Y1085433D3*
X1933465D3*
X1833465Y985433D3*
X1933465D3*
X1833465Y885433D3*
X1933465D3*
D32*
X458661Y2785433D3*
D33*
X558661D3*
X458661Y2685433D3*
X558661D3*
X458661Y2585433D3*
X558661D3*
X458661Y2485433D3*
X558661D3*
X458661Y2385433D3*
X558661D3*
X458661Y2285433D3*
X558661D3*
X458661Y2185433D3*
X558661D3*
X458661Y2085433D3*
X558661D3*
X458661Y1985433D3*
X558661D3*
X458661Y1885433D3*
X558661D3*
X458661Y1785433D3*
X558661D3*
X458661Y1685433D3*
X558661D3*
X458661Y1585433D3*
X558661D3*
X458661Y1485433D3*
X558661D3*
X458661Y1385433D3*
X558661D3*
X458661Y1285433D3*
X558661D3*
X458661Y1185433D3*
X558661D3*
X458661Y1085433D3*
X558661D3*
X458661Y985433D3*
X558661D3*
X458661Y885433D3*
X558661D3*
M02*
