G04 DipTrace 3.0.0.1*
G04 TopPaste.gbr*
%MOIN*%
G04 #@! TF.FileFunction,Paste,Top*
G04 #@! TF.Part,Single*
%ADD62R,0.051181X0.125984*%
%ADD64R,0.031496X0.129921*%
%ADD66R,0.035433X0.015748*%
%ADD68R,0.015748X0.070866*%
%ADD74O,0.015748X0.055118*%
%ADD76O,0.055118X0.015748*%
%ADD78R,0.035433X0.031496*%
%ADD80R,0.017717X0.033465*%
%ADD86R,0.043307X0.051181*%
%ADD92R,0.051181X0.043307*%
%ADD98R,0.035433X0.080709*%
%ADD100R,0.033465X0.035433*%
%ADD102R,0.025591X0.151969*%
%ADD104R,0.051969X0.151969*%
%FSLAX26Y26*%
G04*
G70*
G90*
G75*
G01*
G04 TopPaste*
%LPD*%
D104*
X1534252Y490157D3*
D102*
X1434252Y490551D3*
D104*
X1334646D3*
D100*
X737795Y1734646D3*
Y1852756D3*
D98*
X796850Y1793701D3*
X678740D3*
D92*
X1519701Y2680701D3*
Y2755504D3*
X1660252Y2677551D3*
Y2752354D3*
D86*
X1466929Y2216929D3*
X1541732D3*
X1532283Y2367323D3*
X1457480D3*
X708661Y487795D3*
X633858D3*
X525197Y488976D3*
X450394D3*
D80*
X1819378Y720575D3*
X1744575D3*
X1781976Y630024D3*
D86*
X711024Y632677D3*
X636220D3*
X525591Y634646D3*
X450787D3*
D78*
X1235827Y2258000D3*
X1302756D3*
D76*
X1669291Y886614D3*
Y925984D3*
Y965354D3*
Y1004724D3*
Y1044094D3*
Y1083465D3*
Y1122835D3*
Y1162205D3*
Y1201575D3*
Y1240945D3*
Y1280315D3*
Y1319685D3*
Y1359055D3*
Y1398425D3*
Y1437795D3*
Y1477165D3*
Y1516535D3*
D74*
X1511811Y1674016D3*
X1472441D3*
X1433071D3*
X1393701D3*
X1354331D3*
X1314961D3*
X1275591D3*
X1236220D3*
X1196850D3*
X1157480D3*
X1118110D3*
X1078740D3*
X1039370D3*
X1000000D3*
X960630D3*
X921260D3*
X881890D3*
D76*
X724409Y1516535D3*
Y1477165D3*
Y1437795D3*
Y1398425D3*
Y1359055D3*
Y1319685D3*
Y1280315D3*
Y1240945D3*
Y1201575D3*
Y1162205D3*
Y1122835D3*
Y1083465D3*
Y1044094D3*
Y1004724D3*
Y965354D3*
Y925984D3*
Y886614D3*
D74*
X881890Y729134D3*
X921260D3*
X960630D3*
X1000000D3*
X1039370D3*
X1078740D3*
X1118110D3*
X1157480D3*
X1196850D3*
X1236220D3*
X1275591D3*
X1314961D3*
X1354331D3*
X1393701D3*
X1433071D3*
X1472441D3*
X1511811D3*
D68*
X1731890Y2046850D3*
X1681890D3*
X1631890D3*
X1581890D3*
X1531890D3*
X1481890D3*
X1431890D3*
Y1834252D3*
X1481890D3*
X1531890D3*
X1581890D3*
X1631890D3*
X1681890D3*
X1731890D3*
D66*
X1319685Y2381890D3*
Y2419291D3*
Y2456693D3*
X1213386D3*
Y2381890D3*
D64*
X1323291Y2648047D3*
X1244551D3*
D62*
X1415740Y2866441D3*
X1151961D3*
M02*
