G04 DipTrace 3.0.0.1*
G04 TopSilk.gbr*
%MOIN*%
G04 #@! TF.FileFunction,Legend,Top*
G04 #@! TF.Part,Single*
%ADD10C,0.009843*%
%ADD37C,0.015404*%
%ADD40O,0.027954X0.029027*%
%ADD48C,0.015396*%
%ADD105C,0.00772*%
%FSLAX26Y26*%
G04*
G70*
G90*
G75*
G01*
G04 TopSilk*
%LPD*%
X841723Y2337755D2*
D10*
X865363D1*
X853543Y2349574D2*
Y2325961D1*
X753543Y2207845D2*
G02X753543Y2207845I100000J0D01*
G01*
X1545272Y2639341D2*
X1494130D1*
X1685823Y2636192D2*
X1634681D1*
X1429549Y2191358D2*
Y2242500D1*
X1569664Y2392894D2*
Y2341752D1*
X746042Y513366D2*
Y462224D1*
X562577Y514547D2*
Y463406D1*
X964961Y2195276D2*
Y2095276D1*
X1364961Y2195276D2*
X964961D1*
X1364961Y2095276D2*
X964961D1*
X1364961Y2195276D2*
Y2095276D1*
X963701Y1921701D2*
Y1821701D1*
X1363701Y1921701D2*
X963701D1*
X1363701Y1821701D2*
X963701D1*
X1363701Y1921701D2*
Y1821701D1*
X1077165Y3013780D2*
X722801D1*
Y2698836D1*
X720863Y2486195D2*
X720908Y2446843D1*
X789743D1*
X1010223D2*
X1077165D1*
Y3013780D1*
X1989701Y399701D2*
Y499701D1*
X1789701Y399701D2*
X1989701D1*
X1789701D2*
Y499701D1*
X1989701D1*
X1349701Y1924701D2*
Y2024701D1*
X1149701Y1924701D2*
X1349701D1*
X1149701D2*
Y2024701D1*
X1349701D1*
D37*
X1850227Y735284D3*
X1841026Y685142D2*
D10*
X1722921D1*
Y665457D1*
X1841026D1*
Y685142D1*
X1667880Y869581D2*
Y728580D1*
X1526831D1*
D40*
X1745874Y887118D3*
X861810Y728580D2*
D10*
X721827D1*
Y869581D1*
Y868573D1*
X1667880Y1535584D2*
Y1674570D1*
X1526831D1*
X860849D2*
X721827D1*
Y1533569D1*
X1751186Y1991739D2*
X1412593D1*
X1751186Y1889363D2*
X1412593D1*
Y1991739D2*
Y1889363D1*
X1751186Y1991739D2*
Y1960246D1*
Y1920857D2*
Y1889363D1*
Y1960246D2*
G03X1751186Y1920857I-12J-19694D01*
G01*
D48*
X1336318Y2354976D3*
X1282250Y2360238D2*
D10*
Y2478346D1*
X1250757Y2360238D2*
Y2478346D1*
X1282250D2*
X1250757D1*
X1282250Y2360238D2*
X1250757D1*
X1454323Y2571165D2*
X1113378D1*
Y2942425D1*
X1454323D1*
Y2571165D1*
X1783465Y835433D2*
X1983465D1*
X1783465Y2835433D2*
X1983465D1*
Y835433D1*
X1783465Y2835433D2*
Y835433D1*
X408661D2*
X608661D1*
X408661Y2835433D2*
X608661D1*
Y835433D1*
X408661Y2835433D2*
Y835433D1*
X1439686Y598534D2*
D105*
X1420508Y648774D1*
X1401385Y598534D1*
X1408570Y615281D2*
X1432501D1*
X1455126Y639157D2*
X1459934Y641589D1*
X1467119Y648719D1*
Y598534D1*
X732480Y1897393D2*
X713301Y1947633D1*
X694178Y1897393D1*
X701363Y1914139D2*
X725295D1*
X750351Y1935639D2*
Y1938016D1*
X752728Y1942824D1*
X755104Y1945201D1*
X759913Y1947577D1*
X769474D1*
X774227Y1945201D1*
X776604Y1942824D1*
X779036Y1938016D1*
Y1933262D1*
X776604Y1928454D1*
X771851Y1921324D1*
X747919Y1897393D1*
X781412D1*
X857762Y2078983D2*
X855385Y2083736D1*
X850577Y2088545D1*
X845824Y2090921D1*
X836262D1*
X831454Y2088545D1*
X826700Y2083736D1*
X824269Y2078983D1*
X821892Y2071798D1*
Y2059804D1*
X824269Y2052675D1*
X826700Y2047866D1*
X831454Y2043113D1*
X836262Y2040681D1*
X845824D1*
X850577Y2043113D1*
X855385Y2047866D1*
X857762Y2052675D1*
X873201Y2081304D2*
X878010Y2083736D1*
X885195Y2090866D1*
Y2040681D1*
X1513169Y2610444D2*
X1510793Y2615197D1*
X1505984Y2620006D1*
X1501231Y2622383D1*
X1491670D1*
X1486861Y2620006D1*
X1482108Y2615197D1*
X1479676Y2610444D1*
X1477300Y2603259D1*
Y2591266D1*
X1479676Y2584136D1*
X1482108Y2579328D1*
X1486861Y2574574D1*
X1491670Y2572143D1*
X1501231D1*
X1505984Y2574574D1*
X1510793Y2579328D1*
X1513169Y2584136D1*
X1533417Y2622327D2*
X1559670D1*
X1545355Y2603204D1*
X1552540D1*
X1557294Y2600827D1*
X1559670Y2598451D1*
X1562102Y2591266D1*
Y2586513D1*
X1559670Y2579328D1*
X1554917Y2574519D1*
X1547732Y2572143D1*
X1540547D1*
X1533417Y2574519D1*
X1531041Y2576951D1*
X1528609Y2581704D1*
X1652532Y2607295D2*
X1650156Y2612048D1*
X1645347Y2616856D1*
X1640594Y2619233D1*
X1631032D1*
X1626224Y2616856D1*
X1621471Y2612048D1*
X1619039Y2607295D1*
X1616662Y2600110D1*
Y2588116D1*
X1619039Y2580986D1*
X1621471Y2576178D1*
X1626224Y2571425D1*
X1631032Y2568993D1*
X1640594D1*
X1645347Y2571425D1*
X1650156Y2576178D1*
X1652532Y2580986D1*
X1691903Y2568993D2*
Y2619178D1*
X1667972Y2585740D1*
X1703842D1*
X1457223Y2319680D2*
Y2269440D1*
X1473969D1*
X1481154Y2271872D1*
X1485963Y2276625D1*
X1488339Y2281433D1*
X1490716Y2288563D1*
Y2300557D1*
X1488339Y2307742D1*
X1485963Y2312495D1*
X1481154Y2317303D1*
X1473969Y2319680D1*
X1457223D1*
X1508587Y2307686D2*
Y2310063D1*
X1510964Y2314871D1*
X1513340Y2317248D1*
X1518149Y2319624D1*
X1527710D1*
X1532464Y2317248D1*
X1534840Y2314871D1*
X1537272Y2310063D1*
Y2305310D1*
X1534840Y2300501D1*
X1530087Y2293371D1*
X1506155Y2269440D1*
X1539649D1*
X1459564Y2470073D2*
Y2419833D1*
X1476311D1*
X1483496Y2422265D1*
X1488304Y2427019D1*
X1490681Y2431827D1*
X1493057Y2438957D1*
Y2450950D1*
X1490681Y2458135D1*
X1488304Y2462888D1*
X1483496Y2467697D1*
X1476311Y2470073D1*
X1459564D1*
X1513305Y2470018D2*
X1539558D1*
X1525243Y2450895D1*
X1532428D1*
X1537181Y2448518D1*
X1539558Y2446142D1*
X1541990Y2438957D1*
Y2434204D1*
X1539558Y2427019D1*
X1534805Y2422210D1*
X1527620Y2419833D1*
X1520435D1*
X1513305Y2422210D1*
X1510928Y2424642D1*
X1508497Y2429395D1*
X634754Y590546D2*
Y540306D1*
X651500D1*
X658685Y542738D1*
X663494Y547491D1*
X665870Y552299D1*
X668247Y559429D1*
Y571423D1*
X665870Y578608D1*
X663494Y583361D1*
X658685Y588169D1*
X651500Y590546D1*
X634754D1*
X707618Y540306D2*
Y590491D1*
X683686Y557053D1*
X719556D1*
X452477Y591727D2*
Y541487D1*
X469224D1*
X476409Y543919D1*
X481217Y548672D1*
X483594Y553480D1*
X485971Y560610D1*
Y572604D1*
X483594Y579789D1*
X481217Y584542D1*
X476409Y589350D1*
X469224Y591727D1*
X452477D1*
X530095Y591672D2*
X506218D1*
X503842Y570172D1*
X506218Y572548D1*
X513403Y574980D1*
X520533D1*
X527718Y572548D1*
X532527Y567795D1*
X534903Y560610D1*
Y555857D1*
X532527Y548672D1*
X527718Y543864D1*
X520533Y541487D1*
X513403D1*
X506218Y543864D1*
X503842Y546295D1*
X501410Y551049D1*
X1163210Y2268499D2*
Y2230252D1*
X1160834Y2223067D1*
X1158402Y2220691D1*
X1153648Y2218259D1*
X1148840D1*
X1144087Y2220691D1*
X1141710Y2223067D1*
X1139278Y2230252D1*
Y2235005D1*
X1178649Y2258882D2*
X1183458Y2261314D1*
X1190643Y2268443D1*
Y2218259D1*
X1151200Y1804742D2*
Y1766496D1*
X1148824Y1759311D1*
X1146392Y1756934D1*
X1141639Y1754502D1*
X1136830D1*
X1132077Y1756934D1*
X1129701Y1759311D1*
X1127269Y1766496D1*
Y1771249D1*
X1169071Y1792749D2*
Y1795125D1*
X1171448Y1799934D1*
X1173825Y1802310D1*
X1178633Y1804687D1*
X1188195D1*
X1192948Y1802310D1*
X1195324Y1799934D1*
X1197756Y1795125D1*
Y1790372D1*
X1195324Y1785564D1*
X1190571Y1778434D1*
X1166640Y1754502D1*
X1200133D1*
X1876012Y572924D2*
Y534677D1*
X1873635Y527492D1*
X1871204Y525116D1*
X1866450Y522684D1*
X1861642D1*
X1856889Y525116D1*
X1854512Y527492D1*
X1852080Y534677D1*
Y539431D1*
X1915383Y522684D2*
Y572869D1*
X1891451Y539431D1*
X1927321D1*
X1088478Y1963200D2*
X1126724D1*
X1133909Y1960824D1*
X1136286Y1958392D1*
X1138718Y1953639D1*
Y1948830D1*
X1136286Y1944077D1*
X1133909Y1941701D1*
X1126724Y1939269D1*
X1121971D1*
X1088533Y2007325D2*
Y1983448D1*
X1110033Y1981072D1*
X1107656Y1983448D1*
X1105224Y1990633D1*
Y1997763D1*
X1107656Y2004948D1*
X1112409Y2009756D1*
X1119595Y2012133D1*
X1124348D1*
X1131533Y2009756D1*
X1136341Y2004948D1*
X1138718Y1997763D1*
Y1990633D1*
X1136341Y1983448D1*
X1133909Y1981071D1*
X1129156Y1978640D1*
X1761178Y816218D2*
X1756425Y813897D1*
X1751616Y809088D1*
X1749240Y804280D1*
X1746808Y797095D1*
Y785156D1*
X1749240Y777971D1*
X1751616Y773218D1*
X1756425Y768410D1*
X1761178Y766033D1*
X1770740D1*
X1775548Y768410D1*
X1780301Y773218D1*
X1782678Y777971D1*
X1785110Y785156D1*
Y797095D1*
X1782678Y804280D1*
X1780301Y809088D1*
X1775548Y813897D1*
X1770740Y816218D1*
X1761178D1*
X1768363Y775595D2*
X1782678Y761225D1*
X1805357Y816163D2*
X1831611D1*
X1817296Y797039D1*
X1824481D1*
X1829234Y794663D1*
X1831611Y792286D1*
X1834042Y785101D1*
Y780348D1*
X1831611Y773163D1*
X1826857Y768354D1*
X1819672Y765978D1*
X1812487D1*
X1805357Y768354D1*
X1802981Y770786D1*
X1800549Y775539D1*
X643159Y711496D2*
X664659D1*
X671844Y713928D1*
X674276Y716305D1*
X676652Y721058D1*
Y725866D1*
X674276Y730619D1*
X671844Y733051D1*
X664659Y735428D1*
X643159D1*
Y685188D1*
X659906Y711496D2*
X676652Y685188D1*
X692092Y725811D2*
X696900Y728243D1*
X704085Y735373D1*
Y685188D1*
X446976Y713465D2*
X468476D1*
X475661Y715896D1*
X478093Y718273D1*
X480469Y723026D1*
Y727835D1*
X478093Y732588D1*
X475661Y735020D1*
X468476Y737396D1*
X446976D1*
Y687156D1*
X463723Y713465D2*
X480469Y687156D1*
X498340Y725403D2*
Y727779D1*
X500717Y732588D1*
X503094Y734964D1*
X507902Y737341D1*
X517464D1*
X522217Y734964D1*
X524593Y732588D1*
X527025Y727779D1*
Y723026D1*
X524593Y718218D1*
X519840Y711088D1*
X495909Y687156D1*
X529402D1*
X1226890Y2326976D2*
X1248390D1*
X1255575Y2329408D1*
X1258007Y2331785D1*
X1260383Y2336538D1*
Y2341346D1*
X1258007Y2346100D1*
X1255575Y2348532D1*
X1248390Y2350908D1*
X1226890D1*
Y2300668D1*
X1243637Y2326976D2*
X1260383Y2300668D1*
X1299754D2*
Y2350853D1*
X1275823Y2317415D1*
X1311693D1*
X1195919Y680679D2*
Y644809D1*
X1198295Y637624D1*
X1203104Y632871D1*
X1210289Y630439D1*
X1215042D1*
X1222227Y632871D1*
X1227036Y637624D1*
X1229412Y644809D1*
Y680679D1*
X1244851Y671062D2*
X1249660Y673494D1*
X1256845Y680624D1*
Y630439D1*
X1539489Y2159444D2*
Y2123574D1*
X1541865Y2116389D1*
X1546674Y2111635D1*
X1553859Y2109204D1*
X1558612D1*
X1565797Y2111635D1*
X1570605Y2116389D1*
X1572982Y2123574D1*
Y2159444D1*
X1612353Y2109204D2*
Y2159388D1*
X1588421Y2125950D1*
X1624291D1*
X1226661Y2551570D2*
Y2515700D1*
X1229038Y2508515D1*
X1233846Y2503761D1*
X1241031Y2501330D1*
X1245784D1*
X1252969Y2503761D1*
X1257778Y2508515D1*
X1260154Y2515700D1*
Y2551570D1*
X1304279Y2551514D2*
X1280402D1*
X1278025Y2530014D1*
X1280402Y2532391D1*
X1287587Y2534823D1*
X1294717D1*
X1301902Y2532391D1*
X1306710Y2527638D1*
X1309087Y2520453D1*
Y2515700D1*
X1306710Y2508515D1*
X1301902Y2503706D1*
X1294717Y2501330D1*
X1287587D1*
X1280402Y2503706D1*
X1278025Y2506138D1*
X1275594Y2510891D1*
X1467853Y2917207D2*
Y2881337D1*
X1470230Y2874152D1*
X1475038Y2869399D1*
X1482223Y2866967D1*
X1486977D1*
X1494162Y2869399D1*
X1498970Y2874152D1*
X1501347Y2881337D1*
Y2917207D1*
X1545471Y2910022D2*
X1543094Y2914775D1*
X1535909Y2917151D1*
X1531156D1*
X1523971Y2914775D1*
X1519163Y2907590D1*
X1516786Y2895652D1*
Y2883713D1*
X1519163Y2874152D1*
X1523971Y2869343D1*
X1531156Y2866967D1*
X1533533D1*
X1540662Y2869343D1*
X1545471Y2874152D1*
X1547847Y2881337D1*
Y2883713D1*
X1545471Y2890898D1*
X1540662Y2895652D1*
X1533533Y2898028D1*
X1531156D1*
X1523971Y2895652D1*
X1519163Y2890898D1*
X1516786Y2883713D1*
X1842279Y2908656D2*
Y2872786D1*
X1844656Y2865601D1*
X1849464Y2860848D1*
X1856649Y2858416D1*
X1861402D1*
X1868588Y2860848D1*
X1873396Y2865601D1*
X1875773Y2872786D1*
Y2908656D1*
X1903150Y2908601D2*
X1896020Y2906224D1*
X1893588Y2901471D1*
Y2896663D1*
X1896020Y2891909D1*
X1900773Y2889478D1*
X1910335Y2887101D1*
X1917520Y2884724D1*
X1922273Y2879916D1*
X1924650Y2875163D1*
Y2867978D1*
X1922273Y2863225D1*
X1919897Y2860793D1*
X1912712Y2858416D1*
X1903150D1*
X1896020Y2860793D1*
X1893588Y2863225D1*
X1891212Y2867978D1*
Y2875163D1*
X1893588Y2879916D1*
X1898397Y2884724D1*
X1905527Y2887101D1*
X1915088Y2889478D1*
X1919897Y2891909D1*
X1922273Y2896663D1*
Y2901471D1*
X1919897Y2906224D1*
X1912712Y2908601D1*
X1903150D1*
X468637Y2908656D2*
Y2872786D1*
X471013Y2865601D1*
X475822Y2860848D1*
X483007Y2858416D1*
X487760D1*
X494945Y2860848D1*
X499753Y2865601D1*
X502130Y2872786D1*
Y2908656D1*
X548686Y2891909D2*
X546254Y2884724D1*
X541501Y2879916D1*
X534316Y2877539D1*
X531939D1*
X524754Y2879916D1*
X520001Y2884724D1*
X517569Y2891909D1*
Y2894286D1*
X520001Y2901471D1*
X524754Y2906224D1*
X531939Y2908601D1*
X534316D1*
X541501Y2906224D1*
X546254Y2901471D1*
X548686Y2891909D1*
Y2879916D1*
X546254Y2867978D1*
X541501Y2860793D1*
X534316Y2858416D1*
X529563D1*
X522378Y2860793D1*
X520001Y2865601D1*
X834711Y556804D2*
X832335Y561557D1*
X827526Y566366D1*
X822773Y568742D1*
X813212D1*
X808403Y566366D1*
X803650Y561557D1*
X801218Y556804D1*
X798841Y549619D1*
Y537625D1*
X801218Y530496D1*
X803650Y525687D1*
X808403Y520934D1*
X813212Y518502D1*
X822773D1*
X827526Y520934D1*
X832335Y525687D1*
X834711Y530496D1*
X850151Y537625D2*
X878836D1*
Y542434D1*
X876459Y547242D1*
X874082Y549619D1*
X869274Y551995D1*
X862089D1*
X857336Y549619D1*
X852527Y544810D1*
X850151Y537625D1*
Y532872D1*
X852527Y525687D1*
X857336Y520934D1*
X862089Y518502D1*
X869274D1*
X874082Y520934D1*
X878836Y525687D1*
X894275Y568742D2*
Y518502D1*
X909714Y568742D2*
Y518502D1*
X925153Y551995D2*
Y528064D1*
X927530Y520934D1*
X932338Y518502D1*
X939523D1*
X944276Y520934D1*
X951462Y528064D1*
Y551995D2*
Y518502D1*
X966901Y568742D2*
Y518502D1*
X1011025Y551995D2*
Y518502D1*
Y544810D2*
X1006272Y549619D1*
X1001463Y551995D1*
X994334D1*
X989525Y549619D1*
X984772Y544810D1*
X982340Y537625D1*
Y532872D1*
X984772Y525687D1*
X989525Y520934D1*
X994334Y518502D1*
X1001463D1*
X1006272Y520934D1*
X1011025Y525687D1*
X1026464Y551995D2*
Y518502D1*
Y537625D2*
X1028896Y544810D1*
X1033649Y549619D1*
X1038458Y551995D1*
X1045643D1*
X1109683Y568742D2*
Y518502D1*
X1126430D1*
X1133615Y520934D1*
X1138423Y525687D1*
X1140800Y530496D1*
X1143176Y537625D1*
Y549619D1*
X1140800Y556804D1*
X1138423Y561557D1*
X1133615Y566366D1*
X1126430Y568742D1*
X1109683D1*
X1158615D2*
X1160992Y566366D1*
X1163424Y568742D1*
X1160992Y571174D1*
X1158615Y568742D1*
X1160992Y551995D2*
Y518502D1*
X1178863Y551995D2*
Y501755D1*
Y544810D2*
X1183672Y549564D1*
X1188425Y551995D1*
X1195610D1*
X1200418Y549564D1*
X1205171Y544810D1*
X1207603Y537625D1*
Y532817D1*
X1205171Y525687D1*
X1200418Y520879D1*
X1195610Y518502D1*
X1188425D1*
X1183672Y520879D1*
X1178863Y525687D1*
M02*
