G04 DipTrace 3.0.0.1*
G04 BottomMask.gbr*
%MOIN*%
G04 #@! TF.FileFunction,Soldermask,Bot*
G04 #@! TF.Part,Single*
%ADD54C,0.047244*%
%ADD67R,0.031496X0.055118*%
%ADD69R,0.062992X0.07874*%
%ADD75R,0.033465X0.049213*%
%ADD77C,0.204724*%
%ADD79C,0.185039*%
%ADD81C,0.066929*%
%ADD83R,0.066929X0.066929*%
%ADD87R,0.066929X0.059055*%
%ADD89R,0.059055X0.066929*%
%ADD91C,0.070866*%
%ADD93R,0.070866X0.070866*%
%ADD101R,0.067717X0.167717*%
%FSLAX26Y26*%
G04*
G70*
G90*
G75*
G01*
G04 BotMask*
%LPD*%
D101*
X1533071Y491339D3*
X1332677Y489370D3*
D93*
X786614Y2197244D3*
D91*
Y2097244D3*
D93*
X1032677Y2230709D3*
D91*
X932677D3*
D87*
X1666142Y1585039D3*
Y1659843D3*
X1576378Y930709D3*
Y855906D3*
D83*
X709055Y2419685D3*
D81*
Y2022047D3*
D83*
X1317323Y1947638D3*
D81*
X1217323D3*
X1117323D3*
X1017323D3*
D83*
X1326378Y1762992D3*
D81*
X1226378D3*
X1126378D3*
X1026378D3*
D79*
X881890Y2732283D3*
D77*
Y2496063D3*
D79*
X696850Y2614173D3*
D83*
X1833858Y2963780D3*
D81*
X1933858D3*
D83*
X958701Y2058701D3*
D81*
X1058701D3*
D83*
X1818701Y558701D3*
D81*
X1918701D3*
D75*
X1663701Y843701D3*
X1738504D3*
X1701102Y753150D3*
D87*
X1668701Y1383898D3*
Y1458701D3*
D89*
X1913701Y753701D3*
X1838898D3*
X1911299Y656299D3*
X1836496D3*
D69*
X903150Y1646850D3*
X1003150D3*
X1103150D3*
Y650787D3*
X1003150D3*
X903150D3*
D54*
X1292913Y828740D3*
X820472Y1450787D3*
D67*
X1583858Y1222835D3*
X1621260D3*
X1658661D3*
Y1132283D3*
X1621260D3*
X1583858D3*
D83*
X1832283Y2745669D3*
D81*
X1932283D3*
X1832283Y2645669D3*
X1932283D3*
X1832283Y2545669D3*
X1932283D3*
X1832283Y2445669D3*
X1932283D3*
X1832283Y2345669D3*
X1932283D3*
X1832283Y2245669D3*
X1932283D3*
X1832283Y2145669D3*
X1932283D3*
X1832283Y2045669D3*
X1932283D3*
X1832283Y1945669D3*
X1932283D3*
X1832283Y1845669D3*
X1932283D3*
X1832283Y1745669D3*
X1932283D3*
X1832283Y1645669D3*
X1932283D3*
X1832283Y1545669D3*
X1932283D3*
X1832283Y1445669D3*
X1932283D3*
X1832283Y1345669D3*
X1932283D3*
X1832283Y1245669D3*
X1932283D3*
X1832283Y1145669D3*
X1932283D3*
X1832283Y1045669D3*
X1932283D3*
X1832283Y945669D3*
X1932283D3*
X1832283Y845669D3*
X1932283D3*
D83*
X457480Y2745669D3*
D81*
X557480D3*
X457480Y2645669D3*
X557480D3*
X457480Y2545669D3*
X557480D3*
X457480Y2445669D3*
X557480D3*
X457480Y2345669D3*
X557480D3*
X457480Y2245669D3*
X557480D3*
X457480Y2145669D3*
X557480D3*
X457480Y2045669D3*
X557480D3*
X457480Y1945669D3*
X557480D3*
X457480Y1845669D3*
X557480D3*
X457480Y1745669D3*
X557480D3*
X457480Y1645669D3*
X557480D3*
X457480Y1545669D3*
X557480D3*
X457480Y1445669D3*
X557480D3*
X457480Y1345669D3*
X557480D3*
X457480Y1245669D3*
X557480D3*
X457480Y1145669D3*
X557480D3*
X457480Y1045669D3*
X557480D3*
X457480Y945669D3*
X557480D3*
X457480Y845669D3*
X557480D3*
M02*
