G04 DipTrace 3.0.0.1*
G04 TopMask.gbr*
%MOIN*%
G04 #@! TF.FileFunction,Soldermask,Top*
G04 #@! TF.Part,Single*
%ADD54C,0.047244*%
%ADD61R,0.398031X0.448031*%
%ADD63R,0.178346X0.048031*%
%ADD65R,0.031496X0.086614*%
%ADD71O,0.031496X0.070866*%
%ADD73O,0.070866X0.031496*%
%ADD77C,0.204724*%
%ADD79C,0.185039*%
%ADD81C,0.066929*%
%ADD83R,0.066929X0.066929*%
%ADD85R,0.070866X0.03937*%
%ADD87R,0.066929X0.059055*%
%ADD89R,0.059055X0.066929*%
%ADD91C,0.070866*%
%ADD93R,0.070866X0.070866*%
%ADD95R,0.051181X0.096457*%
%ADD97R,0.049213X0.051181*%
%ADD99R,0.041339X0.167717*%
%ADD101R,0.067717X0.167717*%
%FSLAX26Y26*%
G04*
G70*
G90*
G75*
G01*
G04 TopMask*
%LPD*%
D101*
X1531890Y489370D3*
D99*
X1431890Y489764D3*
D101*
X1332283D3*
D97*
X723622Y1694488D3*
Y1812598D3*
D95*
X782677Y1753543D3*
X664567D3*
D93*
X786614Y2197244D3*
D91*
Y2097244D3*
D89*
X556299Y2914567D3*
X481496D3*
D93*
X1032677Y2230709D3*
D91*
X932677D3*
D89*
X1211024Y2285433D3*
X1136220D3*
D87*
X1477559Y2232677D3*
Y2157874D3*
X1574803Y2231890D3*
Y2157087D3*
D85*
X1685039Y2275984D3*
Y2142126D3*
D89*
X702362Y454331D3*
X627559D3*
X531496Y455512D3*
X456693D3*
D83*
X709055Y2419685D3*
D81*
Y2022047D3*
D83*
X1317323Y1947638D3*
D81*
X1217323D3*
X1117323D3*
X1017323D3*
D83*
X1326378Y1762992D3*
D81*
X1226378D3*
X1126378D3*
X1026378D3*
D79*
X881890Y2732283D3*
D77*
Y2496063D3*
D79*
X696850Y2614173D3*
D83*
X1833858Y2963780D3*
D81*
X1933858D3*
D83*
X958701Y2058701D3*
D81*
X1058701D3*
D83*
X1818701Y558701D3*
D81*
X1918701D3*
D89*
X703150Y599213D3*
X628346D3*
X531890Y601181D3*
X457087D3*
X1306299Y2282677D3*
X1381102D3*
X1383071Y2136614D3*
X1308268D3*
X1212598Y2139764D3*
X1137795D3*
D73*
X1668110Y846850D3*
Y886220D3*
Y925591D3*
Y964961D3*
Y1004331D3*
Y1043701D3*
Y1083071D3*
Y1122441D3*
Y1161811D3*
Y1201181D3*
Y1240551D3*
Y1279921D3*
Y1319291D3*
Y1358661D3*
Y1398031D3*
Y1437402D3*
Y1476772D3*
D71*
X1510630Y1634252D3*
X1471260D3*
X1431890D3*
X1392520D3*
X1353150D3*
X1313780D3*
X1274409D3*
X1235039D3*
X1195669D3*
X1156299D3*
X1116929D3*
X1077559D3*
X1038189D3*
X998819D3*
X959449D3*
X920079D3*
X880709D3*
D73*
X723228Y1476772D3*
Y1437402D3*
Y1398031D3*
Y1358661D3*
Y1319291D3*
Y1279921D3*
Y1240551D3*
Y1201181D3*
Y1161811D3*
Y1122441D3*
Y1083071D3*
Y1043701D3*
Y1004331D3*
Y964961D3*
Y925591D3*
Y886220D3*
Y846850D3*
D71*
X880709Y689370D3*
X920079D3*
X959449D3*
X998819D3*
X1038189D3*
X1077559D3*
X1116929D3*
X1156299D3*
X1195669D3*
X1235039D3*
X1274409D3*
X1313780D3*
X1353150D3*
X1392520D3*
X1431890D3*
X1471260D3*
X1510630D3*
D54*
X1292913Y828740D3*
X820472Y1450787D3*
D65*
X1730709Y1992520D3*
X1680709D3*
X1630709D3*
X1580709D3*
X1530709D3*
X1480709D3*
X1430709D3*
Y1779921D3*
X1480709D3*
X1530709D3*
X1580709D3*
X1630709D3*
X1680709D3*
X1730709D3*
D63*
X1204331Y2816142D3*
Y2749213D3*
Y2682283D3*
Y2615354D3*
Y2548425D3*
D61*
X1564173Y2682283D3*
D83*
X1832283Y2745669D3*
D81*
X1932283D3*
X1832283Y2645669D3*
X1932283D3*
X1832283Y2545669D3*
X1932283D3*
X1832283Y2445669D3*
X1932283D3*
X1832283Y2345669D3*
X1932283D3*
X1832283Y2245669D3*
X1932283D3*
X1832283Y2145669D3*
X1932283D3*
X1832283Y2045669D3*
X1932283D3*
X1832283Y1945669D3*
X1932283D3*
X1832283Y1845669D3*
X1932283D3*
X1832283Y1745669D3*
X1932283D3*
X1832283Y1645669D3*
X1932283D3*
X1832283Y1545669D3*
X1932283D3*
X1832283Y1445669D3*
X1932283D3*
X1832283Y1345669D3*
X1932283D3*
X1832283Y1245669D3*
X1932283D3*
X1832283Y1145669D3*
X1932283D3*
X1832283Y1045669D3*
X1932283D3*
X1832283Y945669D3*
X1932283D3*
X1832283Y845669D3*
X1932283D3*
D83*
X457480Y2745669D3*
D81*
X557480D3*
X457480Y2645669D3*
X557480D3*
X457480Y2545669D3*
X557480D3*
X457480Y2445669D3*
X557480D3*
X457480Y2345669D3*
X557480D3*
X457480Y2245669D3*
X557480D3*
X457480Y2145669D3*
X557480D3*
X457480Y2045669D3*
X557480D3*
X457480Y1945669D3*
X557480D3*
X457480Y1845669D3*
X557480D3*
X457480Y1745669D3*
X557480D3*
X457480Y1645669D3*
X557480D3*
X457480Y1545669D3*
X557480D3*
X457480Y1445669D3*
X557480D3*
X457480Y1345669D3*
X557480D3*
X457480Y1245669D3*
X557480D3*
X457480Y1145669D3*
X557480D3*
X457480Y1045669D3*
X557480D3*
X457480Y945669D3*
X557480D3*
X457480Y845669D3*
X557480D3*
M02*
