G04 DipTrace 3.0.0.1*
G04 TopPaste.gbr*
%MOIN*%
G04 #@! TF.FileFunction,Paste,Top*
G04 #@! TF.Part,Single*
%ADD62R,0.382283X0.432283*%
%ADD64R,0.162598X0.032283*%
%ADD66R,0.015748X0.070866*%
%ADD72O,0.015748X0.055118*%
%ADD74O,0.055118X0.015748*%
%ADD86R,0.055118X0.023622*%
%ADD88R,0.051181X0.043307*%
%ADD90R,0.043307X0.051181*%
%ADD96R,0.035433X0.080709*%
%ADD98R,0.033465X0.035433*%
%ADD100R,0.025591X0.151969*%
%ADD102R,0.051969X0.151969*%
%FSLAX26Y26*%
G04*
G70*
G90*
G75*
G01*
G04 TopPaste*
%LPD*%
D102*
X1531890Y489370D3*
D100*
X1431890Y489764D3*
D102*
X1332283D3*
D98*
X723622Y1694488D3*
Y1812598D3*
D96*
X782677Y1753543D3*
X664567D3*
D90*
X556299Y2914567D3*
X481496D3*
X1211024Y2285433D3*
X1136220D3*
D88*
X1477559Y2232677D3*
Y2157874D3*
X1574803Y2231890D3*
Y2157087D3*
D86*
X1685039Y2275984D3*
Y2142126D3*
D90*
X702362Y454331D3*
X627559D3*
X531496Y455512D3*
X456693D3*
X703150Y599213D3*
X628346D3*
X531890Y601181D3*
X457087D3*
X1306299Y2282677D3*
X1381102D3*
X1383071Y2136614D3*
X1308268D3*
X1212598Y2139764D3*
X1137795D3*
D74*
X1668110Y846850D3*
Y886220D3*
Y925591D3*
Y964961D3*
Y1004331D3*
Y1043701D3*
Y1083071D3*
Y1122441D3*
Y1161811D3*
Y1201181D3*
Y1240551D3*
Y1279921D3*
Y1319291D3*
Y1358661D3*
Y1398031D3*
Y1437402D3*
Y1476772D3*
D72*
X1510630Y1634252D3*
X1471260D3*
X1431890D3*
X1392520D3*
X1353150D3*
X1313780D3*
X1274409D3*
X1235039D3*
X1195669D3*
X1156299D3*
X1116929D3*
X1077559D3*
X1038189D3*
X998819D3*
X959449D3*
X920079D3*
X880709D3*
D74*
X723228Y1476772D3*
Y1437402D3*
Y1398031D3*
Y1358661D3*
Y1319291D3*
Y1279921D3*
Y1240551D3*
Y1201181D3*
Y1161811D3*
Y1122441D3*
Y1083071D3*
Y1043701D3*
Y1004331D3*
Y964961D3*
Y925591D3*
Y886220D3*
Y846850D3*
D72*
X880709Y689370D3*
X920079D3*
X959449D3*
X998819D3*
X1038189D3*
X1077559D3*
X1116929D3*
X1156299D3*
X1195669D3*
X1235039D3*
X1274409D3*
X1313780D3*
X1353150D3*
X1392520D3*
X1431890D3*
X1471260D3*
X1510630D3*
D66*
X1730709Y1992520D3*
X1680709D3*
X1630709D3*
X1580709D3*
X1530709D3*
X1480709D3*
X1430709D3*
Y1779921D3*
X1480709D3*
X1530709D3*
X1580709D3*
X1630709D3*
X1680709D3*
X1730709D3*
D64*
X1204331Y2816142D3*
Y2749213D3*
Y2682283D3*
Y2615354D3*
Y2548425D3*
D62*
X1564173Y2682283D3*
M02*
