G04 DipTrace 3.0.0.1*
G04 TopSilk.gbr*
%MOIN*%
G04 #@! TF.FileFunction,Legend,Top*
G04 #@! TF.Part,Single*
%ADD10C,0.009843*%
%ADD34C,0.015749*%
%ADD42O,0.027954X0.029027*%
%ADD103C,0.00772*%
%FSLAX26Y26*%
G04*
G70*
G90*
G75*
G01*
G04 TopSilk*
%LPD*%
X774794Y2277125D2*
D10*
X798434D1*
X786614Y2288944D2*
Y2265331D1*
X686614Y2147215D2*
G02X686614Y2147215I100000J0D01*
G01*
X597659Y2940138D2*
Y2888996D1*
X1112558Y2242529D2*
Y2218889D1*
X1124377Y2230709D2*
X1100764D1*
X882683D2*
G02X882683Y2230709I99965J0D01*
G01*
X1252383Y2311004D2*
Y2259862D1*
X1451988Y2274037D2*
X1503130D1*
X1549232Y2273249D2*
X1600374D1*
X1716538Y2244496D2*
Y2173617D1*
X1653543Y2244496D2*
Y2173617D1*
D34*
X1685041Y2313387D3*
X739743Y479902D2*
D10*
Y428760D1*
X568877Y481083D2*
Y429941D1*
X967323Y1997638D2*
Y1897638D1*
X1367323Y1997638D2*
X967323D1*
X1367323Y1897638D2*
X967323D1*
X1367323Y1997638D2*
Y1897638D1*
X976378Y1812992D2*
Y1712992D1*
X1376378Y1812992D2*
X976378D1*
X1376378Y1712992D2*
X976378D1*
X1376378Y1812992D2*
Y1712992D1*
X1059055Y3035433D2*
X704691D1*
Y2720490D1*
X702753Y2507849D2*
X702798Y2468497D1*
X771633D1*
X992113D2*
X1059055D1*
Y3035433D1*
X1983858Y2913780D2*
Y3013780D1*
X1783858Y2913780D2*
X1983858D1*
X1783858D2*
Y3013780D1*
X1983858D1*
X1108701Y2008701D2*
Y2108701D1*
X908701Y2008701D2*
X1108701D1*
X908701D2*
Y2108701D1*
X1108701D1*
X1968701Y508701D2*
Y608701D1*
X1768701Y508701D2*
X1968701D1*
X1768701D2*
Y608701D1*
X1968701D1*
X1666699Y829817D2*
Y688816D1*
X1525650D1*
D42*
X1744692Y847354D3*
X860628Y688816D2*
D10*
X720646D1*
Y829817D1*
Y828809D1*
X1666699Y1495820D2*
Y1634806D1*
X1525650D1*
X859668D2*
X720646D1*
Y1493805D1*
X1750005Y1937409D2*
X1411412D1*
X1750005Y1835032D2*
X1411412D1*
Y1937409D2*
Y1835032D1*
X1750005Y1937409D2*
Y1905915D1*
Y1866526D2*
Y1835032D1*
Y1905915D2*
G03X1750005Y1866526I-12J-19694D01*
G01*
X1770866Y2914173D2*
X1094094D1*
Y2452362D1*
X1770866D1*
Y2914173D1*
X1782283Y795669D2*
X1982283D1*
X1782283Y2795669D2*
X1982283D1*
Y795669D1*
X1782283Y2795669D2*
Y795669D1*
X407480D2*
X607480D1*
X407480Y2795669D2*
X607480D1*
Y795669D1*
X407480Y2795669D2*
Y795669D1*
X1437324Y597747D2*
D103*
X1418146Y647987D1*
X1399023Y597747D1*
X1406208Y614494D2*
X1430139D1*
X1452764Y638370D2*
X1457572Y640802D1*
X1464757Y647932D1*
Y597747D1*
X718307Y1857235D2*
X699128Y1907475D1*
X680005Y1857235D1*
X687190Y1873982D2*
X711122D1*
X736178Y1895482D2*
Y1897858D1*
X738554Y1902667D1*
X740931Y1905043D1*
X745739Y1907420D1*
X755301D1*
X760054Y1905043D1*
X762431Y1902667D1*
X764863Y1897858D1*
Y1893105D1*
X762431Y1888297D1*
X757678Y1881167D1*
X733746Y1857235D1*
X767239D1*
X790833Y2350229D2*
X788456Y2354982D1*
X783648Y2359791D1*
X778895Y2362167D1*
X769333D1*
X764524Y2359791D1*
X759771Y2354982D1*
X757339Y2350229D1*
X754963Y2343044D1*
Y2331051D1*
X757339Y2323921D1*
X759771Y2319112D1*
X764524Y2314359D1*
X769333Y2311927D1*
X778895D1*
X783648Y2314359D1*
X788456Y2319112D1*
X790833Y2323921D1*
X806272Y2352550D2*
X811080Y2354982D1*
X818266Y2362112D1*
Y2311927D1*
X520251Y3005379D2*
X517874Y3010133D1*
X513066Y3014941D1*
X508313Y3017318D1*
X498751D1*
X493943Y3014941D1*
X489189Y3010133D1*
X486757Y3005379D1*
X484381Y2998194D1*
Y2986201D1*
X486757Y2979071D1*
X489189Y2974263D1*
X493943Y2969509D1*
X498751Y2967078D1*
X508313D1*
X513066Y2969509D1*
X517874Y2974263D1*
X520251Y2979071D1*
X538122Y3005324D2*
Y3007701D1*
X540499Y3012509D1*
X542875Y3014886D1*
X547684Y3017262D1*
X557245D1*
X561998Y3014886D1*
X564375Y3012509D1*
X566807Y3007701D1*
Y3002947D1*
X564375Y2998139D1*
X559622Y2991009D1*
X535690Y2967078D1*
X569183D1*
X996999Y2391994D2*
X994622Y2396747D1*
X989814Y2401555D1*
X985061Y2403932D1*
X975499D1*
X970691Y2401555D1*
X965937Y2396747D1*
X963506Y2391994D1*
X961129Y2384808D1*
Y2372815D1*
X963506Y2365685D1*
X965937Y2360877D1*
X970691Y2356124D1*
X975499Y2353692D1*
X985061D1*
X989814Y2356124D1*
X994622Y2360877D1*
X996999Y2365685D1*
X1017247Y2403876D2*
X1043500D1*
X1029185Y2384753D1*
X1036370D1*
X1041123Y2382377D1*
X1043500Y2380000D1*
X1045931Y2372815D1*
Y2368062D1*
X1043500Y2360877D1*
X1038746Y2356068D1*
X1031561Y2353692D1*
X1024376D1*
X1017247Y2356068D1*
X1014870Y2358500D1*
X1012438Y2363253D1*
X1173787Y2376245D2*
X1171410Y2380999D1*
X1166602Y2385807D1*
X1161849Y2388184D1*
X1152287D1*
X1147479Y2385807D1*
X1142725Y2380999D1*
X1140294Y2376245D1*
X1137917Y2369060D1*
Y2357067D1*
X1140294Y2349937D1*
X1142725Y2345129D1*
X1147479Y2340376D1*
X1152287Y2337944D1*
X1161849D1*
X1166602Y2340376D1*
X1171410Y2345129D1*
X1173787Y2349937D1*
X1213158Y2337944D2*
Y2388128D1*
X1189226Y2354690D1*
X1225096D1*
X1471028Y2335322D2*
X1468651Y2340075D1*
X1463843Y2344883D1*
X1459090Y2347260D1*
X1449528D1*
X1444719Y2344883D1*
X1439966Y2340075D1*
X1437534Y2335322D1*
X1435158Y2328137D1*
Y2316143D1*
X1437534Y2309013D1*
X1439966Y2304205D1*
X1444719Y2299452D1*
X1449528Y2297020D1*
X1459090D1*
X1463843Y2299452D1*
X1468651Y2304205D1*
X1471028Y2309013D1*
X1515152Y2347205D2*
X1491275D1*
X1488899Y2325705D1*
X1491275Y2328081D1*
X1498460Y2330513D1*
X1505590D1*
X1512775Y2328081D1*
X1517584Y2323328D1*
X1519960Y2316143D1*
Y2311390D1*
X1517584Y2304205D1*
X1512775Y2299396D1*
X1505590Y2297020D1*
X1498460D1*
X1491275Y2299396D1*
X1488899Y2301828D1*
X1486467Y2306581D1*
X1569488Y2334534D2*
X1567111Y2339287D1*
X1562303Y2344096D1*
X1557550Y2346472D1*
X1547988D1*
X1543179Y2344096D1*
X1538426Y2339287D1*
X1535994Y2334534D1*
X1533618Y2327349D1*
Y2315356D1*
X1535994Y2308226D1*
X1538426Y2303417D1*
X1543179Y2298664D1*
X1547988Y2296232D1*
X1557550D1*
X1562303Y2298664D1*
X1567111Y2303417D1*
X1569488Y2308226D1*
X1613612Y2339287D2*
X1611235Y2344041D1*
X1604050Y2346417D1*
X1599297D1*
X1592112Y2344041D1*
X1587304Y2336856D1*
X1584927Y2324917D1*
Y2312979D1*
X1587304Y2303417D1*
X1592112Y2298609D1*
X1599297Y2296232D1*
X1601674D1*
X1608803Y2298609D1*
X1613612Y2303417D1*
X1615988Y2310602D1*
Y2312979D1*
X1613612Y2320164D1*
X1608803Y2324917D1*
X1601674Y2327294D1*
X1599297D1*
X1592112Y2324917D1*
X1587304Y2320164D1*
X1584927Y2312979D1*
X1654578Y2394483D2*
Y2344243D1*
X1671324D1*
X1678509Y2346675D1*
X1683318Y2351428D1*
X1685694Y2356236D1*
X1688071Y2363366D1*
Y2375360D1*
X1685694Y2382545D1*
X1683318Y2387298D1*
X1678509Y2392106D1*
X1671324Y2394483D1*
X1654578D1*
X1703510Y2384866D2*
X1708319Y2387298D1*
X1715504Y2394428D1*
Y2344243D1*
X629643Y557081D2*
Y506841D1*
X646389D1*
X653574Y509273D1*
X658383Y514026D1*
X660759Y518835D1*
X663136Y525965D1*
Y537958D1*
X660759Y545143D1*
X658383Y549896D1*
X653574Y554705D1*
X646389Y557081D1*
X629643D1*
X681007Y545088D2*
Y547464D1*
X683384Y552273D1*
X685760Y554649D1*
X690569Y557026D1*
X700130D1*
X704884Y554649D1*
X707260Y552273D1*
X709692Y547464D1*
Y542711D1*
X707260Y537903D1*
X702507Y530773D1*
X678575Y506841D1*
X712069D1*
X458777Y558262D2*
Y508022D1*
X475523D1*
X482708Y510454D1*
X487517Y515207D1*
X489893Y520016D1*
X492270Y527146D1*
Y539139D1*
X489893Y546324D1*
X487517Y551077D1*
X482708Y555886D1*
X475523Y558262D1*
X458777D1*
X512518Y558207D2*
X538771D1*
X524456Y539084D1*
X531641D1*
X536394Y536707D1*
X538771Y534331D1*
X541202Y527146D1*
Y522393D1*
X538771Y515207D1*
X534017Y510399D1*
X526832Y508022D1*
X519647D1*
X512518Y510399D1*
X510141Y512831D1*
X507709Y517584D1*
X1165572Y2070861D2*
Y2032614D1*
X1163196Y2025429D1*
X1160764Y2023053D1*
X1156011Y2020621D1*
X1151202D1*
X1146449Y2023053D1*
X1144072Y2025429D1*
X1141641Y2032614D1*
Y2037368D1*
X1181012Y2061244D2*
X1185820Y2063676D1*
X1193005Y2070806D1*
Y2020621D1*
X1163878Y1886215D2*
Y1847969D1*
X1161501Y1840784D1*
X1159069Y1838407D1*
X1154316Y1835975D1*
X1149507D1*
X1144754Y1838407D1*
X1142378Y1840784D1*
X1139946Y1847969D1*
Y1852722D1*
X1181749Y1874222D2*
Y1876598D1*
X1184125Y1881407D1*
X1186502Y1883783D1*
X1191310Y1886160D1*
X1200872D1*
X1205625Y1883783D1*
X1208002Y1881407D1*
X1210434Y1876598D1*
Y1871845D1*
X1208002Y1867037D1*
X1203248Y1859907D1*
X1179317Y1835975D1*
X1212810D1*
X821161Y3108656D2*
Y3070410D1*
X818784Y3063225D1*
X816353Y3060848D1*
X811599Y3058416D1*
X806791D1*
X802038Y3060848D1*
X799661Y3063225D1*
X797229Y3070410D1*
Y3075163D1*
X841409Y3108601D2*
X867662D1*
X853347Y3089478D1*
X860532D1*
X865285Y3087101D1*
X867662Y3084724D1*
X870094Y3077539D1*
Y3072786D1*
X867662Y3065601D1*
X862909Y3060793D1*
X855723Y3058416D1*
X848538D1*
X841409Y3060793D1*
X839032Y3063225D1*
X836600Y3067978D1*
X1710635Y2950091D2*
X1748882D1*
X1756067Y2947714D1*
X1758443Y2945282D1*
X1760875Y2940529D1*
Y2935721D1*
X1758443Y2930968D1*
X1756067Y2928591D1*
X1748882Y2926159D1*
X1744129D1*
X1760875Y2989462D2*
X1710691D1*
X1744129Y2965530D1*
Y3001400D1*
X851200Y2016924D2*
Y1978677D1*
X848824Y1971492D1*
X846392Y1969116D1*
X841639Y1966684D1*
X836830D1*
X832077Y1969116D1*
X829701Y1971492D1*
X827269Y1978677D1*
Y1983431D1*
X895324Y2016869D2*
X871448D1*
X869071Y1995369D1*
X871448Y1997745D1*
X878633Y2000177D1*
X885763D1*
X892948Y1997745D1*
X897756Y1992992D1*
X900133Y1985807D1*
Y1981054D1*
X897756Y1973869D1*
X892948Y1969060D1*
X885763Y1966684D1*
X878633D1*
X871448Y1969060D1*
X869071Y1971492D1*
X866640Y1976245D1*
X1857416Y681924D2*
Y643677D1*
X1855040Y636492D1*
X1852608Y634116D1*
X1847855Y631684D1*
X1843046D1*
X1838293Y634116D1*
X1835916Y636492D1*
X1833485Y643677D1*
Y648431D1*
X1901540Y674739D2*
X1899164Y679492D1*
X1891979Y681869D1*
X1887226D1*
X1880041Y679492D1*
X1875232Y672307D1*
X1872856Y660369D1*
Y648431D1*
X1875232Y638869D1*
X1880041Y634060D1*
X1887226Y631684D1*
X1889602D1*
X1896732Y634060D1*
X1901540Y638869D1*
X1903917Y646054D1*
Y648431D1*
X1901540Y655616D1*
X1896732Y660369D1*
X1889602Y662745D1*
X1887226D1*
X1880041Y660369D1*
X1875232Y655616D1*
X1872856Y648431D1*
X635285Y678032D2*
X656785D1*
X663970Y680463D1*
X666402Y682840D1*
X668778Y687593D1*
Y692402D1*
X666402Y697155D1*
X663970Y699587D1*
X656785Y701963D1*
X635285D1*
Y651723D1*
X652032Y678032D2*
X668778Y651723D1*
X684218Y692346D2*
X689026Y694778D1*
X696211Y701908D1*
Y651723D1*
X453275Y680000D2*
X474775D1*
X481960Y682432D1*
X484392Y684808D1*
X486769Y689562D1*
Y694370D1*
X484392Y699123D1*
X481960Y701555D1*
X474775Y703932D1*
X453275D1*
Y653692D1*
X470022Y680000D2*
X486769Y653692D1*
X504640Y691938D2*
Y694315D1*
X507016Y699123D1*
X509393Y701500D1*
X514201Y703876D1*
X523763D1*
X528516Y701500D1*
X530893Y699123D1*
X533325Y694315D1*
Y689562D1*
X530893Y684753D1*
X526140Y677623D1*
X502208Y653692D1*
X535701D1*
X1302488Y2361496D2*
X1323988D1*
X1331173Y2363928D1*
X1333605Y2366305D1*
X1335981Y2371058D1*
Y2375866D1*
X1333605Y2380619D1*
X1331173Y2383051D1*
X1323988Y2385428D1*
X1302488D1*
Y2335188D1*
X1319234Y2361496D2*
X1335981Y2335188D1*
X1356229Y2385373D2*
X1382482D1*
X1368167Y2366249D1*
X1375352D1*
X1380105Y2363873D1*
X1382482Y2361496D1*
X1384914Y2354311D1*
Y2349558D1*
X1382482Y2342373D1*
X1377729Y2337564D1*
X1370544Y2335188D1*
X1363359D1*
X1356229Y2337564D1*
X1353852Y2339996D1*
X1351420Y2344749D1*
X1303268Y2215433D2*
X1324768D1*
X1331953Y2217865D1*
X1334385Y2220242D1*
X1336761Y2224995D1*
Y2229803D1*
X1334385Y2234556D1*
X1331953Y2236988D1*
X1324768Y2239365D1*
X1303268D1*
Y2189125D1*
X1320015Y2215433D2*
X1336761Y2189125D1*
X1376132D2*
Y2239310D1*
X1352201Y2205871D1*
X1388071D1*
X1133984Y2218583D2*
X1155484D1*
X1162669Y2221015D1*
X1165101Y2223391D1*
X1167477Y2228144D1*
Y2232953D1*
X1165101Y2237706D1*
X1162669Y2240138D1*
X1155484Y2242514D1*
X1133984D1*
Y2192274D1*
X1150731Y2218583D2*
X1167477Y2192274D1*
X1211601Y2242459D2*
X1187725D1*
X1185348Y2220959D1*
X1187725Y2223336D1*
X1194910Y2225768D1*
X1202040D1*
X1209225Y2223336D1*
X1214033Y2218583D1*
X1216410Y2211398D1*
Y2206644D1*
X1214033Y2199459D1*
X1209225Y2194651D1*
X1202040Y2192274D1*
X1194910D1*
X1187725Y2194651D1*
X1185348Y2197083D1*
X1182916Y2201836D1*
X1194738Y640915D2*
Y605045D1*
X1197114Y597860D1*
X1201923Y593107D1*
X1209108Y590675D1*
X1213861D1*
X1221046Y593107D1*
X1225854Y597860D1*
X1228231Y605045D1*
Y640915D1*
X1243670Y631298D2*
X1248479Y633730D1*
X1255664Y640860D1*
Y590675D1*
X1538307Y2105113D2*
Y2069243D1*
X1540684Y2062058D1*
X1545492Y2057305D1*
X1552677Y2054873D1*
X1557431D1*
X1564616Y2057305D1*
X1569424Y2062058D1*
X1571801Y2069243D1*
Y2105113D1*
X1611172Y2054873D2*
Y2105058D1*
X1587240Y2071620D1*
X1623110D1*
X1391267Y2987396D2*
Y2951526D1*
X1393644Y2944341D1*
X1398452Y2939588D1*
X1405637Y2937156D1*
X1410391D1*
X1417576Y2939588D1*
X1422384Y2944341D1*
X1424761Y2951526D1*
Y2987396D1*
X1468885Y2987341D2*
X1445008D1*
X1442632Y2965841D1*
X1445008Y2968218D1*
X1452193Y2970650D1*
X1459323D1*
X1466508Y2968218D1*
X1471317Y2963465D1*
X1473693Y2956280D1*
Y2951526D1*
X1471317Y2944341D1*
X1466508Y2939533D1*
X1459323Y2937156D1*
X1452193D1*
X1445008Y2939533D1*
X1442632Y2941965D1*
X1440200Y2946718D1*
X1841098Y2868892D2*
Y2833022D1*
X1843475Y2825837D1*
X1848283Y2821084D1*
X1855468Y2818652D1*
X1860221D1*
X1867406Y2821084D1*
X1872215Y2825837D1*
X1874591Y2833022D1*
Y2868892D1*
X1901969Y2868837D2*
X1894839Y2866461D1*
X1892407Y2861707D1*
Y2856899D1*
X1894839Y2852146D1*
X1899592Y2849714D1*
X1909154Y2847337D1*
X1916339Y2844961D1*
X1921092Y2840152D1*
X1923469Y2835399D1*
Y2828214D1*
X1921092Y2823461D1*
X1918716Y2821029D1*
X1911531Y2818652D1*
X1901969D1*
X1894839Y2821029D1*
X1892407Y2823461D1*
X1890031Y2828214D1*
Y2835399D1*
X1892407Y2840152D1*
X1897216Y2844961D1*
X1904346Y2847337D1*
X1913907Y2849714D1*
X1918716Y2852146D1*
X1921092Y2856899D1*
Y2861707D1*
X1918716Y2866461D1*
X1911531Y2868837D1*
X1901969D1*
X467456Y2868892D2*
Y2833022D1*
X469832Y2825837D1*
X474641Y2821084D1*
X481826Y2818652D1*
X486579D1*
X493764Y2821084D1*
X498572Y2825837D1*
X500949Y2833022D1*
Y2868892D1*
X547505Y2852146D2*
X545073Y2844961D1*
X540320Y2840152D1*
X533135Y2837776D1*
X530758D1*
X523573Y2840152D1*
X518820Y2844961D1*
X516388Y2852146D1*
Y2854522D1*
X518820Y2861707D1*
X523573Y2866461D1*
X530758Y2868837D1*
X533135D1*
X540320Y2866461D1*
X545073Y2861707D1*
X547505Y2852146D1*
Y2840152D1*
X545073Y2828214D1*
X540320Y2821029D1*
X533135Y2818652D1*
X528382D1*
X521197Y2821029D1*
X518820Y2825837D1*
M02*
